<svg width="30" height="20" viewBox="0 0 30 20" fill="none" xmlns="http://www.w3.org/2000/svg">
<path fill-rule="evenodd" clip-rule="evenodd" d="M12.0292 9.08852C12.7687 8.75294 13.4112 8.20592 13.8888 7.50533C14.3279 6.76121 14.546 5.88779 14.5136 5.00384C14.542 4.19772 14.3979 3.39547 14.0922 2.66068C13.8355 2.0241 13.4235 1.47648 12.9009 1.07746C12.3469 0.662625 11.7178 0.381904 11.0559 0.2542C10.2726 0.0751669 9.4736 -0.00977815 8.67328 0.000893561H0.415427C0.185986 0.000893561 0 0.19277 0 0.429477V19.4891C0 19.7258 0.185986 19.9177 0.415427 19.9177H8.86214C9.67091 19.9184 10.4764 19.8067 11.2593 19.5852C12.0013 19.3761 12.7043 19.0278 13.3369 18.5562C13.9495 18.0933 14.4484 17.4736 14.7896 16.7513C15.1672 15.9436 15.3521 15.0451 15.3272 14.1389C15.3547 13.0161 15.0656 11.9109 14.4991 10.9726C13.8898 10.0288 12.986 9.3591 11.9567 9.08852H12.0292ZM4.22348 3.21436C4.07052 3.21436 3.94652 3.34228 3.94652 3.50009V7.92877C3.94652 8.08664 4.07052 8.2145 4.22348 8.2145H8.10079C9.43914 8.2145 10.5241 7.09518 10.5241 5.71443C10.5241 4.33368 9.43914 3.21436 8.10079 3.21436H4.22348ZM3.94652 11.0003C3.94652 10.8424 4.07052 10.7146 4.22348 10.7146H8.27388C9.89903 10.7146 11.2165 12.0737 11.2165 13.7504C11.2165 15.427 9.89903 16.7861 8.27388 16.7861H4.22348C4.07052 16.7861 3.94652 16.6583 3.94652 16.5004V11.0003Z" fill="black"/>
<path d="M19.3021 1.0144H25.8426C26.0699 1.0144 26.2549 1.20279 26.2579 1.43723L26.2759 2.81239C26.279 3.05132 26.0922 3.24672 25.8605 3.24672H19.3021C19.0727 3.24672 18.8867 3.05484 18.8867 2.81814V1.44299C18.8867 1.20628 19.0727 1.0144 19.3021 1.0144Z" fill="black"/>
<path fill-rule="evenodd" clip-rule="evenodd" d="M22.8089 16.9568C23.4788 16.9791 24.1388 16.7744 24.6975 16.3709C25.0573 16.1238 25.3439 15.7708 25.5253 15.3546C25.5734 15.2443 25.6764 15.1677 25.7936 15.1677H28.4537C28.634 15.1677 28.7664 15.3429 28.7132 15.5208C28.3077 16.8765 27.5125 18.0584 26.4409 18.8883C25.2888 19.6572 23.9557 20.0423 22.6054 19.9964C21.643 20.0143 20.6865 19.8316 19.7871 19.4581C18.9804 19.1097 18.2557 18.5687 17.6659 17.875C17.0959 17.1684 16.6612 16.3449 16.3875 15.4526C16.0651 14.4674 15.9075 13.4271 15.9225 12.3812C15.9136 11.3499 16.0761 10.3255 16.402 9.35731C16.7056 8.46043 17.1754 7.64126 17.7821 6.95083C18.3905 6.2739 19.1166 5.7357 19.9178 5.36762C20.7928 4.97345 21.7314 4.77428 22.6781 4.78183C23.6847 4.76487 24.6808 5.00908 25.5838 5.49428C26.3954 5.95486 27.1006 6.60981 27.6468 7.40997C28.1892 8.23485 28.5836 9.16416 28.809 10.1489C29.0419 11.1839 29.1253 12.2522 29.0559 13.3153H19.4384C19.3959 14.3363 19.7188 15.3353 20.339 16.1018C20.6745 16.4218 21.0671 16.6629 21.4921 16.8101C21.9171 16.9572 22.3653 17.0071 22.8089 16.9568ZM19.5248 10.5696C19.5248 10.6495 19.5875 10.7142 19.6649 10.7142H25.2699C25.3473 10.7142 25.41 10.6495 25.41 10.5696C25.41 8.97287 24.1553 7.67841 22.6075 7.67841H22.3273C20.7795 7.67841 19.5248 8.97287 19.5248 10.5696Z" fill="black"/>
</svg>
