<svg width="58" height="32" viewBox="0 0 58 32" fill="none" xmlns="http://www.w3.org/2000/svg">
<path d="M41.4546 32C50.425 32 57.697 24.8366 57.697 16C57.697 7.16344 50.425 0 41.4546 0C32.4841 0 25.2122 7.16344 25.2122 16C25.2122 24.8366 32.4841 32 41.4546 32Z" fill="white"/>
<path d="M0 15.5151C-9.95683e-08 13.4772 0.402474 11.4593 1.18444 9.57661C1.9664 7.69391 3.11253 5.98332 4.55737 4.54254C6.0022 3.10176 7.71743 1.95902 9.60508 1.1796C11.4927 0.400173 13.5158 -0.000665665 15.5588 -2.86102e-05H22.7879L22.7879 31.0303H15.5588C13.5158 31.0309 11.4927 30.6301 9.60508 29.8506C7.71743 29.0712 6.0022 27.9285 4.55737 26.4877C3.11253 25.0469 1.9664 23.3363 1.18444 21.4536C0.402474 19.5709 -9.95683e-08 17.553 0 15.5151Z" fill="white"/>
</svg>
