<svg width="56" height="32" viewBox="0 0 56 32" fill="none" xmlns="http://www.w3.org/2000/svg">
<g clip-path="url(#clip0_433_76)">
<path d="M3.43323e-05 18.152C3.43323e-05 19.9706 0.357132 21.7713 1.05104 23.4514C1.74495 25.1315 2.76203 26.6581 4.04421 27.944C5.32639 29.2299 6.84859 30.25 8.52383 30.9459C10.1991 31.6418 11.9946 32 13.8078 32C17.1815 31.9992 20.4381 30.7598 22.9628 28.5157C25.4876 26.2715 27.1058 23.178 27.512 19.8192C27.9277 23.169 29.5493 26.251 32.0718 28.4859C34.5943 30.7208 37.8439 31.9546 41.2097 31.9552C44.8715 31.9552 48.3834 30.4965 50.9728 27.8998C53.5622 25.3031 55.0172 21.7813 55.0176 18.1088V0H27.4035V0.0448055H3.43323e-05V18.152Z" fill="white"/>
</g>
<defs>
<clipPath id="clip0_433_76">
<rect width="55.0175" height="32" fill="white" transform="translate(55.0176 32) rotate(-180)"/>
</clipPath>
</defs>
</svg>
