<svg width="56" height="32" viewBox="0 0 56 32" fill="none" xmlns="http://www.w3.org/2000/svg">
<g clip-path="url(#clip0_433_11)">
<path d="M55.0175 13.848C55.0175 12.0294 54.6604 10.2287 53.9665 8.54859C53.2726 6.86848 52.2555 5.34188 50.9734 4.05598C49.6912 2.77007 48.169 1.75003 46.4937 1.0541C44.8185 0.358174 43.023 0 41.2097 0C37.8361 0.000799988 34.5795 1.24022 32.0547 3.48434C29.53 5.72845 27.9118 8.82196 27.5056 12.1808C27.0898 8.83103 25.4682 5.74898 22.9458 3.5141C20.4233 1.27922 17.1737 0.045437 13.8079 0.0447656C10.1461 0.0447656 6.63422 1.50354 4.0448 4.1002C1.45537 6.69685 0.000423084 10.2187 0 13.8912V32H27.6141V31.9552H55.0175V13.848Z" fill="white"/>
</g>
<defs>
<clipPath id="clip0_433_11">
<rect width="55.0175" height="32" fill="white"/>
</clipPath>
</defs>
</svg>
