<svg width="32" height="32" viewBox="0 0 32 32" fill="none" xmlns="http://www.w3.org/2000/svg">
<mask id="mask0_2947_5380" style="mask-type:alpha" maskUnits="userSpaceOnUse" x="0" y="0" width="32" height="32">
<rect width="32" height="32" fill="#D9D9D9"/>
</mask>
<g mask="url(#mask0_2947_5380)">
<path d="M15.9998 29.3327C14.1776 29.3327 12.4554 28.9825 10.8332 28.282C9.21095 27.5825 7.7945 26.6269 6.58384 25.4153C5.37228 24.2047 4.41673 22.7882 3.71717 21.166C3.01673 19.5438 2.6665 17.8216 2.6665 15.9993C2.6665 14.1549 3.01673 12.4273 3.71717 10.8167C4.41673 9.20513 5.37228 7.79402 6.58384 6.58335C7.7945 5.37179 9.21095 4.41579 10.8332 3.71535C12.4554 3.01579 14.1776 2.66602 15.9998 2.66602C17.8443 2.66602 19.5718 3.01579 21.1825 3.71535C22.7941 4.41579 24.2052 5.37179 25.4158 6.58335C26.6274 7.79402 27.5829 9.20513 28.2825 10.8167C28.9829 12.4273 29.3332 14.1549 29.3332 15.9993C29.3332 17.8216 28.9829 19.5438 28.2825 21.166C27.5829 22.7882 26.6274 24.2047 25.4158 25.4153C24.2052 26.6269 22.7941 27.5825 21.1825 28.282C19.5718 28.9825 17.8443 29.3327 15.9998 29.3327ZM15.9998 26.5993C16.5776 25.7993 17.0776 24.966 17.4998 24.0993C17.9221 23.2327 18.2665 22.3105 18.5332 21.3327H13.4665C13.7332 22.3105 14.0776 23.2327 14.4998 24.0993C14.9221 24.966 15.4221 25.7993 15.9998 26.5993ZM12.5332 26.066C12.1332 25.3327 11.7834 24.5713 11.4838 23.782C11.1834 22.9936 10.9332 22.1771 10.7332 21.3327H6.79984C7.44428 22.4438 8.24961 23.4105 9.21584 24.2327C10.1829 25.0549 11.2887 25.666 12.5332 26.066ZM19.4665 26.066C20.7109 25.666 21.8163 25.0549 22.7825 24.2327C23.7496 23.4105 24.5554 22.4438 25.1998 21.3327H21.2665C21.0665 22.1771 20.8167 22.9936 20.5172 23.782C20.2167 24.5713 19.8665 25.3327 19.4665 26.066ZM5.6665 18.666H10.1998C10.1332 18.2216 10.0829 17.7825 10.0492 17.3487C10.0163 16.9158 9.99984 16.466 9.99984 15.9993C9.99984 15.5327 10.0163 15.0829 10.0492 14.65C10.0829 14.2162 10.1332 13.7771 10.1998 13.3327H5.6665C5.55539 13.7771 5.47184 14.2162 5.41584 14.65C5.36073 15.0829 5.33317 15.5327 5.33317 15.9993C5.33317 16.466 5.36073 16.9158 5.41584 17.3487C5.47184 17.7825 5.55539 18.2216 5.6665 18.666ZM12.8665 18.666H19.1332C19.1998 18.2216 19.2501 17.7825 19.2838 17.3487C19.3167 16.9158 19.3332 16.466 19.3332 15.9993C19.3332 15.5327 19.3167 15.0829 19.2838 14.65C19.2501 14.2162 19.1998 13.7771 19.1332 13.3327H12.8665C12.7998 13.7771 12.7501 14.2162 12.7172 14.65C12.6834 15.0829 12.6665 15.5327 12.6665 15.9993C12.6665 16.466 12.6834 16.9158 12.7172 17.3487C12.7501 17.7825 12.7998 18.2216 12.8665 18.666ZM21.7998 18.666H26.3332C26.4443 18.2216 26.5278 17.7825 26.5838 17.3487C26.6389 16.9158 26.6665 16.466 26.6665 15.9993C26.6665 15.5327 26.6389 15.0829 26.5838 14.65C26.5278 14.2162 26.4443 13.7771 26.3332 13.3327H21.7998C21.8665 13.7771 21.9163 14.2162 21.9492 14.65C21.9829 15.0829 21.9998 15.5327 21.9998 15.9993C21.9998 16.466 21.9829 16.9158 21.9492 17.3487C21.9163 17.7825 21.8665 18.2216 21.7998 18.666ZM21.2665 10.666H25.1998C24.5554 9.5549 23.7496 8.58824 22.7825 7.76602C21.8163 6.94379 20.7109 6.33268 19.4665 5.93268C19.8665 6.66602 20.2167 7.4269 20.5172 8.21535C20.8167 9.00468 21.0665 9.82157 21.2665 10.666ZM13.4665 10.666H18.5332C18.2665 9.68824 17.9221 8.76602 17.4998 7.89935C17.0776 7.03268 16.5776 6.19935 15.9998 5.39935C15.4221 6.19935 14.9221 7.03268 14.4998 7.89935C14.0776 8.76602 13.7332 9.68824 13.4665 10.666ZM6.79984 10.666H10.7332C10.9332 9.82157 11.1834 9.00468 11.4838 8.21535C11.7834 7.4269 12.1332 6.66602 12.5332 5.93268C11.2887 6.33268 10.1829 6.94379 9.21584 7.76602C8.24961 8.58824 7.44428 9.5549 6.79984 10.666Z" fill="black"/>
</g>
</svg>
