<svg width="24" height="24" viewBox="0 0 24 24" fill="none" xmlns="http://www.w3.org/2000/svg">
<g clip-path="url(#clip0_661_1073)">
<path d="M23.7951 1.6106C23.3225 0.695346 22.6168 0.107373 21.5623 0H2.4377C2.15637 0.0445434 1.87223 0.0703317 1.61107 0.2049C0.710819 0.667214 0.131755 1.3635 0 2.39081V21.6097C0.0548588 21.7789 0.0356348 21.9613 0.102215 22.1296C0.517173 23.1799 1.24956 23.8396 2.39081 24.0005H21.5628C21.8441 23.9559 22.1282 23.9301 22.3894 23.7956C23.2897 23.3328 23.8682 22.637 24 21.6097V2.4377C23.9555 2.15637 23.9297 1.87223 23.7951 1.61107V1.6106ZM22.125 21.0461C22.125 21.7597 21.7592 22.125 21.0447 22.125C15.0144 22.125 8.98371 22.125 2.95346 22.125C2.23983 22.125 1.87504 21.7592 1.87504 21.0447C1.87504 15.0144 1.87504 8.98371 1.87504 2.95346C1.87504 2.23842 2.23936 1.87504 2.95487 1.87504C5.97773 1.87504 9.00106 1.87504 12.0239 1.87504C15.0468 1.87504 18.0387 1.87504 21.0461 1.87504C21.7606 1.87504 22.125 2.23936 22.125 2.95487C22.125 8.98511 22.125 15.0158 22.125 21.0461Z" fill="black"/>
<path d="M19.5925 11.812C19.3604 10.7491 18.8756 9.86991 17.83 9.40197C17.3761 9.19894 16.895 9.1047 16.4032 9.06812C14.9318 8.95841 13.6523 9.30913 12.7501 10.6398C12.7501 10.2098 12.7422 9.81552 12.7539 9.42166C12.7586 9.26646 12.7122 9.22989 12.5612 9.23129C11.6239 9.23833 10.6866 9.2388 9.74932 9.23129C9.59459 9.22989 9.55896 9.27302 9.55896 9.424C9.56318 12.8295 9.56318 16.2354 9.55896 19.6409C9.55896 19.7932 9.59694 19.8336 9.75026 19.8326C10.6796 19.8251 11.6094 19.8237 12.5387 19.8336C12.7136 19.8354 12.7553 19.7932 12.7544 19.6179C12.7469 17.9777 12.7506 16.3371 12.7492 14.697C12.7492 14.3922 12.7628 14.0889 12.7956 13.7855C12.9171 12.664 13.4699 12.0258 14.4564 11.8762C15.5404 11.7117 16.2653 12.2335 16.4548 13.3119C16.5129 13.6434 16.5438 13.9773 16.5443 14.3135C16.5457 16.0868 16.5476 17.8596 16.5443 19.6329C16.5443 19.7703 16.5565 19.8354 16.7262 19.8336C17.687 19.8237 18.6477 19.8251 19.6084 19.8331C19.7599 19.8345 19.7847 19.7881 19.7843 19.6498C19.7786 17.6111 19.7838 15.5724 19.7739 13.5337C19.7711 12.9561 19.7163 12.3798 19.5925 11.8129V11.812Z" fill="black"/>
<path d="M7.50015 14.5093C7.50015 12.8218 7.49734 11.1348 7.50437 9.44733C7.50531 9.27572 7.46967 9.22742 7.29056 9.2293C6.32983 9.23962 5.3691 9.23774 4.4079 9.23071C4.25786 9.22977 4.21472 9.2654 4.21472 9.4206C4.21941 12.8265 4.21941 16.2325 4.21472 19.6384C4.21472 19.788 4.24801 19.833 4.40415 19.832C5.36488 19.8241 6.32608 19.8231 7.28681 19.8325C7.45936 19.8344 7.50484 19.7959 7.5039 19.6182C7.49593 17.9153 7.49921 16.2123 7.49921 14.5093H7.50015Z" fill="black"/>
<path d="M5.91396 3.938C4.85382 3.93518 3.98781 4.7937 3.98499 5.85102C3.98218 6.91021 4.84163 7.77717 5.89802 7.78045C6.95674 7.78373 7.8237 6.92381 7.82698 5.86696C7.83026 4.8073 6.97081 3.94081 5.91396 3.938V3.938Z" fill="black"/>
</g>
<defs>
<clipPath id="clip0_661_1073">
<rect width="24" height="24" fill="white"/>
</clipPath>
</defs>
</svg>
