<svg width="72" height="39" viewBox="0 0 72 39" fill="none" xmlns="http://www.w3.org/2000/svg">
<path d="M72 39H0V0H72V39ZM0.582432 38.4226H71.4176V0.577406H0.582432V38.4226Z" fill="white"/>
<path d="M56.4515 25.5627H55.1031V13.5502H56.4515V25.5627ZM46.335 24.32C47.158 24.32 47.8733 24.2322 48.4811 24.0564C49.0888 23.8807 49.646 23.5544 50.1588 23.0774C50.6526 22.6192 51.0261 22.092 51.2856 21.4832C51.5452 20.8807 51.6718 20.2343 51.6718 19.5564C51.6718 18.8535 51.5389 18.1945 51.273 17.5669C51.0071 16.9393 50.6146 16.4058 50.1018 15.9602C49.589 15.5021 49.0319 15.1945 48.4368 15.0376C47.8417 14.8807 47.1453 14.7991 46.3413 14.7991H45.36V24.3263H46.335V24.32ZM44.0052 13.5502H46.2906C47.2972 13.5502 48.1709 13.6506 48.9116 13.8514C49.6523 14.0523 50.355 14.4351 51.0197 15C51.6971 15.5711 52.1973 16.2489 52.5328 17.0334C52.862 17.8117 53.0329 18.659 53.0329 19.5753C53.0329 20.4665 52.8683 21.2887 52.5328 22.0481C52.2036 22.8012 51.7098 23.4728 51.0514 24.0564C50.374 24.6527 49.6713 25.0544 48.9369 25.2615C48.2025 25.4686 47.3099 25.5753 46.259 25.5753H44.0052V13.5502ZM36.6425 25.5627H35.2941V13.5502H37.0477C37.6681 13.5502 38.2442 13.6004 38.7697 13.7008C39.2951 13.8012 39.7636 13.9707 40.1688 14.2092C40.5739 14.4477 40.8968 14.7866 41.1311 15.2322C41.3653 15.6715 41.4856 16.2175 41.4856 16.864C41.4856 17.7866 41.2134 18.5523 40.6626 19.1485C40.1181 19.751 39.3774 20.0899 38.4468 20.1778L42.3022 25.5627H40.6436L36.9781 20.2845H36.6425V25.5627ZM36.6425 19.1108H37.0604C37.4972 19.1108 37.896 19.0857 38.2442 19.0292C38.5924 18.979 38.9089 18.8723 39.2002 18.7154C39.4914 18.5585 39.7193 18.3389 39.8839 18.0564C40.0485 17.7677 40.1308 17.4037 40.1308 16.9581C40.1308 16.4811 40.0485 16.092 39.8902 15.8033C39.7319 15.5083 39.5104 15.2949 39.2318 15.1506C38.9533 15.0062 38.6367 14.9121 38.2885 14.8619C37.9403 14.8117 37.5225 14.7928 37.0414 14.7928H36.6425V19.1108ZM26.7095 13.5502H32.996V14.7928H28.058V18.364H32.8504V19.6067H28.058V24.3263H32.996V25.569H26.7095V13.5502ZM20.4737 22.7133L23.9303 13.5502H25.3927L20.4737 26.2845L15.5547 13.5502H17.0171L20.4737 22.7133Z" fill="white"/>
</svg>
