<svg width="82" height="54" viewBox="0 0 82 54" fill="none" xmlns="http://www.w3.org/2000/svg">
<path d="M10.9317 15.3451V12.5386C10.9317 7.91225 10.5283 6.71123 9.06535 6.71123C8.40627 6.71123 7.34373 7.0023 7.34373 8.16962C7.34373 8.46068 7.41765 8.82528 7.5624 9.22664H8.4771C8.65881 9.69847 8.76969 10.1734 8.76969 10.8658C8.76969 12.5785 7.37761 13.706 5.5482 13.706C3.27838 13.706 2.40064 12.4682 2.40064 10.682C2.40064 7.62119 5.07391 6.20264 10.054 6.20264C15.804 6.20264 17.7443 7.80502 17.7443 13.0871V20.4832C17.7443 21.9752 18.1847 22.3766 18.8068 22.3766C19.4659 22.3766 20.088 21.6842 20.2728 18.6234L20.821 18.6602C20.6393 23.0323 19.2842 24.27 16.1335 24.27C13.1677 24.27 11.52 23.3601 11.0795 21.5739C10.4944 23.3233 9.43185 24.27 6.86944 24.27C4.30704 24.27 1.44897 23.5041 1.44897 19.8612C1.44897 16.1815 4.6335 15.3451 9.87226 15.3451H10.9317ZM10.9317 19.3158V15.9272H10.6761C9.13927 15.9272 8.40627 17.021 8.40627 19.2423V19.8244C8.40627 22.4471 8.66189 22.8117 9.35793 22.8117C10.054 22.8147 10.9317 21.6474 10.9317 19.3158Z" fill="black"/>
<path d="M30.0819 6.56723V9.91906C30.704 8.09915 31.9113 6.20264 35.5393 6.20264C38.9456 6.20264 41.2154 7.87855 41.2154 12.2874V23.2528H43.2665V23.9085H32.903V23.2528H34.4028V11.4142C34.4028 8.31668 33.9624 7.95208 33.0477 7.95208C31.5109 7.95208 30.0819 10.2469 30.0819 13.1974V23.2528H31.6557V23.9085H21.2551V23.2528H23.2693V7.22595H21.2551V6.5703H30.0819V6.56723Z" fill="black"/>
<path d="M45.3887 7.2229H43.3745V6.56724H45.3887V1.86732L52.1982 0.191406V6.56724H56.9596V7.2229H52.1982V19.4997C52.1982 21.6505 52.5277 22.8147 53.8089 22.8147C55.5675 22.8147 56.6639 21.2123 56.9934 18.7337L57.6156 18.8072C57.286 21.6505 56.0787 24.27 51.6099 24.27C47.985 24.27 45.3856 23.213 45.3856 18.6969V7.2229H45.3887Z" fill="black"/>
<path d="M8.94213 30.1158C9.74596 28.2928 11.138 26.8743 13.9961 26.8743C18.0984 26.8743 20.6239 29.7512 20.6239 35.9432C20.6239 42.172 18.0615 44.9417 13.0814 44.9417C10.5929 44.9417 9.67512 44.286 9.01604 43.1555V52.589H13.7405V53.2447H0.192383V52.589H2.20658V27.8915H0.266299V27.2358H8.94521V30.1158H8.94213ZM9.01604 33.4676V40.1345C9.01604 42.1015 9.786 43.8877 11.3967 43.8877C13.1923 43.8877 13.5557 41.7369 13.5557 36.6755V34.779C13.5557 29.644 13.1153 28.4399 11.871 28.4399C10.3712 28.4399 9.01604 30.2996 9.01604 33.4676Z" fill="black"/>
<path d="M31.5726 36.0167V33.2103C31.5726 28.5839 31.1691 27.3829 29.7062 27.3829C29.0471 27.3829 27.9846 27.6739 27.9846 28.8412C27.9846 29.1323 28.0585 29.4969 28.2033 29.8983H29.118C29.2997 30.3701 29.4106 30.845 29.4106 31.5374C29.4106 33.2501 28.0185 34.3776 26.1891 34.3776C23.9193 34.3776 23.0415 33.1398 23.0415 31.3536C23.0415 28.2928 25.7148 26.8743 30.6948 26.8743C36.4449 26.8743 38.3851 28.4766 38.3851 33.7587V41.1548C38.3851 42.6469 38.8255 43.0482 39.4477 43.0482C40.1067 43.0482 40.7289 42.3558 40.9137 39.295L41.4619 39.3318C41.2802 43.7039 39.925 44.9417 36.7744 44.9417C33.8085 44.9417 32.1608 44.0317 31.7204 42.2455C31.1353 43.9949 30.0727 44.9417 27.5103 44.9417C24.9479 44.9417 22.0898 44.1757 22.0898 40.5328C22.0898 36.8532 25.2744 36.0167 30.5131 36.0167H31.5726ZM31.5726 39.9874V36.5989H31.317C29.7801 36.5989 29.0471 37.6926 29.0471 39.9139V40.496C29.0471 43.1187 29.3028 43.4833 29.9988 43.4833C30.6948 43.4863 31.5726 42.319 31.5726 39.9874Z" fill="black"/>
<path d="M49.0751 35.07V36.9635C49.0751 41.6266 49.9159 43.7039 52.774 43.7039C56.1064 43.7039 57.5354 40.8974 57.9358 38.9304L58.5948 39.004C58.1175 41.262 56.9102 44.9417 50.7937 44.9417C45.1546 44.9417 42.0039 41.8104 42.0039 36.127C42.0039 30.0086 45.7397 26.8743 51.7823 26.8743C56.2511 26.8743 58.484 28.7677 58.484 31.5006C58.484 33.7587 57.2767 34.926 55.4442 34.926C53.5409 34.926 52.1858 33.9425 52.1858 31.902C52.1858 31.5742 52.2227 31.1024 52.3675 30.5907H53.5748C53.7565 30.0821 53.8304 29.644 53.8304 29.2794C53.8304 28.0416 53.0974 27.5299 52.0718 27.5299C49.9529 27.5299 49.0751 29.644 49.0751 35.07Z" fill="black"/>
<path d="M71.1173 43.9213H72.802L68.6658 35.4713L67.9698 35.6521V43.9213H69.6544V44.577H59.143V43.9213H61.1572V17.9125H58.9983V17.2568H67.9698V34.9259L68.5549 34.7053L76.7934 27.8945H73.3533V27.2388H80.5662V27.8945H78.0038L73.6459 31.5741L79.981 43.9213H81.2992V44.577H71.1173V43.9213Z" fill="black"/>
<path d="M36.7438 49.6816L35.6997 50.2515C35.5026 50.0462 35.3086 49.9052 35.1176 49.8256C34.9267 49.7459 34.7019 49.7061 34.4431 49.7061C33.975 49.7061 33.5962 49.844 33.3067 50.1228C33.0172 50.4016 32.8724 50.757 32.8724 51.1921C32.8724 51.6149 33.011 51.9611 33.2913 52.2276C33.5716 52.4942 33.9381 52.629 34.3908 52.629C34.9513 52.629 35.3886 52.439 35.6997 52.0591L36.6883 52.7332C36.1524 53.4256 35.3979 53.7718 34.4216 53.7718C33.5438 53.7718 32.854 53.5144 32.3581 52.9967C31.8623 52.4789 31.6128 51.8722 31.6128 51.1798C31.6128 50.6988 31.7329 50.2545 31.9762 49.8501C32.2164 49.4457 32.5552 49.127 32.9895 48.8972C33.4237 48.6644 33.9073 48.551 34.4431 48.551C34.939 48.551 35.3825 48.6491 35.7798 48.8452C36.1678 49.0412 36.4912 49.32 36.7438 49.6816Z" fill="black"/>
<path d="M40.2177 48.5479C40.6889 48.5479 41.1324 48.6643 41.5482 48.9002C41.964 49.1361 42.2873 49.4517 42.5183 49.8561C42.7493 50.2575 42.8663 50.6925 42.8663 51.1582C42.8663 51.627 42.7493 52.0651 42.5152 52.4726C42.2812 52.8801 41.9609 53.1988 41.5574 53.4286C41.154 53.6583 40.7074 53.7717 40.2208 53.7717C39.5032 53.7717 38.8934 53.5174 38.3852 53.0119C37.8801 52.5063 37.6245 51.8905 37.6245 51.1644C37.6245 50.3892 37.9109 49.7397 38.4838 49.2219C38.9889 48.7746 39.5648 48.5479 40.2177 48.5479ZM40.2393 49.7213C39.8512 49.7213 39.5248 49.8561 39.2661 50.1257C39.0073 50.3954 38.878 50.7416 38.878 51.1613C38.878 51.5933 39.0043 51.9426 39.263 52.2122C39.5186 52.4818 39.842 52.6136 40.2362 52.6136C40.6304 52.6136 40.9538 52.4788 41.2156 52.2061C41.4774 51.9334 41.6067 51.5872 41.6067 51.1613C41.6067 50.7354 41.4774 50.3892 41.2217 50.1227C40.963 49.8561 40.6366 49.7213 40.2393 49.7213Z" fill="black"/>
<path d="M47.5785 46.7588H48.832V53.6463H47.5785V53.1223C47.3352 53.3552 47.0888 53.5206 46.8424 53.6217C46.596 53.7229 46.3312 53.7749 46.0417 53.7749C45.398 53.7749 44.8375 53.5268 44.3693 53.0274C43.8981 52.531 43.6641 51.9091 43.6641 51.1707C43.6641 50.4017 43.892 49.7736 44.3478 49.2834C44.8036 48.7932 45.358 48.5481 46.0078 48.5481C46.3065 48.5481 46.5899 48.6032 46.8517 48.7166C47.1135 48.8299 47.3568 48.9984 47.5816 49.2252V46.7588H47.5785ZM46.2603 49.7001C45.8723 49.7001 45.552 49.8349 45.2933 50.1075C45.0377 50.3802 44.9083 50.7295 44.9083 51.1554C44.9083 51.5843 45.0377 51.9366 45.2994 52.2154C45.5612 52.4943 45.8815 52.6321 46.2634 52.6321C46.6576 52.6321 46.9841 52.4973 47.2428 52.2246C47.5015 51.952 47.6309 51.5966 47.6309 51.1523C47.6309 50.7203 47.5015 50.371 47.2428 50.1014C46.9841 49.8349 46.6576 49.7001 46.2603 49.7001Z" fill="black"/>
<path d="M55.1025 51.5229H51.0772C51.1357 51.8753 51.2897 52.1571 51.5423 52.3655C51.7948 52.5738 52.1182 52.678 52.5093 52.678C52.9775 52.678 53.3809 52.5156 53.7166 52.1908L54.773 52.6841C54.5112 53.0548 54.194 53.3306 53.8275 53.5083C53.461 53.686 53.0237 53.7748 52.5186 53.7748C51.7363 53.7748 51.0957 53.5297 50.6029 53.0365C50.1102 52.5463 49.8638 51.9304 49.8638 51.189C49.8638 50.4322 50.1102 49.8011 50.5998 49.3017C51.0926 48.7992 51.7055 48.551 52.4477 48.551C53.2331 48.551 53.8737 48.8023 54.3664 49.3017C54.8592 49.8041 55.1056 50.4628 55.1056 51.287L55.1025 51.5229ZM53.849 50.5394C53.7659 50.2637 53.6027 50.037 53.3594 49.8623C53.116 49.6877 52.8327 49.6019 52.5093 49.6019C52.1613 49.6019 51.8533 49.7 51.5885 49.893C51.4222 50.0155 51.2712 50.23 51.1296 50.5364H53.849V50.5394Z" fill="black"/>
<path d="M57.7295 50.5089V48.7993H58.8752V50.5089H60.5938V51.6517H58.8752V53.3614H57.7295V51.6517H56.011V50.5089H57.7295Z" fill="black"/>
<path d="M66.6488 49.6816L65.6047 50.2515C65.4076 50.0462 65.2136 49.9052 65.0226 49.8256C64.8317 49.7459 64.6069 49.7061 64.3482 49.7061C63.88 49.7061 63.5012 49.844 63.2117 50.1228C62.9222 50.4016 62.7775 50.757 62.7775 51.1921C62.7775 51.6149 62.9161 51.9611 63.1963 52.2276C63.4766 52.4942 63.8431 52.629 64.2958 52.629C64.8563 52.629 65.2937 52.439 65.6047 52.0591L66.5934 52.7332C66.0575 53.4256 65.3029 53.7718 64.3266 53.7718C63.4489 53.7718 62.759 53.5144 62.2631 52.9967C61.7673 52.4789 61.5178 51.8722 61.5178 51.1798C61.5178 50.6988 61.6379 50.2545 61.8812 49.8501C62.1245 49.4457 62.4602 49.127 62.8945 48.8972C63.3288 48.6644 63.8123 48.551 64.3482 48.551C64.844 48.551 65.2875 48.6491 65.6848 48.8452C66.0759 49.0412 66.3993 49.32 66.6488 49.6816Z" fill="black"/>
<path d="M67.4834 48.6765H68.5583V49.3016C68.6753 49.0534 68.8293 48.8665 69.0233 48.7409C69.2173 48.6122 69.4268 48.5479 69.6578 48.5479C69.821 48.5479 69.9904 48.5907 70.1659 48.6765L69.7748 49.7489C69.627 49.6753 69.5069 49.6386 69.4114 49.6386C69.2173 49.6386 69.0541 49.7581 68.9217 49.994C68.7893 50.233 68.7215 50.6987 68.7215 51.3911L68.7277 51.6331V53.643H67.4834V48.6765Z" fill="black"/>
<path d="M74.4714 48.6765H75.7249V53.6461H74.4714V53.1221C74.2281 53.355 73.9818 53.5204 73.7354 53.6216C73.489 53.7227 73.2241 53.7747 72.9346 53.7747C72.2909 53.7747 71.7335 53.5266 71.2623 53.0272C70.7911 52.5308 70.557 51.9089 70.557 51.1705C70.557 50.4015 70.7849 49.7734 71.2407 49.2832C71.6965 48.793 72.2509 48.5479 72.9007 48.5479C73.1995 48.5479 73.4828 48.603 73.7446 48.7164C74.0064 48.8297 74.2497 48.9982 74.4745 49.225V48.6765H74.4714ZM73.1533 49.6999C72.7652 49.6999 72.4449 49.8347 72.1862 50.1073C71.9306 50.38 71.8013 50.7293 71.8013 51.1552C71.8013 51.5841 71.9306 51.9364 72.1924 52.2152C72.4542 52.4941 72.7745 52.6319 73.1564 52.6319C73.5506 52.6319 73.877 52.4971 74.1357 52.2244C74.3945 51.9518 74.5238 51.5964 74.5238 51.1521C74.5238 50.7201 74.3945 50.3708 74.1357 50.1012C73.8801 49.8347 73.5506 49.6999 73.1533 49.6999Z" fill="black"/>
<path d="M76.3964 48.6766H76.843C76.846 48.024 76.8553 47.6411 76.8738 47.5216C76.9076 47.2458 77.0216 47.0314 77.2187 46.872C77.4158 46.7127 77.6961 46.6331 78.0564 46.6331C78.3151 46.6331 78.6108 46.6913 78.9372 46.8108V47.7605C78.7555 47.7085 78.6077 47.6839 78.4907 47.6839C78.3428 47.6839 78.235 47.7146 78.1704 47.7759C78.1211 47.8218 78.0964 47.9168 78.0964 48.0577L78.0934 48.6797H78.888V49.7337H78.0934V53.6492H76.8399V49.7337H76.3933V48.6766H76.3964Z" fill="black"/>
<path d="M79.7749 46.8445H81.0284V48.6766H81.7706V49.749H81.0284V53.6462H79.7749V49.749H79.1312V48.6766H79.7749V46.8445Z" fill="black"/>
</svg>
