<svg width="100" height="65" viewBox="0 0 100 65" fill="none" xmlns="http://www.w3.org/2000/svg">
<mask id="mask0_228_2960" style="mask-type:alpha" maskUnits="userSpaceOnUse" x="0" y="0" width="98" height="64">
<path d="M13.1238 18.4407V15.0728C13.1238 9.52087 12.6404 8.07958 10.8876 8.07958C10.0979 8.07958 8.82484 8.42887 8.82484 9.82971C8.82484 10.179 8.91341 10.6165 9.08684 11.0982H10.1828C10.4005 11.6644 10.5334 12.2343 10.5334 13.0653C10.5334 15.1206 8.86543 16.4736 6.67351 16.4736C3.95389 16.4736 2.90221 14.9882 2.90221 12.8447C2.90221 9.17158 6.10523 7.46924 12.0721 7.46924C18.9616 7.46924 21.2864 9.39218 21.2864 15.7309V24.6066C21.2864 26.3972 21.814 26.8788 22.5594 26.8788C23.3491 26.8788 24.0945 26.0479 24.3159 22.3748L24.9728 22.4189C24.7551 27.6656 23.1314 29.151 19.3564 29.151C15.8028 29.151 13.8286 28.059 13.301 25.9155C12.5998 28.0149 11.3267 29.151 8.25657 29.151C5.18639 29.151 1.76196 28.2319 1.76196 23.8602C1.76196 19.4444 5.57754 18.4407 11.8544 18.4407H13.1238ZM13.1238 23.2057V19.1393H12.8175C10.9762 19.1393 10.0979 20.4518 10.0979 23.1175V23.8161C10.0979 26.9634 10.4042 27.4009 11.2382 27.4009C12.0721 27.4046 13.1238 26.0037 13.1238 23.2057Z" fill="black"/>
<path d="M36.0688 7.90677V11.9291C36.8142 9.74515 38.2607 7.46924 42.6077 7.46924C46.6889 7.46924 49.4086 9.48042 49.4086 14.7713V27.9304H51.8662V28.7172H39.4489V27.9304H41.246V13.7234C41.246 10.0062 40.7183 9.56866 39.6224 9.56866C37.781 9.56866 36.0688 12.3225 36.0688 15.8633V27.9304H37.9544V28.7172H25.4929V27.9304H27.9063V8.69727H25.4929V7.91045H36.0688V7.90677Z" fill="black"/>
<path d="M54.4087 8.69351H51.9954V7.90669H54.4087V2.26655L62.5675 0.255371V7.90669H68.2725V8.69351H62.5675V23.4263C62.5675 26.0073 62.9624 27.4045 64.4975 27.4045C66.6045 27.4045 67.9182 25.4816 68.3131 22.5071L69.0585 22.5953C68.6636 26.0073 67.2171 29.151 61.8627 29.151C57.5195 29.151 54.405 27.8825 54.405 22.4629V8.69351H54.4087Z" fill="black"/>
<path d="M10.74 36.1664C11.7031 33.9787 13.371 32.2764 16.7954 32.2764C21.7107 32.2764 24.7366 35.7288 24.7366 43.1596C24.7366 50.6344 21.6664 53.9582 15.6995 53.9582C12.7179 53.9582 11.6182 53.1714 10.8285 51.8146V63.1354H16.4892V63.9222H0.256348V63.1354H2.66968V33.4971H0.344911V32.7102H10.7437V36.1664H10.74ZM10.8285 40.1887V48.1894C10.8285 50.5498 11.7511 52.6934 13.681 52.6934C15.8323 52.6934 16.2678 50.1123 16.2678 44.0383V41.7624C16.2678 35.6002 15.7401 34.1552 14.2493 34.1552C12.4522 34.1552 10.8285 36.387 10.8285 40.1887Z" fill="black"/>
<path d="M37.8548 43.2478V39.8799C37.8548 34.328 37.3714 32.8867 35.6186 32.8867C34.8289 32.8867 33.5558 33.236 33.5558 34.6368C33.5558 34.9861 33.6444 35.4237 33.8178 35.9053H34.9138C35.1315 36.4715 35.2643 37.0414 35.2643 37.8724C35.2643 39.9277 33.5964 41.2807 31.4045 41.2807C28.6848 41.2807 27.6332 39.7953 27.6332 37.6518C27.6332 33.9787 30.8362 32.2764 36.8031 32.2764C43.6925 32.2764 46.0173 34.1993 46.0173 40.538V49.4137C46.0173 51.2043 46.545 51.6859 47.2904 51.6859C48.0801 51.6859 48.8255 50.855 49.0469 47.1819L49.7037 47.226C49.486 52.4727 47.8624 53.9582 44.0874 53.9582C40.5338 53.9582 38.5596 52.8662 38.0319 50.7226C37.3308 52.822 36.0577 53.9582 32.9875 53.9582C29.9173 53.9582 26.4929 53.039 26.4929 48.6673C26.4929 44.2515 30.3085 43.2478 36.5854 43.2478H37.8548ZM37.8548 48.0129V43.9464H37.5485C35.7071 43.9464 34.8289 45.259 34.8289 47.9246V48.6232C34.8289 51.7705 35.1352 52.208 35.9691 52.208C36.8031 52.2117 37.8548 50.8109 37.8548 48.0129Z" fill="black"/>
<path d="M58.8258 42.1117V44.3839C58.8258 49.9799 59.8332 52.4727 63.2576 52.4727C67.2503 52.4727 68.9625 49.1048 69.4422 46.7444L70.2319 46.8326C69.6599 49.5424 68.2134 53.9582 60.8849 53.9582C54.1283 53.9582 50.3533 50.2005 50.3533 43.3801C50.3533 36.0377 54.8294 32.2764 62.0694 32.2764C67.4237 32.2764 70.0991 34.5486 70.0991 37.8283C70.0991 40.538 68.6525 41.9389 66.4569 41.9389C64.1764 41.9389 62.5528 40.7586 62.5528 38.3099C62.5528 37.9165 62.5971 37.3503 62.7705 36.7363H64.217C64.4347 36.1259 64.5233 35.6002 64.5233 35.1626C64.5233 33.6772 63.6451 33.0632 62.4163 33.0632C59.8775 33.0632 58.8258 35.6001 58.8258 42.1117Z" fill="black"/>
<path d="M85.236 52.7336H87.2545L82.2987 42.5931L81.4648 42.8101V52.7336H83.4832V53.5204H70.8889V52.7336H73.3022V21.5217H70.7155V20.7349H81.4648V41.9387L82.1659 41.674L92.0369 33.5005H87.9151V32.7137H96.5573V33.5005H93.4871L88.2656 37.9163L95.8562 52.7336H97.4356V53.5204H85.236V52.7336Z" fill="black"/>
</mask>
<g mask="url(#mask0_228_2960)">
<path d="M49.1503 101.366C87.3627 101.366 118.34 70.5009 118.34 32.4269C118.34 -5.64712 87.3627 -36.5122 49.1503 -36.5122C10.938 -36.5122 -20.0393 -5.64712 -20.0393 32.4269C-20.0393 70.5009 10.938 101.366 49.1503 101.366Z" fill="white"/>
</g>
<path d="M44.0506 59.6458L42.7996 60.3297C42.5635 60.0833 42.331 59.9142 42.1022 59.8186C41.8734 59.723 41.604 59.6752 41.2941 59.6752C40.7332 59.6752 40.2793 59.8407 39.9324 60.1752C39.5855 60.5098 39.4121 60.9363 39.4121 61.4584C39.4121 61.9658 39.5781 62.3813 39.9139 62.7012C40.2497 63.0211 40.6889 63.1828 41.2313 63.1828C41.9029 63.1828 42.4269 62.9549 42.7996 62.499L43.9842 63.3078C43.3421 64.1388 42.438 64.5543 41.2682 64.5543C40.2165 64.5543 39.39 64.2454 38.7958 63.624C38.2017 63.0027 37.9028 62.2747 37.9028 61.4437C37.9028 60.8665 38.0467 60.3333 38.3383 59.848C38.6261 59.3627 39.032 58.9803 39.5523 58.7045C40.0726 58.4251 40.652 58.2891 41.2941 58.2891C41.8882 58.2891 42.4195 58.4067 42.8956 58.642C43.3605 58.8773 43.748 59.2119 44.0506 59.6458Z" fill="#FFF100"/>
<path d="M48.213 58.2852C48.7776 58.2852 49.309 58.4249 49.8072 58.708C50.3053 58.9911 50.6928 59.3698 50.9695 59.8551C51.2463 60.3368 51.3865 60.8589 51.3865 61.4178C51.3865 61.9803 51.2463 62.5061 50.9659 62.9951C50.6854 63.4841 50.3016 63.8665 49.8182 64.1422C49.3348 64.418 48.7998 64.554 48.2167 64.554C47.3569 64.554 46.6263 64.2489 46.0174 63.6422C45.4122 63.0355 45.106 62.2965 45.106 61.4251C45.106 60.4949 45.4491 59.7154 46.1355 59.094C46.7407 58.5572 47.4307 58.2852 48.213 58.2852ZM48.2389 59.6934C47.7739 59.6934 47.3828 59.8551 47.0728 60.1787C46.7628 60.5023 46.6078 60.9177 46.6078 61.4214C46.6078 61.9399 46.7591 62.359 47.0691 62.6826C47.3754 63.0061 47.7628 63.1642 48.2352 63.1642C48.7075 63.1642 49.095 63.0024 49.4086 62.6752C49.7223 62.348 49.8773 61.9325 49.8773 61.4214C49.8773 60.9104 49.7223 60.4949 49.416 60.175C49.106 59.8551 48.7149 59.6934 48.2389 59.6934Z" fill="#FFF100"/>
<path d="M57.0324 56.1382H58.5343V64.4035H57.0324V63.7748C56.7409 64.0542 56.4457 64.2528 56.1505 64.3741C55.8553 64.4954 55.5379 64.5579 55.1911 64.5579C54.4198 64.5579 53.7482 64.2601 53.1873 63.6608C52.6227 63.0652 52.3423 62.3188 52.3423 61.4327C52.3423 60.5098 52.6154 59.7561 53.1615 59.1678C53.7076 58.5795 54.3718 58.2854 55.1505 58.2854C55.5084 58.2854 55.8479 58.3516 56.1616 58.4876C56.4752 58.6237 56.7667 58.8259 57.0361 59.098V56.1382H57.0324ZM55.4531 59.6678C54.9881 59.6678 54.6043 59.8296 54.2944 60.1569C53.9881 60.4841 53.8331 60.9032 53.8331 61.4143C53.8331 61.929 53.9881 62.3519 54.3017 62.6864C54.6154 63.021 54.9992 63.1865 55.4567 63.1865C55.9291 63.1865 56.3202 63.0247 56.6302 62.6975C56.9402 62.3702 57.0952 61.9437 57.0952 61.4106C57.0952 60.8922 56.9402 60.4731 56.6302 60.1495C56.3202 59.8296 55.9291 59.6678 55.4531 59.6678Z" fill="#FFF100"/>
<path d="M66.0474 61.8555H61.2244C61.2945 62.2783 61.479 62.6166 61.7816 62.8666C62.0842 63.1166 62.4717 63.2416 62.9403 63.2416C63.5012 63.2416 63.9846 63.0468 64.3868 62.657L65.6525 63.249C65.3389 63.6939 64.9588 64.0248 64.5197 64.238C64.0806 64.4513 63.5566 64.5579 62.9514 64.5579C62.0141 64.5579 61.2465 64.2638 60.6561 63.6718C60.0657 63.0835 59.7705 62.3445 59.7705 61.4547C59.7705 60.5466 60.0657 59.7892 60.6524 59.1899C61.2429 58.5869 61.9772 58.2891 62.8665 58.2891C63.8075 58.2891 64.575 58.5906 65.1654 59.1899C65.7559 59.7929 66.0511 60.5833 66.0511 61.5724L66.0474 61.8555ZM64.5455 60.6753C64.4459 60.3444 64.2503 60.0723 63.9588 59.8627C63.6673 59.6531 63.3278 59.5502 62.9403 59.5502C62.5233 59.5502 62.1543 59.6678 61.837 59.8995C61.6377 60.0465 61.4569 60.3039 61.2871 60.6716H64.5455V60.6753Z" fill="#FFF100"/>
<path d="M69.1951 60.6385V58.5869H70.5678V60.6385H72.6269V62.01H70.5678V64.0616H69.1951V62.01H67.136V60.6385H69.1951Z" fill="#FFF100"/>
<path d="M79.8816 59.6458L78.6307 60.3297C78.3945 60.0833 78.162 59.9142 77.9332 59.8186C77.7044 59.723 77.4351 59.6752 77.1251 59.6752C76.5642 59.6752 76.1103 59.8407 75.7634 60.1752C75.4166 60.5098 75.2431 60.9363 75.2431 61.4584C75.2431 61.9658 75.4092 62.3813 75.745 62.7012C76.0808 63.0211 76.5199 63.1828 77.0624 63.1828C77.734 63.1828 78.258 62.9549 78.6307 62.499L79.8152 63.3078C79.1731 64.1388 78.269 64.5543 77.0993 64.5543C76.0476 64.5543 75.221 64.2454 74.6269 63.624C74.0328 63.0027 73.7339 62.2747 73.7339 61.4437C73.7339 60.8665 73.8778 60.3333 74.1693 59.848C74.4608 59.3627 74.8631 58.9803 75.3834 58.7045C75.9037 58.4251 76.483 58.2891 77.1251 58.2891C77.7192 58.2891 78.2506 58.4067 78.7266 58.642C79.1953 58.8773 79.5827 59.2119 79.8816 59.6458Z" fill="#FFF100"/>
<path d="M80.8816 58.4396H82.1695V59.1896C82.3097 58.8918 82.4942 58.6675 82.7267 58.5168C82.9591 58.3624 83.2101 58.2852 83.4868 58.2852C83.6824 58.2852 83.8854 58.3366 84.0957 58.4396L83.6271 59.7264C83.4499 59.6382 83.306 59.5941 83.1916 59.5941C82.9591 59.5941 82.7636 59.7375 82.6049 60.0206C82.4462 60.3074 82.365 60.8662 82.365 61.6972L82.3724 61.9876V64.3996H80.8816V58.4396Z" fill="#FFF100"/>
<path d="M89.2546 58.4396H90.7565V64.4033H89.2546V63.7745C88.9631 64.054 88.6679 64.2525 88.3727 64.3739C88.0774 64.4952 87.7601 64.5577 87.4132 64.5577C86.642 64.5577 85.9741 64.2599 85.4095 63.6606C84.8449 63.0649 84.5645 62.3186 84.5645 61.4325C84.5645 60.5096 84.8375 59.7559 85.3837 59.1676C85.9298 58.5793 86.594 58.2852 87.3726 58.2852C87.7306 58.2852 88.0701 58.3513 88.3837 58.4874C88.6974 58.6234 88.9889 58.8256 89.2583 59.0977V58.4396H89.2546ZM87.6752 59.6676C87.2103 59.6676 86.8265 59.8294 86.5165 60.1566C86.2102 60.4839 86.0553 60.903 86.0553 61.4141C86.0553 61.9288 86.2102 62.3516 86.5239 62.6862C86.8376 63.0208 87.2213 63.1863 87.6789 63.1863C88.1512 63.1863 88.5424 63.0245 88.8524 62.6972C89.1623 62.37 89.3173 61.9435 89.3173 61.4104C89.3173 60.892 89.1623 60.4728 88.8524 60.1493C88.5461 59.8294 88.1512 59.6676 87.6752 59.6676Z" fill="#FFF100"/>
<path d="M91.5608 58.4397H92.0959C92.0996 57.6566 92.1106 57.197 92.1328 57.0536C92.1734 56.7227 92.3099 56.4653 92.5461 56.2741C92.7822 56.0829 93.118 55.9873 93.5498 55.9873C93.8598 55.9873 94.214 56.0572 94.6052 56.2006V57.3403C94.3874 57.2778 94.2103 57.2484 94.0701 57.2484C93.893 57.2484 93.7638 57.2852 93.6863 57.3587C93.6273 57.4139 93.5978 57.5279 93.5978 57.697L93.5941 58.4434H94.5461V59.7082H93.5941V64.4071H92.0922V59.7082H91.5571V58.4397H91.5608Z" fill="#FFF100"/>
<path d="M95.6089 56.2412H97.1107V58.4399H98.0001V59.7268H97.1107V64.4036H95.6089V59.7268H94.8376V58.4399H95.6089V56.2412Z" fill="#FFF100"/>
</svg>
