<svg width="31" height="48" viewBox="0 0 31 48" fill="none" xmlns="http://www.w3.org/2000/svg">
<path d="M4.6803 20V17.102C4.6803 15.968 4.6663 15.1 4.5403 14.33L6.7243 20H8.7963L10.9943 14.33C10.8823 15.1 10.8823 15.59 10.8823 17.83V20H13.0803V9.64H10.8543L7.7603 17.368L4.6803 9.64H2.4823V20H4.6803ZM28.8182 20V17.9H24.5062V15.758H28.3282V13.77H24.5062V11.74H28.8182V9.64H22.2382V20H28.8182ZM4.53773 39V32.42L8.90573 39H11.1457V28.64H8.90573V35.234L4.53773 28.64H2.29773V39H4.53773ZM20.2336 35.108C20.2336 37.586 21.8996 39.168 24.4896 39.168C27.0936 39.168 28.7736 37.572 28.7736 35.108V28.64H26.5056V34.954C26.5056 36.228 25.7776 36.97 24.4896 36.97C23.2156 36.97 22.5016 36.256 22.5016 34.954V28.64H20.2336V35.108Z" fill="white"/>
</svg>
