<svg width="27" height="31" viewBox="0 0 27 31" fill="none" xmlns="http://www.w3.org/2000/svg">
<path d="M2.6803 11V8.102C2.6803 6.968 2.6663 6.1 2.5403 5.33L4.7243 11H6.7963L8.9943 5.33C8.8823 6.1 8.8823 6.59 8.8823 8.83V11H11.0803V0.64H8.8543L5.7603 8.368L2.6803 0.64H0.482297V11H2.6803ZM26.8182 11V8.9H22.5062V6.758H26.3282V4.77H22.5062V2.74H26.8182V0.64H20.2382V11H26.8182ZM2.53773 30V23.42L6.90573 30H9.14573V19.64H6.90573V26.234L2.53773 19.64H0.297727V30H2.53773ZM18.2336 26.108C18.2336 28.586 19.8996 30.168 22.4896 30.168C25.0936 30.168 26.7736 28.572 26.7736 26.108V19.64H24.5056V25.954C24.5056 27.228 23.7776 27.97 22.4896 27.97C21.2156 27.97 20.5016 27.256 20.5016 25.954V19.64H18.2336V26.108Z" fill="black"/>
</svg>
