<svg width="132" height="16" viewBox="0 0 132 16" fill="none" xmlns="http://www.w3.org/2000/svg">
<g clip-path="url(#clip0_325_1487)">
<path d="M87.9619 0.377563H88.4967L89.7192 2.72584L90.911 0.377563H91.4535V4.21334H91.0333V1.13264L89.8949 3.3299H89.5511L88.405 1.14018V4.21334H87.9848L87.9619 0.377563Z" fill="white"/>
<path d="M92.8363 2.95991V0.377563H93.2794V2.8995C93.2652 3.03419 93.2814 3.17031 93.327 3.29802C93.3725 3.42574 93.4462 3.54185 93.5427 3.63796C93.6392 3.73408 93.7562 3.80778 93.8851 3.85375C94.0139 3.89972 94.1515 3.9168 94.2879 3.90375C94.4226 3.91828 94.5589 3.90261 94.6866 3.85792C94.8143 3.81323 94.9302 3.74067 95.0256 3.64563C95.1211 3.55058 95.1936 3.4355 95.2378 3.30894C95.2821 3.18238 95.2969 3.0476 95.2811 2.91461V0.392662H95.7166V2.8995C95.7266 3.08614 95.6954 3.27268 95.6252 3.44623C95.5551 3.61979 95.4476 3.77622 95.3103 3.90473C95.173 4.03325 95.0092 4.13077 94.83 4.19057C94.6508 4.25037 94.4607 4.27101 94.2726 4.25108C94.0902 4.27029 93.9058 4.2511 93.7314 4.19476C93.5571 4.13843 93.3968 4.04624 93.2611 3.92426C93.1254 3.80228 93.0174 3.65327 92.9442 3.48706C92.8709 3.32084 92.8342 3.14119 92.8363 2.95991Z" fill="white"/>
<path d="M96.8474 3.36005L97.2524 3.21659C97.3319 3.4308 97.4803 3.61331 97.6749 3.73607C97.8695 3.85883 98.0995 3.91508 98.3296 3.89616C98.8415 3.89616 99.2541 3.64698 99.2541 3.20904C99.2541 2.7711 99.0019 2.62008 98.6505 2.52192L97.8865 2.31805C97.344 2.16704 97.0231 1.88766 97.0231 1.33646C97.0314 1.1853 97.071 1.03744 97.1396 0.902091C97.2082 0.766743 97.3043 0.646807 97.4219 0.549758C97.5394 0.452709 97.6759 0.380629 97.8229 0.338004C97.9699 0.29538 98.1242 0.283123 98.2761 0.302005C98.5455 0.276469 98.8162 0.335745 99.0495 0.471354C99.2827 0.606963 99.4667 0.811967 99.575 1.05708L99.193 1.2081C99.1074 1.04181 98.974 0.904293 98.8095 0.812909C98.6449 0.721525 98.4567 0.680373 98.2685 0.694646C97.8712 0.694646 97.4586 0.890967 97.4586 1.32136C97.4586 1.62339 97.642 1.81215 98.1004 1.94806L98.8644 2.16704C99.1002 2.21363 99.3114 2.34196 99.4599 2.52886C99.6084 2.71577 99.6844 2.94896 99.6743 3.18639C99.6743 3.8433 99.1242 4.30389 98.2991 4.30389C97.9848 4.33149 97.6704 4.25325 97.4069 4.0819C97.1433 3.91055 96.9462 3.65615 96.8474 3.36005Z" fill="white"/>
<path d="M100.889 0.377563H103.388V0.762647H101.332V2.03117H103.059V2.42381H101.332V3.82824H103.395V4.21334H100.889V0.377563Z" fill="white"/>
<path d="M104.465 2.99763V1.69135C104.462 1.50173 104.499 1.31365 104.574 1.13894C104.649 0.964223 104.759 0.806662 104.898 0.676163C105.037 0.545665 105.202 0.445056 105.383 0.380666C105.563 0.316275 105.755 0.289494 105.947 0.302014C106.135 0.28293 106.324 0.303141 106.504 0.361327C106.683 0.419512 106.848 0.514368 106.988 0.639726C107.128 0.765085 107.239 0.918136 107.315 1.08892C107.391 1.25969 107.43 1.44438 107.429 1.63094V2.89947C107.433 3.08904 107.396 3.27727 107.323 3.45234C107.249 3.6274 107.14 3.78552 107.001 3.91672C106.863 4.04793 106.698 4.14938 106.518 4.21472C106.338 4.28005 106.146 4.30785 105.955 4.29636C105.769 4.31752 105.58 4.29981 105.401 4.24438C105.223 4.18896 105.058 4.09705 104.917 3.97461C104.777 3.85217 104.664 3.70192 104.586 3.53362C104.508 3.36532 104.467 3.18272 104.465 2.99763ZM106.986 2.92967V1.61585C106.987 1.48374 106.959 1.35293 106.905 1.23218C106.851 1.11142 106.771 1.00349 106.672 0.915592C106.572 0.827688 106.454 0.761835 106.327 0.722434C106.199 0.683032 106.064 0.670988 105.932 0.687103C105.796 0.678422 105.66 0.698135 105.533 0.744947C105.406 0.791758 105.29 0.864612 105.194 0.958728C105.097 1.05284 105.022 1.1661 104.972 1.29105C104.923 1.41601 104.901 1.54985 104.908 1.6838V2.95233C104.908 3.22468 105.017 3.48587 105.212 3.67845C105.407 3.87103 105.671 3.97922 105.947 3.97922C106.222 3.97922 106.487 3.87103 106.682 3.67845C106.877 3.48587 106.986 3.22468 106.986 2.95233V2.92967Z" fill="white"/>
<path d="M110.539 0.377557H111.99C112.17 0.359192 112.352 0.378991 112.523 0.435637C112.694 0.492284 112.851 0.58447 112.984 0.706012C113.116 0.827555 113.221 0.975647 113.291 1.14038C113.36 1.30511 113.394 1.48268 113.388 1.66118V2.8995C113.392 3.07917 113.358 3.25761 113.288 3.42353C113.218 3.58946 113.114 3.73925 112.983 3.86345C112.851 3.98764 112.695 4.08354 112.524 4.14507C112.354 4.20659 112.172 4.2324 111.99 4.22088H110.539V0.377557ZM111.967 3.82824C112.095 3.83913 112.224 3.82288 112.345 3.78058C112.466 3.73829 112.577 3.67092 112.669 3.58299C112.762 3.49506 112.834 3.38858 112.882 3.27071C112.93 3.15284 112.951 3.02627 112.945 2.8995V1.63853C112.949 1.51188 112.926 1.38585 112.876 1.26898C112.827 1.15211 112.752 1.04715 112.658 0.961202C112.564 0.875258 112.452 0.81035 112.33 0.770879C112.208 0.731407 112.079 0.718294 111.952 0.732437H110.982V3.80558L111.967 3.82824Z" fill="white"/>
<path d="M114.695 0.377563H117.193V0.762647H115.138V2.03117H116.865V2.42381H115.138V3.82824H117.208V4.21334H114.695V0.377563Z" fill="white"/>
<path d="M120.288 0.377563H120.731V3.82824H122.732V4.21334H120.288V0.377563Z" fill="white"/>
<path d="M125.17 0.369995H125.582L127.011 4.21332H126.553L126.148 3.10336H124.566L124.154 4.21332H123.718L125.17 0.369995ZM126.025 2.73337L125.368 0.890992L124.696 2.73337H126.025Z" fill="white"/>
<path d="M87.9619 6.07837H89.4517C90.1317 6.07837 90.5672 6.40305 90.5672 7.02976C90.5714 7.23037 90.5063 7.42641 90.3827 7.5856C90.2591 7.7448 90.0844 7.85767 89.8872 7.90564C90.1077 7.94386 90.3066 8.05982 90.4471 8.232C90.5876 8.40419 90.6602 8.6209 90.6513 8.84193C90.6519 8.99139 90.6209 9.13933 90.5603 9.27625C90.4996 9.41318 90.4107 9.53607 90.2992 9.63703C90.1877 9.73799 90.0561 9.81479 89.9127 9.86251C89.7694 9.91024 89.6176 9.92781 89.467 9.91413H87.939L87.9619 6.07837ZM89.3295 7.76973C89.7726 7.76973 90.0935 7.55076 90.0935 7.09771C90.0935 6.64467 89.765 6.44835 89.3295 6.44835H88.3668V7.76973H89.3295ZM89.4059 9.5517C89.8796 9.5517 90.2387 9.31763 90.2387 8.79663C90.2387 8.27563 89.8796 8.10196 89.3982 8.10196H88.3974V9.5215L89.4059 9.5517Z" fill="white"/>
<path d="M91.9194 6.07837H92.3626V9.92169H91.9194V6.07837Z" fill="white"/>
<path d="M93.6767 8.706V7.42992C93.6732 7.24035 93.7094 7.05212 93.7831 6.87705C93.8568 6.70199 93.9663 6.54387 94.1048 6.41267C94.2433 6.28147 94.4078 6.18001 94.5879 6.11468C94.768 6.04934 94.9598 6.02154 95.1513 6.03303C95.3395 6.01509 95.5294 6.03634 95.7088 6.09542C95.8882 6.1545 96.053 6.2501 96.1927 6.37604C96.3323 6.50198 96.4437 6.65547 96.5197 6.82659C96.5956 6.99771 96.6344 7.18266 96.6335 7.36952V8.63049C96.637 8.82006 96.6008 9.0083 96.5271 9.18337C96.4535 9.35844 96.3439 9.51654 96.2054 9.64774C96.0669 9.77895 95.9025 9.8804 95.7224 9.94574C95.5423 10.0111 95.3504 10.0389 95.1589 10.0274C94.9713 10.0488 94.7812 10.0306 94.6013 9.97373C94.4214 9.91691 94.2558 9.82285 94.1156 9.69783C93.9754 9.5728 93.8637 9.41968 93.788 9.24866C93.7123 9.07764 93.6744 8.89264 93.6767 8.706ZM96.1904 8.63805V7.32421C96.1914 7.19211 96.1638 7.0613 96.1096 6.94055C96.0554 6.81979 95.9757 6.71186 95.8759 6.62396C95.7761 6.53606 95.6585 6.4702 95.5309 6.4308C95.4033 6.3914 95.2687 6.37936 95.136 6.39548C95.0006 6.3868 94.8649 6.4065 94.7377 6.45332C94.6105 6.50013 94.4948 6.57298 94.3981 6.6671C94.3015 6.76121 94.226 6.87446 94.1767 6.99942C94.1275 7.12438 94.1055 7.25822 94.1122 7.39217V8.6607C94.1122 8.93305 94.2217 9.19424 94.4166 9.38682C94.6114 9.5794 94.8757 9.6876 95.1513 9.6876C95.4269 9.6876 95.6912 9.5794 95.886 9.38682C96.0809 9.19424 96.1904 8.93305 96.1904 8.6607V8.63805Z" fill="white"/>
<path d="M97.9475 6.07837H99.3915C99.572 6.06126 99.7541 6.08213 99.9259 6.13962C100.098 6.1971 100.255 6.28989 100.388 6.41188C100.521 6.53387 100.626 6.68228 100.696 6.84735C100.767 7.01241 100.801 7.19039 100.797 7.36954V8.60031C100.801 8.77998 100.767 8.95842 100.697 9.12434C100.627 9.29027 100.523 9.44006 100.392 9.56426C100.26 9.68845 100.104 9.78435 99.9333 9.84588C99.7625 9.9074 99.5806 9.93321 99.3992 9.92169H97.9475V6.07837ZM99.3762 9.53659C99.5022 9.54721 99.629 9.53152 99.7484 9.49056C99.8678 9.4496 99.9772 9.38428 100.069 9.29884C100.162 9.21339 100.235 9.10974 100.284 8.9946C100.333 8.87946 100.357 8.75541 100.354 8.63051V7.36954C100.358 7.24289 100.335 7.11686 100.285 7C100.236 6.88313 100.161 6.77815 100.067 6.69221C99.9728 6.60627 99.861 6.54136 99.7392 6.50189C99.6174 6.46242 99.4884 6.44931 99.361 6.46345H98.4288V9.53659H99.3762Z" fill="white"/>
<path d="M102.104 6.07837H102.547V9.92169H102.104V6.07837Z" fill="white"/>
<path d="M103.586 6.07837H104.044L105.114 9.34028L106.199 6.07837H106.65L105.305 9.94434H104.869L103.586 6.07837Z" fill="white"/>
<path d="M107.689 6.07837H110.187V6.471H108.132V7.73953H109.889V8.13216H108.132V9.53659H110.195V9.92169H107.689V6.07837Z" fill="white"/>
<path d="M111.478 6.07832H112.861C113.023 6.05987 113.187 6.07603 113.342 6.1257C113.497 6.17538 113.64 6.25739 113.76 6.36622C113.88 6.47504 113.976 6.60813 114.039 6.75647C114.103 6.90481 114.134 7.06493 114.129 7.22602C114.139 7.49432 114.048 7.75668 113.873 7.9619C113.698 8.16712 113.451 8.30049 113.182 8.33598L114.313 9.92164H113.816L112.724 8.37373H111.96V9.92164H111.516L111.478 6.07832ZM112.762 8.0113C113.35 8.0113 113.686 7.75457 113.686 7.21847C113.686 6.68237 113.32 6.4634 112.754 6.4634H111.921V8.02639L112.762 8.0113Z" fill="white"/>
<path d="M115.092 9.06844L115.497 8.92497C115.576 9.13786 115.724 9.31941 115.917 9.44206C116.11 9.56471 116.338 9.62176 116.567 9.60455C117.079 9.60455 117.499 9.35537 117.499 8.91743C117.499 8.47949 117.247 8.32847 116.895 8.23031L116.131 8.02644C115.581 7.87542 115.268 7.59605 115.268 7.04485C115.275 6.89403 115.314 6.74631 115.382 6.61099C115.449 6.47566 115.545 6.35565 115.662 6.2585C115.779 6.16135 115.915 6.08915 116.061 6.04645C116.208 6.00376 116.362 5.99148 116.513 6.01039C116.784 5.98437 117.056 6.04335 117.29 6.17892C117.525 6.31449 117.71 6.51975 117.82 6.76547L117.438 6.91649C117.352 6.75085 117.218 6.61389 117.054 6.52262C116.889 6.43134 116.701 6.38976 116.513 6.40303C116.116 6.40303 115.703 6.59935 115.703 7.02975C115.703 7.33177 115.887 7.52054 116.345 7.65646L117.109 7.87542C117.346 7.92057 117.558 8.04851 117.707 8.23576C117.855 8.423 117.931 8.65699 117.919 8.89478C117.919 9.55169 117.369 10.0123 116.536 10.0123C116.223 10.0395 115.91 9.96096 115.648 9.78955C115.385 9.61813 115.19 9.36393 115.092 9.06844Z" fill="white"/>
<path d="M119.134 6.07837H119.577V9.92169H119.134V6.07837Z" fill="white"/>
<path d="M120.983 6.07836H122.427C122.607 6.06115 122.789 6.082 122.96 6.13955C123.132 6.1971 123.289 6.29002 123.421 6.41214C123.553 6.53426 123.658 6.68278 123.727 6.84785C123.797 7.01291 123.83 7.19074 123.825 7.36953V8.6003C123.83 8.77961 123.796 8.9579 123.728 9.12381C123.659 9.28972 123.555 9.43961 123.425 9.56393C123.294 9.68825 123.138 9.78426 122.968 9.84586C122.797 9.90745 122.616 9.93328 122.435 9.92168H120.983V6.07836ZM122.404 9.53659C122.53 9.5472 122.657 9.53152 122.776 9.49056C122.896 9.4496 123.005 9.38427 123.097 9.29883C123.189 9.21338 123.262 9.10973 123.312 8.99459C123.361 8.87945 123.385 8.7554 123.382 8.6305V7.36953C123.386 7.24359 123.363 7.11828 123.313 7.00199C123.264 6.88571 123.191 6.78116 123.097 6.69534C123.004 6.60952 122.893 6.54442 122.772 6.50443C122.651 6.46443 122.523 6.45046 122.396 6.46344H121.426V9.53659H122.404Z" fill="white"/>
<path d="M126.193 6.07837H126.606L128.035 9.92169H127.576L127.179 8.81173H125.59L125.17 9.92169H124.734L126.193 6.07837ZM127.049 8.44174L126.392 6.59936L125.72 8.44174H127.049Z" fill="white"/>
<path d="M129.158 6.07836H130.602C130.782 6.06115 130.964 6.082 131.135 6.13955C131.306 6.1971 131.463 6.29002 131.596 6.41214C131.728 6.53426 131.832 6.68278 131.902 6.84785C131.972 7.01291 132.005 7.19074 132 7.36953V8.6003C132.004 8.77961 131.971 8.9579 131.902 9.12381C131.833 9.28972 131.73 9.43961 131.599 9.56393C131.469 9.68825 131.313 9.78426 131.142 9.84586C130.972 9.90745 130.79 9.93328 130.609 9.92168H129.158V6.07836ZM130.579 9.53659C130.705 9.5472 130.832 9.53152 130.951 9.49056C131.07 9.4496 131.18 9.38427 131.272 9.29883C131.364 9.21338 131.437 9.10973 131.486 8.99459C131.535 8.87945 131.559 8.7554 131.557 8.6305V7.36953C131.561 7.24359 131.537 7.11828 131.488 7.00199C131.439 6.88571 131.365 6.78116 131.272 6.69534C131.179 6.60952 131.068 6.54442 130.947 6.50443C130.826 6.46443 130.698 6.45046 130.571 6.46344H129.601V9.53659H130.579Z" fill="white"/>
<path d="M87.9619 11.7867H89.4059C89.5861 11.7695 89.7678 11.7903 89.9392 11.8479C90.1106 11.9054 90.2676 11.9983 90.3998 12.1205C90.532 12.2426 90.6365 12.3911 90.7062 12.5562C90.7759 12.7212 90.8093 12.8991 90.8041 13.0778V14.3086C90.8076 14.4883 90.7734 14.6667 90.7036 14.8326C90.6338 14.9986 90.5299 15.1484 90.3984 15.2726C90.267 15.3968 90.111 15.4927 89.9401 15.5542C89.7693 15.6157 89.5874 15.6415 89.4059 15.63H87.9619V11.7867ZM89.383 15.2449C89.509 15.2555 89.6358 15.2398 89.7552 15.1989C89.8746 15.1579 89.984 15.0926 90.0762 15.0072C90.1684 14.9217 90.2414 14.818 90.2905 14.7029C90.3395 14.5878 90.3635 14.4637 90.3609 14.3388V13.0778C90.365 12.9512 90.3415 12.8252 90.292 12.7083C90.2424 12.5914 90.168 12.4865 90.0738 12.4005C89.9796 12.3146 89.8678 12.2497 89.746 12.2102C89.6241 12.1707 89.4951 12.1576 89.3677 12.1718H88.3974V15.2449H89.383Z" fill="white"/>
<path d="M92.1105 11.7867H94.6088V12.1793H92.5536V13.4705H94.2803V13.8631H92.5536V15.2676H94.6088V15.6527H92.0952L92.1105 11.7867Z" fill="white"/>
<path d="M97.6115 14.4143V13.0854C97.6087 12.8977 97.6457 12.7115 97.7201 12.5388C97.7946 12.366 97.9048 12.2106 98.0437 12.0826C98.1827 11.9546 98.3472 11.8567 98.5267 11.7953C98.7062 11.734 98.8968 11.7104 99.086 11.7263C99.2553 11.7053 99.4271 11.7191 99.5907 11.7668C99.7543 11.8145 99.9062 11.8952 100.037 12.0036C100.167 12.1121 100.274 12.2461 100.349 12.3972C100.425 12.5482 100.468 12.7131 100.477 12.8815V13.0703H100.056V12.9344C100.056 12.4134 99.6438 12.1114 99.0708 12.1114C98.9381 12.1017 98.8048 12.1198 98.6797 12.1645C98.5546 12.2091 98.4403 12.2793 98.3445 12.3705C98.2486 12.4617 98.1733 12.5718 98.1233 12.6937C98.0734 12.8155 98.05 12.9464 98.0546 13.0778V14.369C98.0528 14.5013 98.0794 14.6325 98.1326 14.7539C98.1858 14.8753 98.2645 14.9842 98.3634 15.0734C98.4623 15.1626 98.5792 15.23 98.7064 15.2713C98.8336 15.3126 98.9682 15.3268 99.1013 15.3129C99.2203 15.329 99.3413 15.3199 99.4564 15.2859C99.5714 15.252 99.6778 15.194 99.7683 15.116C99.8588 15.0381 99.9313 14.9418 99.981 14.8338C100.031 14.7258 100.056 14.6085 100.056 14.4898V14.4068H100.477V14.5502C100.471 14.7177 100.429 14.8821 100.355 15.0328C100.281 15.1835 100.176 15.3172 100.046 15.4253C99.9168 15.5334 99.7658 15.6135 99.603 15.6604C99.4403 15.7074 99.2694 15.7202 99.1013 15.6979C98.9161 15.7214 98.7279 15.7059 98.5492 15.6522C98.3705 15.5986 98.2054 15.5082 98.0646 15.3869C97.9239 15.2656 97.8107 15.1163 97.7326 14.9486C97.6545 14.781 97.6132 14.5989 97.6115 14.4143Z" fill="white"/>
<path d="M101.645 14.4144V13.1081C101.642 12.9185 101.678 12.7303 101.752 12.5552C101.826 12.3801 101.935 12.222 102.074 12.0908C102.212 11.9596 102.377 11.8582 102.557 11.7928C102.737 11.7275 102.929 11.6997 103.12 11.7112C103.308 11.6932 103.498 11.7145 103.678 11.7736C103.857 11.8327 104.022 11.9283 104.161 12.0542C104.301 12.1801 104.412 12.3336 104.488 12.5047C104.564 12.6759 104.603 12.8608 104.602 13.0477V14.3086C104.606 14.4979 104.57 14.6858 104.496 14.8605C104.422 15.0352 104.312 15.1929 104.174 15.3235C104.035 15.4541 103.871 15.5548 103.691 15.6193C103.51 15.6838 103.319 15.7106 103.128 15.698C102.943 15.7203 102.756 15.7039 102.578 15.6497C102.4 15.5956 102.236 15.505 102.096 15.3838C101.956 15.2627 101.844 15.1137 101.766 14.9466C101.688 14.7796 101.647 14.5982 101.645 14.4144ZM104.159 14.3464V13.0326C104.16 12.9005 104.133 12.7697 104.078 12.6489C104.024 12.5282 103.944 12.4202 103.845 12.3323C103.745 12.2444 103.627 12.1786 103.5 12.1392C103.372 12.0998 103.237 12.0877 103.105 12.1038C102.969 12.0952 102.834 12.1149 102.706 12.1617C102.579 12.2085 102.464 12.2813 102.367 12.3755C102.27 12.4696 102.195 12.5828 102.145 12.7078C102.096 12.8327 102.074 12.9666 102.081 13.1005V14.3691C102.081 14.6414 102.19 14.9026 102.385 15.0952C102.58 15.2878 102.844 15.396 103.12 15.396C103.396 15.396 103.66 15.2878 103.855 15.0952C104.05 14.9026 104.159 14.6414 104.159 14.3691V14.3464Z" fill="white"/>
<path d="M105.916 11.7867H106.359V15.2449H108.361V15.63H105.916V11.7867Z" fill="white"/>
<path d="M109.255 14.4143V13.108C109.252 12.9185 109.288 12.7302 109.361 12.5552C109.435 12.3801 109.545 12.222 109.683 12.0908C109.822 11.9596 109.986 11.8581 110.166 11.7928C110.346 11.7275 110.538 11.6997 110.73 11.7112C110.918 11.6921 111.109 11.7125 111.289 11.7711C111.47 11.8296 111.636 11.925 111.776 12.0511C111.917 12.1772 112.029 12.331 112.105 12.5027C112.182 12.6744 112.22 12.8601 112.22 13.0476V14.3086C112.223 14.4979 112.187 14.6858 112.113 14.8605C112.039 15.0352 111.93 15.1928 111.791 15.3235C111.652 15.4541 111.488 15.5548 111.308 15.6193C111.128 15.6837 110.936 15.7105 110.745 15.6979C110.56 15.7202 110.372 15.7038 110.194 15.6497C110.016 15.5956 109.851 15.5051 109.711 15.3841C109.57 15.263 109.457 15.1141 109.379 14.9471C109.3 14.78 109.258 14.5985 109.255 14.4143ZM111.776 14.3464V13.0325C111.778 12.8997 111.75 12.7682 111.695 12.6468C111.64 12.5255 111.56 12.4171 111.459 12.3291C111.359 12.2411 111.24 12.1754 111.112 12.1366C110.983 12.0977 110.848 12.0865 110.714 12.1038C110.58 12.0962 110.445 12.1167 110.318 12.1641C110.192 12.2114 110.077 12.2844 109.982 12.3784C109.886 12.4724 109.811 12.5852 109.762 12.7097C109.713 12.8341 109.692 12.9672 109.698 13.1005V14.369C109.698 14.6414 109.808 14.9026 110.003 15.0951C110.197 15.2877 110.462 15.3959 110.737 15.3959C111.013 15.3959 111.277 15.2877 111.472 15.0951C111.667 14.9026 111.776 14.6414 111.776 14.369V14.3464Z" fill="white"/>
<path d="M113.534 11.7867H114.069L115.291 14.1425L116.483 11.7867H117.033V15.63H116.605V12.5493L115.467 14.7466H115.123L113.977 12.5568V15.63H113.557L113.534 11.7867Z" fill="white"/>
<path d="M118.446 11.7867H119.936C120.616 11.7867 121.052 12.1114 121.052 12.7381C121.057 12.939 120.993 13.1357 120.869 13.2952C120.745 13.4547 120.569 13.5672 120.372 13.614C120.592 13.6522 120.791 13.7681 120.931 13.9403C121.072 14.1125 121.145 14.3292 121.136 14.5502C121.136 14.6997 121.105 14.8476 121.045 14.9846C120.984 15.1215 120.895 15.2444 120.784 15.3453C120.672 15.4463 120.54 15.5231 120.397 15.5708C120.254 15.6186 120.102 15.6361 119.951 15.6225H118.423L118.446 11.7867ZM119.821 13.4705C120.257 13.4705 120.624 13.2515 120.624 12.7985C120.624 12.3454 120.288 12.1491 119.86 12.1491H118.905V13.4705H119.821ZM119.89 15.2525C120.364 15.2525 120.723 15.0184 120.723 14.4974C120.723 13.9764 120.364 13.8027 119.883 13.8027H118.889V15.2223L119.89 15.2525Z" fill="white"/>
<path d="M122.404 11.7867H122.878V15.63H122.434L122.404 11.7867Z" fill="white"/>
<path d="M125.422 11.7867H125.827L127.263 15.63H126.797L126.4 14.52H124.818L124.406 15.63H123.962L125.422 11.7867ZM126.277 14.1501L125.613 12.3077L124.94 14.1501H126.277Z" fill="white"/>
<path d="M19.5742 5.33079V16H17.5496V5.31568C17.5496 4.43055 17.1938 3.58166 16.5605 2.95577C15.9272 2.32988 15.0682 1.97826 14.1726 1.97826C13.277 1.97826 12.418 2.32988 11.7847 2.95577C11.1514 3.58166 10.7956 4.43055 10.7956 5.31568V16H8.77861V5.31568C8.80037 4.86355 8.72904 4.41176 8.56895 3.98766C8.40887 3.56356 8.16336 3.17599 7.84728 2.84841C7.5312 2.52083 7.15114 2.26005 6.7301 2.08188C6.30907 1.9037 5.85582 1.81184 5.39781 1.81184C4.9398 1.81184 4.48656 1.9037 4.06553 2.08188C3.64449 2.26005 3.26443 2.52083 2.94835 2.84841C2.63227 3.17599 2.38676 3.56356 2.22668 3.98766C2.06659 4.41176 1.99526 4.86355 2.01702 5.31568V16H4.38641e-07V5.33079C-0.000409975 4.32484 0.28719 3.33931 0.829569 2.48807C1.37195 1.63683 2.14698 0.954638 3.06508 0.520309C3.98319 0.0859803 5.0069 -0.0827554 6.01794 0.0336065C7.02897 0.149968 7.98607 0.546677 8.77861 1.17789C9.16031 1.48208 9.49944 1.83502 9.78712 2.22744C10.2839 1.5332 10.9407 0.965711 11.7033 0.571839C12.4658 0.177968 13.3122 -0.0309888 14.1726 -0.0377808C14.8845 -0.037792 15.5894 0.101281 16.2468 0.371446C16.9042 0.64161 17.501 1.03754 18.003 1.53645C18.505 2.03537 18.9022 2.62743 19.1719 3.2786C19.4415 3.92977 19.5783 4.62721 19.5742 5.33079Z" fill="white"/>
<path d="M33.3955 0V10.6692C33.3429 12.0493 32.7512 13.3555 31.7447 14.3136C30.7382 15.2716 29.3951 15.8068 27.9977 15.8068C26.6002 15.8068 25.2572 15.2716 24.2506 14.3136C23.2441 13.3555 22.6524 12.0493 22.5999 10.6692V0H24.6169V10.6843C24.5951 11.1364 24.6664 11.5882 24.8265 12.0123C24.9866 12.4364 25.2321 12.824 25.5482 13.1516C25.8643 13.4791 26.2443 13.7399 26.6654 13.9181C27.0864 14.0963 27.5397 14.1881 27.9977 14.1881C28.4557 14.1881 28.9089 14.0963 29.33 13.9181C29.751 13.7399 30.1311 13.4791 30.4471 13.1516C30.7632 12.824 31.0087 12.4364 31.1688 12.0123C31.3289 11.5882 31.4002 11.1364 31.3785 10.6843V0H33.3955Z" fill="white"/>
<path d="M45.1995 6.50873C44.2413 5.74699 43.0485 5.3317 41.8187 5.3317C40.589 5.3317 39.3961 5.74699 38.4379 6.50873V0H36.4209V10.6692C36.4199 11.5722 36.6506 12.4607 37.0916 13.2516C37.5326 14.0425 38.1693 14.7099 38.9423 15.1914C39.7153 15.6729 40.5993 15.9527 41.5115 16.0047C42.4237 16.0567 43.3343 15.8792 44.1582 15.4887C44.9821 15.0983 45.6923 14.5076 46.2223 13.7721C46.7524 13.0366 47.085 12.1802 47.189 11.283C47.2931 10.3859 47.1651 9.47733 46.8172 8.64235C46.4692 7.80737 45.9127 7.07327 45.1995 6.50873ZM45.1995 10.6843C45.2213 11.1364 45.1499 11.5882 44.9899 12.0123C44.8298 12.4364 44.5843 12.824 44.2682 13.1516C43.9521 13.4791 43.572 13.7399 43.151 13.9181C42.73 14.0963 42.2767 14.1881 41.8187 14.1881C41.3607 14.1881 40.9075 14.0963 40.4864 13.9181C40.0654 13.7399 39.6853 13.4791 39.3693 13.1516C39.0532 12.824 38.8077 12.4364 38.6476 12.0123C38.4875 11.5882 38.4162 11.1364 38.4379 10.6843C38.4792 9.82561 38.8535 9.01563 39.483 8.42239C40.1125 7.82915 40.9489 7.49819 41.8187 7.49819C42.6885 7.49819 43.525 7.82915 44.1545 8.42239C44.784 9.01563 45.1582 9.82561 45.1995 10.6843Z" fill="white"/>
<path d="M55.9111 12.0132H53.5427L47.2166 0H49.585L55.9111 12.0132Z" fill="white"/>
<path d="M68.0821 10.6843H70.0991C70.0465 12.0644 69.4549 13.3707 68.4483 14.3287C67.4418 15.2867 66.0987 15.8219 64.7013 15.8219C63.3038 15.8219 61.9608 15.2867 60.9543 14.3287C59.9477 13.3707 59.356 12.0644 59.3035 10.6843V5.34595C59.356 3.96586 59.9477 2.65959 60.9543 1.70157C61.9608 0.743543 63.3038 0.208313 64.7013 0.208313C66.0987 0.208313 67.4418 0.743543 68.4483 1.70157C69.4549 2.65959 70.0465 3.96586 70.0991 5.34595H68.0821C68.0408 4.48729 67.6665 3.67729 67.037 3.08405C66.4075 2.49081 65.5711 2.15985 64.7013 2.15985C63.8315 2.15985 62.995 2.49081 62.3655 3.08405C61.736 3.67729 61.3618 4.48729 61.3205 5.34595V10.6994C61.2987 11.1516 61.3701 11.6033 61.5301 12.0274C61.6902 12.4515 61.9357 12.8391 62.2518 13.1667C62.5679 13.4943 62.948 13.7551 63.369 13.9332C63.79 14.1114 64.2433 14.2033 64.7013 14.2033C65.1593 14.2033 65.6125 14.1114 66.0336 13.9332C66.4546 13.7551 66.8347 13.4943 67.1507 13.1667C67.4668 12.8391 67.7123 12.4515 67.8724 12.0274C68.0325 11.6033 68.1038 11.1516 68.0821 10.6994V10.6843Z" fill="white"/>
<path d="M81.9031 1.17792C81.1097 0.549807 80.153 0.155722 79.143 0.040976C78.1331 -0.0737696 77.1109 0.0954801 76.1939 0.529269C75.2769 0.963057 74.5025 1.64378 73.9595 2.49317C73.4165 3.34255 73.1271 4.32613 73.1245 5.33083V10.6692C73.1771 12.0493 73.7687 13.3555 74.7753 14.3136C75.7818 15.2716 77.1249 15.8068 78.5223 15.8068C79.9198 15.8068 81.2628 15.2716 82.2693 14.3136C83.2759 13.3555 83.8676 12.0493 83.9201 10.6692V5.33083C83.9229 4.53305 83.7428 3.74501 83.3935 3.02579C83.0442 2.30657 82.5346 1.67482 81.9031 1.17792ZM81.9031 10.6843C81.9249 11.1364 81.8535 11.5882 81.6935 12.0123C81.5334 12.4364 81.2879 12.824 80.9718 13.1516C80.6557 13.4792 80.2756 13.7399 79.8546 13.9181C79.4336 14.0963 78.9803 14.1881 78.5223 14.1881C78.0643 14.1881 77.6111 14.0963 77.19 13.9181C76.769 13.7399 76.3889 13.4792 76.0729 13.1516C75.7568 12.824 75.5113 12.4364 75.3512 12.0123C75.1911 11.5882 75.1198 11.1364 75.1415 10.6843V5.33083C75.1828 4.47216 75.5571 3.66217 76.1866 3.06892C76.8161 2.47568 77.6525 2.14473 78.5223 2.14473C79.3921 2.14473 80.2286 2.47568 80.8581 3.06892C81.4876 3.66217 81.8618 4.47216 81.9031 5.33083V10.6843Z" fill="white"/>
<path d="M58.0122 16.0075H55.6437L54.5894 14.0066H56.9655L58.0122 16.0075Z" fill="white"/>
</g>
<defs>
<clipPath id="clip0_325_1487">
<rect width="132" height="16" fill="white"/>
</clipPath>
</defs>
</svg>
