<svg width="222" height="27" viewBox="0 0 222 27" fill="none" xmlns="http://www.w3.org/2000/svg">
<g clip-path="url(#clip0_216_955)">
<path d="M147.936 0.637085H148.835L150.891 4.59979L152.896 0.637085H153.808V7.10995H153.101V1.91127L151.187 5.61916H150.608L148.681 1.92401V7.10995H147.974L147.936 0.637085Z" fill="#333333"/>
<path d="M156.134 4.9948V0.637085H156.879V4.89286C156.855 5.12013 156.882 5.34984 156.959 5.56536C157.036 5.78088 157.159 5.97682 157.322 6.13901C157.484 6.3012 157.681 6.42558 157.898 6.50315C158.114 6.58072 158.346 6.60954 158.575 6.58753C158.802 6.61204 159.031 6.5856 159.246 6.51019C159.46 6.43478 159.655 6.31232 159.816 6.15194C159.976 5.99156 160.098 5.79736 160.173 5.58379C160.247 5.37022 160.272 5.14278 160.246 4.91835V0.662564H160.978V4.89286C160.995 5.2078 160.942 5.52259 160.824 5.81547C160.706 6.10834 160.526 6.37232 160.295 6.58918C160.064 6.80605 159.788 6.97062 159.487 7.07153C159.185 7.17244 158.866 7.20728 158.549 7.17365C158.243 7.20606 157.932 7.17367 157.639 7.07861C157.346 6.98355 157.076 6.82798 156.848 6.62214C156.62 6.4163 156.438 6.16484 156.315 5.88435C156.192 5.60386 156.13 5.3007 156.134 4.9948Z" fill="#333333"/>
<path d="M162.88 5.6701L163.561 5.428C163.694 5.78949 163.944 6.09746 164.271 6.30463C164.599 6.51179 164.985 6.60671 165.372 6.57478C166.233 6.57478 166.927 6.1543 166.927 5.41527C166.927 4.67624 166.503 4.4214 165.912 4.25575L164.627 3.91173C163.715 3.65689 163.175 3.18544 163.175 2.25528C163.189 2.0002 163.256 1.75069 163.371 1.52229C163.486 1.29389 163.648 1.0915 163.846 0.927728C164.043 0.763958 164.273 0.642322 164.52 0.570393C164.767 0.498465 165.027 0.477781 165.282 0.509645C165.736 0.466553 166.191 0.566581 166.583 0.795421C166.975 1.02426 167.285 1.37021 167.467 1.78383L166.824 2.03867C166.681 1.75807 166.456 1.52601 166.179 1.3718C165.903 1.21758 165.586 1.14814 165.27 1.17223C164.601 1.17223 163.908 1.50352 163.908 2.2298C163.908 2.73948 164.216 3.05802 164.987 3.28737L166.272 3.65689C166.668 3.73552 167.024 3.95206 167.273 4.26747C167.523 4.58287 167.651 4.97639 167.634 5.37704C167.634 6.48559 166.709 7.26283 165.321 7.26283C164.793 7.3094 164.264 7.17737 163.821 6.88821C163.377 6.59906 163.046 6.16977 162.88 5.6701Z" fill="#333333"/>
<path d="M169.677 0.637085H173.879V1.28691H170.422V3.42755H173.326V4.09013H170.422V6.4601H173.892V7.10995H169.677V0.637085Z" fill="#333333"/>
<path d="M175.691 5.05854V2.85419C175.686 2.53421 175.749 2.21682 175.874 1.92199C176 1.62716 176.186 1.36128 176.42 1.14106C176.654 0.920848 176.931 0.75107 177.235 0.642411C177.538 0.533752 177.861 0.48856 178.183 0.509687C178.499 0.477483 178.818 0.511589 179.12 0.609777C179.422 0.707965 179.699 0.868034 179.934 1.07958C180.169 1.29112 180.357 1.54939 180.485 1.83758C180.613 2.12577 180.678 2.43742 180.676 2.75226V4.89289C180.682 5.21279 180.621 5.53043 180.497 5.82586C180.373 6.12128 180.189 6.38811 179.956 6.60951C179.723 6.83091 179.447 7.00212 179.144 7.11237C178.841 7.22262 178.518 7.26953 178.196 7.25014C177.883 7.28586 177.566 7.25597 177.266 7.16244C176.965 7.0689 176.688 6.91381 176.452 6.70719C176.215 6.50057 176.026 6.24704 175.895 5.96303C175.763 5.67902 175.694 5.37087 175.691 5.05854ZM179.931 4.94385V2.72678C179.933 2.50384 179.886 2.28311 179.795 2.07934C179.704 1.87557 179.57 1.69344 179.402 1.5451C179.234 1.39676 179.036 1.28564 178.822 1.21914C178.607 1.15265 178.381 1.13233 178.158 1.15952C177.93 1.14488 177.702 1.17814 177.488 1.25714C177.274 1.33613 177.079 1.45907 176.917 1.61789C176.754 1.77671 176.627 1.96782 176.544 2.17869C176.462 2.38956 176.425 2.61542 176.436 2.84145V4.98209C176.436 5.44168 176.62 5.88244 176.948 6.20742C177.275 6.5324 177.72 6.71497 178.183 6.71497C178.647 6.71497 179.091 6.5324 179.419 6.20742C179.747 5.88244 179.931 5.44168 179.931 4.98209V4.94385Z" fill="#333333"/>
<path d="M185.906 0.637071H188.347C188.65 0.606079 188.955 0.63949 189.243 0.735081C189.531 0.830672 189.796 0.986236 190.018 1.19134C190.241 1.39644 190.417 1.64635 190.534 1.92433C190.652 2.20232 190.708 2.50196 190.699 2.80318V4.89285C190.705 5.19604 190.647 5.49715 190.53 5.77715C190.412 6.05715 190.238 6.30992 190.017 6.51951C189.795 6.72909 189.533 6.89092 189.246 6.99474C188.958 7.09856 188.652 7.14212 188.347 7.12267H185.906V0.637071ZM188.309 6.46009C188.524 6.47847 188.741 6.45105 188.944 6.37968C189.148 6.3083 189.334 6.19462 189.489 6.04624C189.645 5.89785 189.767 5.71818 189.847 5.51927C189.927 5.32035 189.963 5.10678 189.953 4.89285V2.76496C189.96 2.55125 189.921 2.33856 189.837 2.14135C189.754 1.94414 189.629 1.767 189.471 1.62197C189.312 1.47694 189.124 1.36741 188.919 1.3008C188.714 1.23419 188.497 1.21206 188.283 1.23593H186.651V6.42187L188.309 6.46009Z" fill="#333333"/>
<path d="M192.896 0.637085H197.098V1.28691H193.641V3.42755H196.545V4.09013H193.641V6.4601H197.123V7.10995H192.896V0.637085Z" fill="#333333"/>
<path d="M202.302 0.637085H203.047V6.4601H206.414V7.10995H202.302V0.637085Z" fill="#333333"/>
<path d="M210.513 0.62439H211.206L213.609 7.11H212.838L212.157 5.23695H209.497L208.804 7.11H208.071L210.513 0.62439ZM211.952 4.61259L210.847 1.50357L209.716 4.61259H211.952Z" fill="#333333"/>
<path d="M147.936 10.2572H150.441C151.585 10.2572 152.317 10.8051 152.317 11.8627C152.324 12.2012 152.215 12.532 152.007 12.8007C151.799 13.0693 151.505 13.2598 151.174 13.3407C151.545 13.4052 151.879 13.6009 152.115 13.8915C152.352 14.182 152.474 14.5477 152.459 14.9207C152.46 15.1729 152.408 15.4226 152.306 15.6536C152.204 15.8847 152.054 16.0921 151.867 16.2624C151.679 16.4328 151.458 16.5624 151.217 16.6429C150.976 16.7235 150.72 16.7531 150.467 16.7301H147.897L147.936 10.2572ZM150.236 13.1114C150.981 13.1114 151.521 12.7419 151.521 11.9773C151.521 11.2128 150.968 10.8815 150.236 10.8815H148.617V13.1114H150.236ZM150.364 16.1184C151.161 16.1184 151.765 15.7234 151.765 14.8443C151.765 13.9651 151.161 13.672 150.351 13.672H148.668V16.0675L150.364 16.1184Z" fill="#333333"/>
<path d="M154.592 10.2572H155.337V16.7428H154.592V10.2572Z" fill="#333333"/>
<path d="M157.547 14.6913V12.538C157.541 12.2181 157.602 11.9004 157.726 11.605C157.85 11.3096 158.034 11.0428 158.267 10.8213C158.5 10.5999 158.777 10.4287 159.08 10.3185C159.382 10.2082 159.705 10.1613 160.027 10.1807C160.344 10.1504 160.663 10.1863 160.965 10.286C161.266 10.3857 161.544 10.547 161.778 10.7595C162.013 10.9721 162.201 11.2311 162.328 11.5198C162.456 11.8086 162.521 12.1207 162.52 12.436V14.5639C162.526 14.8838 162.465 15.2015 162.341 15.4969C162.217 15.7923 162.033 16.0591 161.8 16.2805C161.567 16.5019 161.29 16.6731 160.988 16.7834C160.685 16.8937 160.362 16.9406 160.04 16.9212C159.724 16.9574 159.405 16.9265 159.102 16.8306C158.8 16.7348 158.521 16.576 158.285 16.3651C158.049 16.1541 157.862 15.8957 157.734 15.6071C157.607 15.3185 157.543 15.0063 157.547 14.6913ZM161.775 14.5767V12.3596C161.776 12.1366 161.73 11.9159 161.639 11.7121C161.548 11.5084 161.414 11.3262 161.246 11.1779C161.078 11.0296 160.88 10.9184 160.666 10.8519C160.451 10.7855 160.225 10.7651 160.001 10.7923C159.774 10.7777 159.545 10.8109 159.331 10.8899C159.118 10.9689 158.923 11.0919 158.76 11.2507C158.598 11.4095 158.471 11.6006 158.388 11.8115C158.305 12.0224 158.268 12.2482 158.28 12.4743V14.6149C158.28 15.0745 158.464 15.5152 158.791 15.8402C159.119 16.1652 159.564 16.3478 160.027 16.3478C160.491 16.3478 160.935 16.1652 161.263 15.8402C161.59 15.5152 161.775 15.0745 161.775 14.6149V14.5767Z" fill="#333333"/>
<path d="M164.73 10.2572H167.159C167.462 10.2283 167.768 10.2636 168.057 10.3606C168.346 10.4576 168.611 10.6142 168.834 10.82C169.058 11.0259 169.234 11.2763 169.353 11.5549C169.472 11.8334 169.53 12.1337 169.523 12.4361V14.513C169.529 14.8162 169.471 15.1173 169.354 15.3973C169.236 15.6773 169.062 15.9301 168.841 16.1397C168.62 16.3492 168.357 16.5111 168.07 16.6149C167.782 16.7187 167.477 16.7623 167.171 16.7428H164.73V10.2572ZM167.133 16.093C167.345 16.1109 167.558 16.0844 167.759 16.0153C167.96 15.9462 168.144 15.8359 168.299 15.6918C168.454 15.5476 168.577 15.3727 168.659 15.1784C168.742 14.9841 168.782 14.7747 168.778 14.564V12.4361C168.784 12.2224 168.745 12.0097 168.662 11.8125C168.578 11.6153 168.453 11.4381 168.295 11.2931C168.136 11.148 167.948 11.0385 167.743 10.9719C167.538 10.9053 167.321 10.8832 167.107 10.907H165.54V16.093H167.133Z" fill="#333333"/>
<path d="M171.72 10.2572H172.465V16.7428H171.72V10.2572Z" fill="#333333"/>
<path d="M174.213 10.2572H174.984L176.783 15.7617L178.607 10.2572H179.366L177.104 16.781H176.372L174.213 10.2572Z" fill="#333333"/>
<path d="M181.113 10.2572H185.315V10.9198H181.858V13.0604H184.814V13.723H181.858V16.093H185.328V16.7428H181.113V10.2572Z" fill="#333333"/>
<path d="M187.486 10.2572H189.812C190.085 10.2261 190.36 10.2534 190.621 10.3372C190.882 10.421 191.122 10.5594 191.324 10.7431C191.526 10.9267 191.687 11.1513 191.794 11.4016C191.901 11.6519 191.952 11.9221 191.945 12.194C191.962 12.6467 191.808 13.0895 191.513 13.4358C191.219 13.7821 190.805 14.0071 190.352 14.067L192.254 16.7428H191.418L189.581 14.1307H188.296V16.7428H187.551L187.486 10.2572ZM189.645 13.5191C190.634 13.5191 191.2 13.0859 191.2 12.1812C191.2 11.2766 190.583 10.9071 189.632 10.9071H188.232V13.5446L189.645 13.5191Z" fill="#333333"/>
<path d="M193.564 15.3029L194.245 15.0608C194.378 15.4201 194.626 15.7265 194.951 15.9334C195.275 16.1404 195.659 16.2367 196.044 16.2076C196.905 16.2076 197.612 15.7871 197.612 15.0481C197.612 14.3091 197.188 14.0542 196.597 13.8886L195.312 13.5446C194.387 13.2897 193.86 12.8183 193.86 11.8881C193.872 11.6336 193.937 11.3843 194.051 11.156C194.165 10.9276 194.325 10.7251 194.522 10.5612C194.719 10.3972 194.948 10.2754 195.194 10.2033C195.44 10.1313 195.699 10.1106 195.954 10.1425C196.409 10.0986 196.866 10.1981 197.261 10.4269C197.655 10.6556 197.967 11.002 198.151 11.4167L197.509 11.6715C197.364 11.392 197.139 11.1609 196.863 11.0069C196.586 10.8528 196.27 10.7827 195.954 10.8051C195.286 10.8051 194.592 11.1364 194.592 11.8626C194.592 12.3723 194.901 12.6909 195.672 12.9202L196.956 13.2897C197.354 13.3659 197.711 13.5818 197.961 13.8978C198.211 14.2138 198.338 14.6086 198.318 15.0099C198.318 16.1184 197.393 16.8957 195.993 16.8957C195.466 16.9416 194.939 16.8091 194.498 16.5198C194.057 16.2305 193.728 15.8016 193.564 15.3029Z" fill="#333333"/>
<path d="M200.362 10.2572H201.107V16.7428H200.362V10.2572Z" fill="#333333"/>
<path d="M203.471 10.2572H205.9C206.203 10.2281 206.508 10.2633 206.797 10.3604C207.085 10.4576 207.349 10.6144 207.571 10.8204C207.794 11.0265 207.969 11.2772 208.086 11.5557C208.204 11.8342 208.26 12.1343 208.251 12.436V14.513C208.259 14.8155 208.203 15.1164 208.087 15.3964C207.971 15.6764 207.798 15.9293 207.577 16.1391C207.357 16.3489 207.096 16.5109 206.809 16.6148C206.522 16.7188 206.217 16.7624 205.913 16.7428H203.471V10.2572ZM205.861 16.0929C206.073 16.1109 206.286 16.0844 206.487 16.0153C206.688 15.9462 206.872 15.8359 207.027 15.6917C207.182 15.5475 207.305 15.3726 207.387 15.1783C207.47 14.984 207.51 14.7747 207.506 14.5639V12.436C207.512 12.2235 207.473 12.012 207.391 11.8158C207.308 11.6196 207.184 11.4432 207.027 11.2983C206.87 11.1535 206.684 11.0437 206.48 10.9762C206.277 10.9087 206.062 10.8851 205.848 10.907H204.216V16.0929H205.861Z" fill="#333333"/>
<path d="M212.234 10.2572H212.928L215.331 16.7428H214.56L213.892 14.8697H211.219L210.513 16.7428H209.78L212.234 10.2572ZM213.674 14.2454L212.569 11.1364L211.438 14.2454H213.674Z" fill="#333333"/>
<path d="M217.22 10.2572H219.648C219.951 10.2281 220.257 10.2633 220.545 10.3604C220.834 10.4576 221.098 10.6144 221.32 10.8204C221.542 11.0265 221.718 11.2772 221.835 11.5557C221.953 11.8342 222.009 12.1343 222 12.436V14.513C222.008 14.8155 221.952 15.1164 221.836 15.3964C221.72 15.6764 221.546 15.9293 221.326 16.1391C221.106 16.3489 220.845 16.5109 220.558 16.6148C220.271 16.7188 219.966 16.7624 219.661 16.7428H217.22V10.2572ZM219.61 16.0929C219.822 16.1109 220.035 16.0844 220.236 16.0153C220.437 15.9462 220.621 15.8359 220.776 15.6917C220.931 15.5475 221.054 15.3726 221.136 15.1783C221.219 14.984 221.259 14.7747 221.255 14.5639V12.436C221.261 12.2235 221.222 12.012 221.139 11.8158C221.057 11.6196 220.933 11.4432 220.776 11.2983C220.619 11.1535 220.433 11.0437 220.229 10.9762C220.026 10.9087 219.81 10.8851 219.597 10.907H217.965V16.0929H219.61Z" fill="#333333"/>
<path d="M147.936 19.89H150.364C150.667 19.861 150.973 19.8962 151.261 19.9933C151.549 20.0904 151.813 20.2472 152.036 20.4532C152.258 20.6593 152.434 20.91 152.551 21.1885C152.668 21.4671 152.725 21.7671 152.716 22.0688V24.1458C152.722 24.449 152.664 24.7501 152.547 25.0301C152.429 25.3101 152.255 25.5629 152.034 25.7724C151.813 25.982 151.55 26.1438 151.263 26.2477C150.975 26.3515 150.67 26.3951 150.364 26.3756H147.936V19.89ZM150.326 25.7258C150.538 25.7437 150.751 25.7172 150.952 25.6481C151.153 25.579 151.337 25.4687 151.492 25.3246C151.647 25.1804 151.77 25.0054 151.852 24.8111C151.935 24.6168 151.975 24.4075 151.971 24.1967V22.0688C151.977 21.8551 151.938 21.6425 151.855 21.4452C151.771 21.248 151.646 21.0709 151.488 20.9259C151.329 20.7808 151.141 20.6713 150.936 20.6047C150.731 20.5381 150.514 20.516 150.3 20.5398H148.668V25.7258H150.326Z" fill="#333333"/>
<path d="M154.913 19.89H159.115V20.5526H155.658V22.7314H158.562V23.394H155.658V25.764H159.115V26.4138H154.887L154.913 19.89Z" fill="#333333"/>
<path d="M164.165 24.3242V22.0816C164.16 21.7648 164.222 21.4506 164.347 21.1591C164.473 20.8677 164.658 20.6055 164.892 20.3894C165.125 20.1733 165.402 20.0082 165.704 19.9046C166.006 19.801 166.326 19.7613 166.645 19.7881C166.929 19.7526 167.218 19.7759 167.493 19.8564C167.768 19.937 168.024 20.0731 168.243 20.2561C168.463 20.4392 168.642 20.6653 168.769 20.9202C168.897 21.1751 168.969 21.4534 168.983 21.7376V22.0561H168.276V21.8267C168.276 20.9476 167.583 20.4379 166.619 20.4379C166.396 20.4216 166.172 20.4522 165.961 20.5276C165.751 20.6029 165.559 20.7214 165.397 20.8752C165.236 21.0291 165.109 21.2149 165.025 21.4206C164.941 21.6262 164.902 21.8471 164.91 22.0688V24.2477C164.907 24.471 164.951 24.6923 165.041 24.8972C165.13 25.1021 165.263 25.2859 165.429 25.4363C165.595 25.5868 165.792 25.7007 166.006 25.7703C166.22 25.84 166.446 25.8639 166.67 25.8404C166.87 25.8677 167.074 25.8522 167.267 25.7949C167.461 25.7377 167.64 25.6399 167.792 25.5083C167.944 25.3767 168.066 25.2143 168.15 25.032C168.233 24.8497 168.276 24.6518 168.276 24.4516V24.3114H168.983V24.5535C168.973 24.8361 168.904 25.1134 168.779 25.3678C168.654 25.6221 168.477 25.8477 168.259 26.0301C168.042 26.2125 167.788 26.3477 167.514 26.427C167.24 26.5062 166.953 26.5278 166.67 26.4903C166.359 26.5299 166.042 26.5036 165.742 26.4131C165.441 26.3227 165.163 26.1701 164.927 25.9654C164.69 25.7608 164.5 25.5087 164.368 25.2258C164.237 24.9429 164.167 24.6356 164.165 24.3242Z" fill="#333333"/>
<path d="M170.949 24.3242V22.1199C170.943 21.8 171.004 21.4823 171.128 21.1869C171.252 20.8915 171.436 20.6247 171.669 20.4033C171.902 20.1819 172.179 20.0106 172.481 19.9004C172.784 19.7901 173.107 19.7432 173.429 19.7626C173.746 19.7323 174.065 19.7682 174.367 19.8679C174.668 19.9676 174.946 20.1289 175.18 20.3414C175.415 20.554 175.603 20.813 175.73 21.1017C175.858 21.3905 175.923 21.7026 175.922 22.0179V24.1458C175.928 24.4652 175.867 24.7823 175.743 25.0771C175.619 25.3719 175.434 25.638 175.201 25.8584C174.968 26.0788 174.691 26.2488 174.389 26.3576C174.086 26.4664 173.763 26.5116 173.442 26.4903C173.131 26.528 172.816 26.5003 172.517 26.4089C172.218 26.3175 171.942 26.1646 171.707 25.9602C171.472 25.7557 171.282 25.5043 171.152 25.2224C171.021 24.9405 170.952 24.6344 170.949 24.3242ZM175.177 24.2095V21.9924C175.178 21.7695 175.132 21.5488 175.041 21.345C174.95 21.1413 174.816 20.9591 174.648 20.8108C174.48 20.6624 174.282 20.5513 174.068 20.4848C173.853 20.4183 173.626 20.398 173.403 20.4252C173.176 20.4106 172.947 20.4438 172.733 20.5228C172.52 20.6018 172.325 20.7247 172.162 20.8836C172 21.0424 171.873 21.2335 171.79 21.4444C171.707 21.6552 171.67 21.8811 171.682 22.1071V24.2478C171.682 24.7074 171.866 25.1481 172.193 25.4731C172.521 25.7981 172.966 25.9807 173.429 25.9807C173.893 25.9807 174.337 25.7981 174.665 25.4731C174.992 25.1481 175.177 24.7074 175.177 24.2478V24.2095Z" fill="#333333"/>
<path d="M178.132 19.89H178.877V25.7258H182.244V26.3756H178.132V19.89Z" fill="#333333"/>
<path d="M183.747 24.3243V22.1199C183.741 21.8 183.802 21.4824 183.926 21.1869C184.05 20.8915 184.234 20.6247 184.467 20.4033C184.7 20.1819 184.977 20.0107 185.28 19.9004C185.582 19.7902 185.905 19.7433 186.227 19.7627C186.545 19.7305 186.865 19.7649 187.169 19.8638C187.472 19.9626 187.751 20.1236 187.987 20.3363C188.223 20.549 188.412 20.8087 188.54 21.0985C188.669 21.3882 188.734 21.7015 188.733 22.018V24.1459C188.739 24.4652 188.678 24.7824 188.554 25.0772C188.43 25.372 188.245 25.638 188.012 25.8584C187.779 26.0788 187.502 26.2488 187.199 26.3576C186.897 26.4664 186.574 26.5116 186.253 26.4904C185.942 26.5279 185.626 26.5002 185.326 26.4089C185.027 26.3177 184.75 26.165 184.513 25.9607C184.277 25.7565 184.087 25.5052 183.955 25.2233C183.823 24.9414 183.752 24.6351 183.747 24.3243ZM187.988 24.2096V21.9925C187.989 21.7683 187.943 21.5464 187.851 21.3416C187.759 21.1368 187.624 20.954 187.454 20.8055C187.285 20.6569 187.086 20.5461 186.87 20.4805C186.653 20.4149 186.426 20.3961 186.201 20.4253C185.975 20.4125 185.748 20.4471 185.536 20.5269C185.323 20.6068 185.13 20.73 184.969 20.8886C184.808 21.0472 184.682 21.2377 184.6 21.4476C184.518 21.6576 184.481 21.8823 184.492 22.1072V24.2478C184.492 24.7074 184.677 25.1482 185.004 25.4732C185.332 25.7981 185.777 25.9807 186.24 25.9807C186.703 25.9807 187.148 25.7981 187.476 25.4732C187.803 25.1482 187.988 24.7074 187.988 24.2478V24.2096Z" fill="#333333"/>
<path d="M190.943 19.89H191.842L193.898 23.8655L195.903 19.89H196.828V26.3756H196.108V21.1769L194.194 24.8848H193.616L191.688 21.1897V26.3756H190.981L190.943 19.89Z" fill="#333333"/>
<path d="M199.205 19.89H201.711C202.854 19.89 203.587 20.4379 203.587 21.4955C203.596 21.8346 203.488 22.1665 203.279 22.4357C203.071 22.7048 202.776 22.8947 202.443 22.9735C202.814 23.038 203.148 23.2337 203.385 23.5243C203.621 23.8148 203.743 24.1805 203.728 24.5535C203.729 24.8057 203.677 25.0554 203.575 25.2864C203.473 25.5175 203.324 25.7249 203.136 25.8953C202.948 26.0656 202.727 26.1952 202.486 26.2758C202.245 26.3563 201.99 26.386 201.736 26.3629H199.167L199.205 19.89ZM201.518 22.7314C202.25 22.7314 202.867 22.3619 202.867 21.5974C202.867 20.8329 202.302 20.5016 201.582 20.5016H199.976V22.7314H201.518ZM201.634 25.7385C202.43 25.7385 203.034 25.3435 203.034 24.4643C203.034 23.5852 202.43 23.2921 201.621 23.2921H199.95V25.6876L201.634 25.7385Z" fill="#333333"/>
<path d="M205.861 19.89H206.658V26.3756H205.912L205.861 19.89Z" fill="#333333"/>
<path d="M210.937 19.89H211.618L214.033 26.3756H213.25L212.581 24.5026H209.922L209.228 26.3756H208.482L210.937 19.89ZM212.376 23.8782L211.258 20.7692L210.127 23.8782H212.376Z" fill="#333333"/>
<path d="M32.9203 8.99574V27H29.5152V8.97025C29.5152 7.47658 28.9168 6.04408 27.8517 4.9879C26.7866 3.93171 25.342 3.33835 23.8357 3.33835C22.3295 3.33835 20.8849 3.93171 19.8198 4.9879C18.7547 6.04408 18.1563 7.47658 18.1563 8.97025V27H14.764V8.97025C14.8006 8.20728 14.6807 7.44487 14.4114 6.72921C14.1422 6.01355 13.7293 5.35952 13.1977 4.80672C12.6661 4.25393 12.0269 3.81387 11.3188 3.5132C10.6107 3.21253 9.84843 3.05751 9.07814 3.05751C8.30785 3.05751 7.54558 3.21253 6.83748 3.5132C6.12937 3.81387 5.49017 4.25393 4.95859 4.80672C4.427 5.35952 4.0141 6.01355 3.74486 6.72921C3.47563 7.44487 3.35567 8.20728 3.39226 8.97025V27H7.37714e-07V8.99574C-0.000689503 7.29821 0.483001 5.63512 1.39518 4.19866C2.30737 2.76219 3.61082 1.61099 5.15491 0.878056C6.699 0.145126 8.42069 -0.139615 10.1211 0.0567452C11.8215 0.253106 13.4311 0.922551 14.764 1.98772C15.406 2.50105 15.9763 3.09662 16.4602 3.75884C17.2957 2.58731 18.4003 1.62967 19.6828 0.965013C20.9652 0.300355 22.3887 -0.0522593 23.8357 -0.0637207C25.0331 -0.0637397 26.2186 0.170946 27.3242 0.626849C28.4297 1.08275 29.4335 1.75088 30.2777 2.5928C31.122 3.43472 31.7901 4.43383 32.2436 5.53268C32.6971 6.63153 32.9271 7.80845 32.9203 8.99574Z" fill="#333333"/>
<path d="M56.165 0V18.0042C56.0766 20.3331 55.0815 22.5375 53.3886 24.1541C51.6958 25.7708 49.437 26.674 47.0868 26.674C44.7366 26.674 42.4778 25.7708 40.785 24.1541C39.0922 22.5375 38.097 20.3331 38.0087 18.0042V0H41.4009V18.0297C41.3643 18.7927 41.4843 19.5551 41.7535 20.2708C42.0228 20.9864 42.4357 21.6405 42.9673 22.1933C43.4988 22.7461 44.138 23.1861 44.8461 23.4868C45.5542 23.7874 46.3165 23.9425 47.0868 23.9425C47.8571 23.9425 48.6194 23.7874 49.3275 23.4868C50.0356 23.1861 50.6748 22.7461 51.2064 22.1933C51.7379 21.6405 52.1509 20.9864 52.4201 20.2708C52.6893 19.5551 52.8093 18.7927 52.7727 18.0297V0H56.165Z" fill="#333333"/>
<path d="M76.0174 10.9835C74.4058 9.69804 72.3997 8.99725 70.3315 8.99725C68.2633 8.99725 66.2572 9.69804 64.6456 10.9835V0H61.2534V18.0042C61.2516 19.5281 61.6397 21.0275 62.3814 22.3621C63.123 23.6967 64.1939 24.823 65.494 25.6355C66.794 26.448 68.2806 26.9202 69.8148 27.008C71.3489 27.0957 72.8805 26.7962 74.2661 26.1373C75.6517 25.4784 76.8461 24.4817 77.7376 23.2404C78.6291 21.9992 79.1884 20.554 79.3634 19.0401C79.5384 17.5262 79.3232 15.993 78.738 14.584C78.1528 13.1749 77.2168 11.9361 76.0174 10.9835ZM76.0174 18.0297C76.054 18.7927 75.934 19.5551 75.6648 20.2708C75.3955 20.9864 74.9826 21.6405 74.451 22.1933C73.9195 22.7461 73.2803 23.1861 72.5722 23.4868C71.8641 23.7874 71.1018 23.9425 70.3315 23.9425C69.5612 23.9425 68.7989 23.7874 68.0908 23.4868C67.3827 23.1861 66.7435 22.7461 66.212 22.1933C65.6804 21.6405 65.2675 20.9864 64.9982 20.2708C64.729 19.5551 64.609 18.7927 64.6456 18.0297C64.7151 16.5807 65.3445 15.2139 66.4032 14.2128C67.4619 13.2117 68.8686 12.6532 70.3315 12.6532C71.7944 12.6532 73.2011 13.2117 74.2598 14.2128C75.3185 15.2139 75.9479 16.5807 76.0174 18.0297Z" fill="#333333"/>
<path d="M94.0323 20.2723H90.049L79.4096 0H83.3929L94.0323 20.2723Z" fill="#333333"/>
<path d="M114.501 18.0297H117.894C117.805 20.3586 116.81 22.5629 115.117 24.1796C113.425 25.7962 111.166 26.6994 108.816 26.6994C106.465 26.6994 104.207 25.7962 102.514 24.1796C100.821 22.5629 99.8258 20.3586 99.7374 18.0297V9.02121C99.8258 6.6923 100.821 4.48798 102.514 2.87131C104.207 1.25464 106.465 0.35144 108.816 0.35144C111.166 0.35144 113.425 1.25464 115.117 2.87131C116.81 4.48798 117.805 6.6923 117.894 9.02121H114.501C114.432 7.57221 113.803 6.20535 112.744 5.20425C111.685 4.20315 110.278 3.64467 108.816 3.64467C107.353 3.64467 105.946 4.20315 104.887 5.20425C103.829 6.20535 103.199 7.57221 103.13 9.02121V18.0552C103.093 18.8182 103.213 19.5806 103.482 20.2962C103.752 21.0119 104.164 21.6659 104.696 22.2187C105.228 22.7715 105.867 23.2116 106.575 23.5122C107.283 23.8129 108.045 23.9679 108.816 23.9679C109.586 23.9679 110.348 23.8129 111.056 23.5122C111.764 23.2116 112.404 22.7715 112.935 22.2187C113.467 21.6659 113.88 21.0119 114.149 20.2962C114.418 19.5806 114.538 18.8182 114.501 18.0552V18.0297Z" fill="#333333"/>
<path d="M137.746 1.98768C136.412 0.927735 134.803 0.262715 133.104 0.0690821C131.406 -0.124551 129.686 0.161058 128.144 0.893076C126.602 1.62509 125.3 2.77381 124.386 4.20715C123.473 5.6405 122.986 7.30028 122.982 8.9957V18.0042C123.07 20.3331 124.066 22.5374 125.758 24.1541C127.451 25.7707 129.71 26.6739 132.06 26.6739C134.41 26.6739 136.669 25.7707 138.362 24.1541C140.055 22.5374 141.05 20.3331 141.138 18.0042V8.9957C141.143 7.64945 140.84 6.31964 140.253 5.10595C139.665 3.89227 138.808 2.8262 137.746 1.98768ZM137.746 18.0297C137.783 18.7927 137.663 19.5551 137.393 20.2707C137.124 20.9864 136.711 21.6404 136.18 22.1932C135.648 22.746 135.009 23.1861 134.301 23.4867C133.593 23.7874 132.83 23.9424 132.06 23.9424C131.29 23.9424 130.528 23.7874 129.82 23.4867C129.111 23.1861 128.472 22.746 127.941 22.1932C127.409 21.6404 126.996 20.9864 126.727 20.2707C126.458 19.5551 126.338 18.7927 126.374 18.0297V8.9957C126.444 7.5467 127.073 6.17984 128.132 5.17875C129.191 4.17765 130.597 3.61917 132.06 3.61917C133.523 3.61917 134.93 4.17765 135.988 5.17875C137.047 6.17984 137.677 7.5467 137.746 8.9957V18.0297Z" fill="#333333"/>
<path d="M97.5659 27.0127H93.5826L91.8093 23.6361H95.8055L97.5659 27.0127Z" fill="#333333"/>
</g>
<defs>
<clipPath id="clip0_216_955">
<rect width="222" height="27" fill="white"/>
</clipPath>
</defs>
</svg>
