<svg width="66" height="41" viewBox="0 0 66 41" fill="none" xmlns="http://www.w3.org/2000/svg">
<g clip-path="url(#clip0_223_1159)">
<path fill-rule="evenodd" clip-rule="evenodd" d="M37.5929 16.6534C39.2427 16.6534 40.4663 17.0983 41.3663 17.6906C41.6183 17.8561 41.9541 17.6844 41.9678 17.383C41.976 17.1956 42.1152 17.0444 42.2948 17.016L42.3559 17.0112H45.7901C45.9982 17.0112 46.165 17.1736 46.1783 17.374L46.1776 17.4351L46.1367 17.8882C46.0439 18.868 46.0084 19.978 46.0052 21.7989L46.0049 31.1504C46.0049 34.9099 45.2201 37.3082 43.4548 38.9185C41.3806 40.7293 38.5608 41 37.0608 41C34.9418 41 32.8258 40.4919 31.4709 39.6796L31.3055 39.5765L31.0336 39.4C30.9038 39.316 30.8376 39.1642 30.8606 39.0149L30.876 38.9514L31.873 35.9382C31.9461 35.7176 32.1922 35.6142 32.3973 35.7042L32.452 35.7336L32.8959 36.0183C33.4247 36.3618 34.9029 37.1516 37.1538 37.1516C39.718 37.1516 41.1257 35.9914 41.4464 33.6123C41.4895 33.2922 41.1434 33.061 40.8656 33.2257C39.815 33.8449 38.5394 34.1913 37.1538 34.1913C32.8151 34.1913 29.5377 30.5482 29.5377 25.7253C29.5377 19.7725 33.5937 16.6534 37.5929 16.6534ZM8.51661 9.8787C8.84253 9.79154 9.46196 9.65755 9.74266 9.89748C9.76979 9.9097 9.78642 9.93479 9.80312 9.96136C10.0415 10.2566 10.1559 10.7158 10.3132 11.0646C10.4959 11.4847 10.7079 11.897 10.8968 12.3189C11.0997 12.7836 11.3027 13.2397 11.5057 13.6952C12.1492 15.1632 11.9524 15.4322 10.3537 15.8615C9.30453 16.1494 8.21741 16.2133 7.26119 16.9522C5.61724 18.2293 5.63533 19.8811 7.49744 20.8747C9.0455 21.7078 10.6211 22.4899 12.227 23.223C17.4277 25.5838 18.2876 33.6808 14.4365 37.3837C12.0165 39.7024 9.28685 40.8226 6.07309 40.9935C5.40958 41.0312 5.02211 40.9268 4.8376 40.066C4.56916 38.8291 4.32821 37.5531 3.92735 36.3753C3.4867 35.1015 4.00188 35.0698 4.95373 34.9982L5.33139 34.9732C7.09488 34.8543 8.86266 34.6718 10.188 33.1825C11.4904 31.7264 11.2191 30.2681 9.69385 29.022C8.63117 28.1499 7.41301 27.6555 6.19487 27.1861L5.58653 26.9519C5.28307 26.8342 4.98125 26.7144 4.68348 26.587C0.913692 24.9939 -0.202772 21.4712 0.0291314 18.3917C0.326156 14.6948 2.49505 12.107 5.95732 10.8155C6.7963 10.4947 7.65155 10.1157 8.51661 9.8787ZM55.7125 16.6534C60.7209 16.6534 64.2223 20.2769 64.2223 25.4609C64.2223 31.6615 59.8096 34.5308 55.6468 34.6062L55.4782 34.6078H55.439C53.1047 34.6078 50.958 33.7518 49.4193 32.1939C47.8171 30.5732 46.9684 28.3514 46.9684 25.7592C46.9684 20.4014 50.5686 16.6534 55.7125 16.6534ZM21.5769 17.0107C21.9209 17.0107 22.2035 17.2712 22.2397 17.6056L22.2436 17.6784V33.5752C22.2436 33.9192 21.9839 34.2024 21.6495 34.2386L21.5769 34.2425H18.3939C18.0502 34.2425 17.7672 33.9823 17.731 33.648L17.7271 33.5752V17.6784C17.7271 17.3344 17.9871 17.0509 18.3212 17.0147L18.3939 17.0107H21.5769ZM28.124 17.0107C28.3367 17.0107 28.5131 17.1682 28.5434 17.3724L28.5479 17.435V33.8189C28.5479 34.0315 28.3909 34.2076 28.1866 34.2379L28.124 34.2425H24.4594C24.2468 34.2425 24.0704 34.0856 24.0401 33.8815L24.0355 33.8189V17.6784C24.0355 17.3344 24.2955 17.0509 24.6296 17.0147L24.7023 17.0107H28.124ZM55.6118 20.4014C52.7804 20.4014 51.5229 23.0363 51.5229 25.6629C51.5229 28.6065 53.1315 30.7661 55.3741 30.853L55.515 30.8557H55.5449C57.8981 30.8557 59.6091 28.628 59.6091 25.5639C59.6091 23.7804 58.7666 20.4014 55.6118 20.4014ZM38.0567 20.4674C35.6479 20.4674 34.0919 22.4777 34.0919 25.5968C34.0919 27.8197 35.1232 30.4071 38.0239 30.4071C39.4903 30.4071 40.7425 29.5317 41.2405 28.1788L41.291 28.032L41.3031 27.9951C41.4052 27.7179 41.4713 27.3418 41.4863 26.9327L41.4895 26.7555V23.9525C41.4895 23.5625 41.4587 23.2782 41.3949 23.05L41.3655 22.9555L41.3626 22.9385C40.8799 21.3902 39.6405 20.4674 38.0567 20.4674ZM38.8927 8.15247L38.8949 8.16262C47.5276 6.92043 51.9456 12.7901 51.9456 12.7901C51.5335 12.3533 64.1879 10.2703 66 20.868C64.1879 12.4899 54.308 12.3437 51.5504 13.6697C46.4638 7.27049 39.2465 8.60795 37.4964 8.97055C36.7311 4.70858 32.7909 0.273803 25.8128 0.816981C14.0978 1.73828 13.347 13.8687 13.347 13.8687C12.4433 12.4191 11.9359 10.7234 11.0323 9.07912C10.8542 8.74358 11.4441 9.25427 12.0446 9.81515L12.2158 9.97604C12.698 10.432 13.1399 10.8712 13.1399 10.8712C14.5274 1.01786 25.3992 0.0153231 25.3992 0.0153231C36.9301 -0.401554 38.8217 7.82331 38.8927 8.15247ZM19.9821 10.4946C21.4957 10.4946 22.63 11.6164 22.63 13.1027C22.63 14.5686 21.5548 15.6842 20.0896 15.7505L19.9511 15.7536H19.9138C18.4169 15.7536 17.2936 14.6144 17.2936 13.1027C17.2936 11.6164 18.4459 10.4946 19.9821 10.4946ZM26.2909 10.4946C27.8005 10.4946 28.9436 11.6164 28.9436 13.1027C28.9436 14.5686 27.8628 15.6842 26.3926 15.7505L26.2537 15.7536H26.2226C24.7319 15.7536 23.6075 14.6144 23.6075 13.1027C23.6075 11.6164 24.7566 10.4946 26.2909 10.4946Z" fill="white"/>
</g>
<defs>
<clipPath id="clip0_223_1159">
<rect width="66" height="41" fill="white"/>
</clipPath>
</defs>
</svg>
