<svg width="32" height="32" viewBox="0 0 32 32" fill="none" xmlns="http://www.w3.org/2000/svg">
<mask id="mask0_3086_4389" style="mask-type:alpha" maskUnits="userSpaceOnUse" x="0" y="0" width="32" height="32">
<rect width="32" height="32" fill="#D9D9D9"/>
</mask>
<g mask="url(#mask0_3086_4389)">
<path d="M26.4 30.1344L22.3667 26.101C21.8111 26.4566 21.2223 26.7624 20.6 27.0184C19.9778 27.2735 19.3334 27.4788 18.6667 27.6344V24.901C18.9778 24.7899 19.2836 24.6788 19.584 24.5677C19.8836 24.4566 20.1667 24.3233 20.4334 24.1677L16 19.7344V26.6677L9.33337 20.001H4.00003V12.001H8.2667L1.8667 5.60104L3.73337 3.73438L28.2667 28.2677L26.4 30.1344ZM26.1334 22.401L24.2 20.4677C24.5778 19.7788 24.8614 19.0566 25.0507 18.301C25.2391 17.5455 25.3334 16.7677 25.3334 15.9677C25.3334 13.8788 24.7223 12.0122 23.5 10.3677C22.2778 8.72326 20.6667 7.61215 18.6667 7.03438V4.30104C21.4223 4.92326 23.6667 6.31749 25.4 8.48371C27.1334 10.6508 28 13.1455 28 15.9677C28 17.1455 27.8391 18.2788 27.5174 19.3677C27.1947 20.4566 26.7334 21.4677 26.1334 22.401ZM21.6667 17.9344L18.6667 14.9344V10.601C19.7111 11.0899 20.528 11.8233 21.1174 12.801C21.7058 13.7788 22 14.8455 22 16.001C22 16.3344 21.9725 16.6624 21.9174 16.985C21.8614 17.3068 21.7778 17.6233 21.6667 17.9344ZM16 12.2677L12.5334 8.80104L16 5.33438V12.2677ZM13.3334 20.201V17.0677L10.9334 14.6677H6.6667V17.3344H10.4667L13.3334 20.201Z" fill="white"/>
</g>
</svg>
