<svg width="32" height="32" viewBox="0 0 32 32" fill="none" xmlns="http://www.w3.org/2000/svg">
<mask id="mask0_3083_4408" style="mask-type:alpha" maskUnits="userSpaceOnUse" x="0" y="0" width="32" height="32">
<rect width="32" height="32" fill="#D9D9D9"/>
</mask>
<g mask="url(#mask0_3083_4408)">
<path d="M18.6667 27.6341V24.9008C20.6667 24.323 22.2778 23.2119 23.5 21.5674C24.7222 19.923 25.3333 18.0563 25.3333 15.9674C25.3333 13.8786 24.7222 12.0119 23.5 10.3674C22.2778 8.723 20.6667 7.61189 18.6667 7.03411V4.30078C21.4222 4.923 23.6667 6.31723 25.4 8.48345C27.1333 10.6506 28 13.1452 28 15.9674C28 18.7897 27.1333 21.2839 25.4 23.4501C23.6667 25.6172 21.4222 27.0119 18.6667 27.6341ZM4 20.0008V12.0008H9.33333L16 5.33411V26.6674L9.33333 20.0008H4ZM18.6667 21.3341V10.6008C19.7111 11.0897 20.528 11.823 21.1173 12.8008C21.7058 13.7786 22 14.8452 22 16.0008C22 17.1341 21.7058 18.1839 21.1173 19.1501C20.528 20.1172 19.7111 20.8452 18.6667 21.3341ZM13.3333 11.8008L10.4667 14.6674H6.66667V17.3341H10.4667L13.3333 20.2008V11.8008Z" fill="white"/>
</g>
</svg>
