<svg width="24" height="24" viewBox="0 0 24 24" fill="none" xmlns="http://www.w3.org/2000/svg">
<path d="M7.97619 6.25397C8.19074 6.2599 8.42861 6.27188 8.65492 6.79013C8.80498 7.13514 9.05778 7.77028 9.26371 8.28766C9.42402 8.69027 9.55582 9.02157 9.58877 9.08938C9.66418 9.24424 9.71061 9.42292 9.61199 9.63137C9.60038 9.65595 9.58948 9.67945 9.57881 9.70207C9.49977 9.87144 9.44348 9.99206 9.31038 10.1496C9.25573 10.2144 9.19875 10.2854 9.14197 10.3562C9.04213 10.4807 8.94293 10.6043 8.85791 10.6917C8.7071 10.8464 8.55042 11.0134 8.72443 11.3231C8.89855 11.6328 9.50763 12.6514 10.4068 13.4734C11.3734 14.3612 12.214 14.7354 12.639 14.9245C12.7214 14.9613 12.7883 14.991 12.8373 15.0162C13.139 15.1711 13.3188 15.1472 13.4928 14.9388C13.6669 14.7302 14.2469 14.0333 14.45 13.7235C14.6473 13.4138 14.8503 13.4615 15.1288 13.5687C15.4071 13.6759 16.8922 14.4264 17.1938 14.5813C17.2534 14.6119 17.3092 14.6395 17.3609 14.6651C17.5707 14.7689 17.7134 14.8395 17.7739 14.9447C17.8493 15.0757 17.8493 15.6953 17.5999 16.422C17.3447 17.1486 16.1148 17.8456 15.558 17.8992C15.5052 17.9044 15.4528 17.9109 15.3987 17.9175C14.8884 17.9813 14.2406 18.0621 11.9323 17.1248C9.08821 15.971 7.21077 13.1081 6.83119 12.5294C6.80123 12.4836 6.78059 12.4522 6.76956 12.4369L6.76314 12.4281C6.59044 12.1897 5.53394 10.7312 5.53394 9.22644C5.53394 7.78675 6.22138 7.03721 6.53493 6.69533C6.5548 6.67366 6.57317 6.65364 6.58977 6.63517C6.86817 6.32547 7.19308 6.24805 7.39608 6.24805C7.59918 6.24805 7.80218 6.24805 7.97619 6.25397Z" fill="black"/>
<path fill-rule="evenodd" clip-rule="evenodd" d="M0.117349 23.387C0.0214017 23.7463 0.338594 24.0779 0.688104 23.9838L6.09094 22.5279C7.7964 23.4809 9.71651 23.9872 11.6714 23.9872H11.6773C18.1105 23.9872 23.3545 18.6084 23.3545 11.9967C23.3545 8.792 22.142 5.7779 19.9377 3.51434C17.7334 1.25089 14.804 0 11.6772 0C5.24408 0 7.5961e-07 5.37881 7.5961e-07 11.9908C-0.000738014 14.0941 0.537418 16.1607 1.56043 17.983L0.117349 23.387ZM3.25625 18.465C3.38151 17.9959 3.31893 17.4946 3.08257 17.0735C2.21462 15.5275 1.75837 13.7741 1.75899 11.9908C1.75899 6.38963 6.20719 1.81469 11.6772 1.81469C14.339 1.81469 16.8223 2.87566 18.6968 4.80052C20.5692 6.72327 21.5955 9.27442 21.5955 11.9967C21.5955 17.5975 17.1474 22.1725 11.6773 22.1725H11.6714C10.0104 22.1725 8.37807 21.7422 6.9287 20.9322C6.53643 20.713 6.07806 20.6558 5.6464 20.7722L2.40706 21.645L3.25625 18.465Z" fill="black"/>
</svg>
