<svg width="174" height="23" viewBox="0 0 174 23" fill="none" xmlns="http://www.w3.org/2000/svg">
<mask id="path-1-inside-1_216_1051" fill="white">
<path d="M163.545 9.57476L162.723 7.60268C164.413 6.52629 166.351 5.97376 168.319 6.00691C172.154 6.00691 174 8.25772 174 12.4527V22.5919H172.122L171.919 20.7731C170.445 22.1151 168.585 22.8774 166.649 22.9333C163.721 22.9333 161.875 21.024 161.875 18.2087C161.875 15.1147 163.721 13.1705 167.497 13.1705H171.828V12.6409C171.828 9.72808 170.628 8.16713 167.967 8.16713C166.402 8.21134 164.877 8.69698 163.545 9.57476ZM171.828 15.1495H167.582C165.24 15.1495 164.073 16.1809 164.073 17.9369C164.073 19.693 165.332 20.7801 167.178 20.7801C168.901 20.7252 170.55 20.0161 171.828 18.7801L171.828 15.1495ZM121.246 22.5919L118.487 5.1707L112.689 22.5919H111.019L105.247 5.12889L102.461 22.5919H100.146L103.786 0.697011H106.042L111.867 18.9056L117.665 0.697011H119.922L123.562 22.5989L121.246 22.5919ZM137.624 21.4351C135.991 22.4261 134.14 22.9337 132.263 22.9054C127.697 22.9054 124.794 19.463 124.794 14.4527C124.794 9.72806 127.697 6.00691 131.734 6.00691C135.772 6.00691 138.179 9.35177 138.179 13.5468C138.179 14.1391 138.179 14.7384 138.12 15.3307H127.032C127.377 18.6477 129.373 20.8079 132.445 20.8079C133.985 20.778 135.498 20.3703 136.868 19.6163L137.624 21.4351ZM135.954 13.2959V13.1705C135.954 10.2925 134.376 8.10444 131.767 8.10444C129.158 8.10444 127.43 10.3274 127.051 13.2959L135.954 13.2959ZM153.846 0.000100385V22.5569H151.974L151.765 20.9054C150.381 22.2058 148.598 22.9175 146.756 22.9054C142.653 22.9054 140.37 19.0866 140.37 14.4874C140.37 9.76281 142.979 6.00682 147.134 6.00682C148.78 6.0043 150.383 6.5742 151.7 7.63047V0L153.846 0.000100385ZM147.199 20.7731C148.846 20.7171 150.422 20.0408 151.648 18.8637V9.88832C150.503 8.7885 149.031 8.15659 147.493 8.10439C144.414 8.10439 142.568 10.7942 142.568 14.4875C142.568 17.9578 144.179 20.7731 147.199 20.7731ZM159.279 6.06959V22.5918H157.081V6.06959H159.279ZM14.1733 8.82214C13.9385 10.2646 13.5863 11.8604 13.3841 12.7942L11.16 22.5918H5.94198L0 0.696975H4.80054L7.58564 11.6375C7.78784 12.6061 8.17266 14.2646 8.46617 15.6443L11.8579 0.696975H16.4562L19.887 15.6513C20.2066 14.2576 20.5849 12.613 20.7937 11.6444L23.5135 0.696975H28.3206L22.4504 22.5989H17.2324L14.9626 12.7943C14.7604 11.8465 14.4082 10.2646 14.1733 8.82214ZM56.0411 6.06959H59.8437L60.1372 7.7908C60.8023 7.11681 61.5756 6.57627 62.42 6.19502C63.2505 5.84662 64.137 5.67614 65.029 5.69329C65.7363 5.64965 66.4434 5.78246 67.0943 6.08119C67.7453 6.37993 68.3222 6.83641 68.7795 7.4145C69.66 8.57127 70.084 10.2019 70.084 12.2924V22.5918H65.7204V12.5781C65.7758 11.8167 65.5669 11.0601 65.1334 10.4527C64.8909 10.1951 64.5975 9.9988 64.2747 9.87821C63.9519 9.75762 63.6079 9.71582 63.268 9.75589C62.2069 9.78918 61.1907 10.221 60.3981 10.9754V22.5918H56.0411L56.0411 6.06959ZM84.9227 18.1181L86.2663 21.2817C84.4485 22.46 82.3519 23.0551 80.2265 22.996C75.6607 22.996 72.3995 19.3654 72.3995 14.3272C72.3995 9.50506 75.4194 5.72116 79.8677 5.72116C84.1465 5.72116 86.8077 8.94757 86.8077 13.8255C86.8077 14.4527 86.8077 15.2958 86.749 15.7627H76.7043C77.0892 18.0484 78.5241 19.1424 80.9244 19.1424C82.313 19.1324 83.6808 18.7819 84.9227 18.1181ZM76.6913 12.7036H82.7833V12.5503C82.7898 11.6921 82.5101 10.8596 81.9941 10.2019C81.7306 9.89495 81.4085 9.6521 81.0495 9.48979C80.6905 9.32748 80.303 9.2495 79.9134 9.26115C79.5154 9.25246 79.12 9.33151 78.7519 9.49337C78.3839 9.65523 78.051 9.89643 77.774 10.2019C77.1816 10.9085 76.8041 11.7906 76.6913 12.7314V12.7036ZM53.5496 6.04869C53.3615 6.02136 53.172 6.0074 52.9822 6.00688C52.0929 6.01007 51.2132 6.20278 50.3945 6.57371C49.5758 6.94464 48.8346 7.48634 48.2142 8.16711L47.9207 6.07658H44.1116V22.5918H48.4751V11.296C49.5586 10.5844 50.8038 10.2036 52.0755 10.1949C52.5694 10.1917 53.0625 10.2336 53.5496 10.3204L53.5496 6.04869ZM98.5548 10.3204H98.6135L99.3244 6.27168L99.1026 6.19502C98.7393 6.10127 98.3675 6.04987 97.9938 6.04172C97.1035 6.04437 96.2226 6.2368 95.4028 6.60774C94.583 6.97867 93.8407 7.52066 93.2194 8.20194L92.9258 6.11141H89.1167V22.5918H93.4803V11.2959C94.5656 10.5831 95.8132 10.2023 97.0872 10.1949C97.5875 10.1919 98.0871 10.2339 98.5809 10.3203L98.5548 10.3204ZM158.138 6.32052e-05C157.859 6.32052e-05 157.587 0.088341 157.355 0.253733C157.123 0.419125 156.943 0.654204 156.836 0.929241C156.729 1.20428 156.701 1.50692 156.756 1.7989C156.81 2.09088 156.944 2.35908 157.141 2.56958C157.338 2.78008 157.589 2.92344 157.863 2.98152C158.136 3.0396 158.419 3.00979 158.677 2.89586C158.934 2.78194 159.154 2.58902 159.309 2.34149C159.464 2.09396 159.546 1.80295 159.546 1.50525C159.546 1.10605 159.398 0.7232 159.134 0.440923C158.87 0.158645 158.511 6.32052e-05 158.138 6.32052e-05ZM34.941 5.69329C32.8959 5.69635 30.874 6.15685 29.0055 7.04518L29.8404 10.6897C31.2111 10.0202 32.697 9.66189 34.204 9.63744C36.1085 9.63744 37.1065 10.4528 37.1065 12.5781V12.7314H34.1453C29.8404 12.7314 27.8772 14.5781 27.8772 17.9299C27.8772 20.9333 29.8991 22.996 32.9451 22.996C34.6773 23.004 36.3455 22.2975 37.6022 21.0239L37.8696 22.5918H41.4374V12.2924C41.4374 8.06955 39.0958 5.69329 34.941 5.69329ZM37.1065 18.4247C36.2877 19.0505 35.3249 19.4263 34.3214 19.5118C33.0169 19.5118 32.2407 18.7313 32.2407 17.6024C32.2407 16.4735 33.0038 15.7279 34.4388 15.7279H37.1065V18.4247Z"/>
</mask>
<path d="M163.545 9.57476L162.723 7.60268C164.413 6.52629 166.351 5.97376 168.319 6.00691C172.154 6.00691 174 8.25772 174 12.4527V22.5919H172.122L171.919 20.7731C170.445 22.1151 168.585 22.8774 166.649 22.9333C163.721 22.9333 161.875 21.024 161.875 18.2087C161.875 15.1147 163.721 13.1705 167.497 13.1705H171.828V12.6409C171.828 9.72808 170.628 8.16713 167.967 8.16713C166.402 8.21134 164.877 8.69698 163.545 9.57476ZM171.828 15.1495H167.582C165.24 15.1495 164.073 16.1809 164.073 17.9369C164.073 19.693 165.332 20.7801 167.178 20.7801C168.901 20.7252 170.55 20.0161 171.828 18.7801L171.828 15.1495ZM121.246 22.5919L118.487 5.1707L112.689 22.5919H111.019L105.247 5.12889L102.461 22.5919H100.146L103.786 0.697011H106.042L111.867 18.9056L117.665 0.697011H119.922L123.562 22.5989L121.246 22.5919ZM137.624 21.4351C135.991 22.4261 134.14 22.9337 132.263 22.9054C127.697 22.9054 124.794 19.463 124.794 14.4527C124.794 9.72806 127.697 6.00691 131.734 6.00691C135.772 6.00691 138.179 9.35177 138.179 13.5468C138.179 14.1391 138.179 14.7384 138.12 15.3307H127.032C127.377 18.6477 129.373 20.8079 132.445 20.8079C133.985 20.778 135.498 20.3703 136.868 19.6163L137.624 21.4351ZM135.954 13.2959V13.1705C135.954 10.2925 134.376 8.10444 131.767 8.10444C129.158 8.10444 127.43 10.3274 127.051 13.2959L135.954 13.2959ZM153.846 0.000100385V22.5569H151.974L151.765 20.9054C150.381 22.2058 148.598 22.9175 146.756 22.9054C142.653 22.9054 140.37 19.0866 140.37 14.4874C140.37 9.76281 142.979 6.00682 147.134 6.00682C148.78 6.0043 150.383 6.5742 151.7 7.63047V0L153.846 0.000100385ZM147.199 20.7731C148.846 20.7171 150.422 20.0408 151.648 18.8637V9.88832C150.503 8.7885 149.031 8.15659 147.493 8.10439C144.414 8.10439 142.568 10.7942 142.568 14.4875C142.568 17.9578 144.179 20.7731 147.199 20.7731ZM159.279 6.06959V22.5918H157.081V6.06959H159.279ZM14.1733 8.82214C13.9385 10.2646 13.5863 11.8604 13.3841 12.7942L11.16 22.5918H5.94198L0 0.696975H4.80054L7.58564 11.6375C7.78784 12.6061 8.17266 14.2646 8.46617 15.6443L11.8579 0.696975H16.4562L19.887 15.6513C20.2066 14.2576 20.5849 12.613 20.7937 11.6444L23.5135 0.696975H28.3206L22.4504 22.5989H17.2324L14.9626 12.7943C14.7604 11.8465 14.4082 10.2646 14.1733 8.82214ZM56.0411 6.06959H59.8437L60.1372 7.7908C60.8023 7.11681 61.5756 6.57627 62.42 6.19502C63.2505 5.84662 64.137 5.67614 65.029 5.69329C65.7363 5.64965 66.4434 5.78246 67.0943 6.08119C67.7453 6.37993 68.3222 6.83641 68.7795 7.4145C69.66 8.57127 70.084 10.2019 70.084 12.2924V22.5918H65.7204V12.5781C65.7758 11.8167 65.5669 11.0601 65.1334 10.4527C64.8909 10.1951 64.5975 9.9988 64.2747 9.87821C63.9519 9.75762 63.6079 9.71582 63.268 9.75589C62.2069 9.78918 61.1907 10.221 60.3981 10.9754V22.5918H56.0411L56.0411 6.06959ZM84.9227 18.1181L86.2663 21.2817C84.4485 22.46 82.3519 23.0551 80.2265 22.996C75.6607 22.996 72.3995 19.3654 72.3995 14.3272C72.3995 9.50506 75.4194 5.72116 79.8677 5.72116C84.1465 5.72116 86.8077 8.94757 86.8077 13.8255C86.8077 14.4527 86.8077 15.2958 86.749 15.7627H76.7043C77.0892 18.0484 78.5241 19.1424 80.9244 19.1424C82.313 19.1324 83.6808 18.7819 84.9227 18.1181ZM76.6913 12.7036H82.7833V12.5503C82.7898 11.6921 82.5101 10.8596 81.9941 10.2019C81.7306 9.89495 81.4085 9.6521 81.0495 9.48979C80.6905 9.32748 80.303 9.2495 79.9134 9.26115C79.5154 9.25246 79.12 9.33151 78.7519 9.49337C78.3839 9.65523 78.051 9.89643 77.774 10.2019C77.1816 10.9085 76.8041 11.7906 76.6913 12.7314V12.7036ZM53.5496 6.04869C53.3615 6.02136 53.172 6.0074 52.9822 6.00688C52.0929 6.01007 51.2132 6.20278 50.3945 6.57371C49.5758 6.94464 48.8346 7.48634 48.2142 8.16711L47.9207 6.07658H44.1116V22.5918H48.4751V11.296C49.5586 10.5844 50.8038 10.2036 52.0755 10.1949C52.5694 10.1917 53.0625 10.2336 53.5496 10.3204L53.5496 6.04869ZM98.5548 10.3204H98.6135L99.3244 6.27168L99.1026 6.19502C98.7393 6.10127 98.3675 6.04987 97.9938 6.04172C97.1035 6.04437 96.2226 6.2368 95.4028 6.60774C94.583 6.97867 93.8407 7.52066 93.2194 8.20194L92.9258 6.11141H89.1167V22.5918H93.4803V11.2959C94.5656 10.5831 95.8132 10.2023 97.0872 10.1949C97.5875 10.1919 98.0871 10.2339 98.5809 10.3203L98.5548 10.3204ZM158.138 6.32052e-05C157.859 6.32052e-05 157.587 0.088341 157.355 0.253733C157.123 0.419125 156.943 0.654204 156.836 0.929241C156.729 1.20428 156.701 1.50692 156.756 1.7989C156.81 2.09088 156.944 2.35908 157.141 2.56958C157.338 2.78008 157.589 2.92344 157.863 2.98152C158.136 3.0396 158.419 3.00979 158.677 2.89586C158.934 2.78194 159.154 2.58902 159.309 2.34149C159.464 2.09396 159.546 1.80295 159.546 1.50525C159.546 1.10605 159.398 0.7232 159.134 0.440923C158.87 0.158645 158.511 6.32052e-05 158.138 6.32052e-05ZM34.941 5.69329C32.8959 5.69635 30.874 6.15685 29.0055 7.04518L29.8404 10.6897C31.2111 10.0202 32.697 9.66189 34.204 9.63744C36.1085 9.63744 37.1065 10.4528 37.1065 12.5781V12.7314H34.1453C29.8404 12.7314 27.8772 14.5781 27.8772 17.9299C27.8772 20.9333 29.8991 22.996 32.9451 22.996C34.6773 23.004 36.3455 22.2975 37.6022 21.0239L37.8696 22.5918H41.4374V12.2924C41.4374 8.06955 39.0958 5.69329 34.941 5.69329ZM37.1065 18.4247C36.2877 19.0505 35.3249 19.4263 34.3214 19.5118C33.0169 19.5118 32.2407 18.7313 32.2407 17.6024C32.2407 16.4735 33.0038 15.7279 34.4388 15.7279H37.1065V18.4247Z" fill="white" stroke="white" stroke-width="2" mask="url(#path-1-inside-1_216_1051)"/>
</svg>
