<svg width="87" height="24" viewBox="0 0 87 24" fill="none" xmlns="http://www.w3.org/2000/svg">
<g clip-path="url(#clip0_484_1438)">
<path d="M79.3032 23.0305H0V23.9641H79.3032V23.0305Z" fill="black"/>
<path fill-rule="evenodd" clip-rule="evenodd" d="M0.678345 22.1992L10.9567 8.0888L13.5247 8.0752L18.2367 22.2152L15.2999 22.2216L14.0167 17.7016L7.11194 17.6952L3.99274 22.236L0.678345 22.2008V22.1992ZM8.28314 15.9888L13.5375 16.0136L11.9783 10.6072L8.28314 15.9888Z" fill="black"/>
<path fill-rule="evenodd" clip-rule="evenodd" d="M16.1168 8.42795L17.6392 11.9672C17.6392 11.9672 28.8336 2.26795 47.2136 2.16075C65.5936 2.05275 74.2992 4.09515 74.2992 4.09515C74.2992 4.09515 55.7112 -0.992045 42.06 0.173555C28.4096 1.33995 16.1168 8.42795 16.1168 8.42795Z" fill="#646464"/>
<path fill-rule="evenodd" clip-rule="evenodd" d="M17.7904 12.5872L20.9904 22.2008L22.4248 22.1944L30.424 12.588L27.1976 12.5608L22.452 18.156L20.7384 12.5848L17.7904 12.5872Z" fill="black"/>
<path fill-rule="evenodd" clip-rule="evenodd" d="M76.6384 22.2265H79.5904L83.0112 8.06006L79.852 8.07206L76.6384 22.2265Z" fill="black"/>
<path fill-rule="evenodd" clip-rule="evenodd" d="M39.0032 22.1993L41.3184 12.6257C36.2376 12.5417 28.0256 12.5681 27.8216 18.1001C27.6416 22.9697 36.008 23.0273 36.6472 20.5121L36.2184 22.1993H39.004H39.0032ZM38.3304 14.2209C38.1128 15.7049 37.6656 17.9537 37.0096 18.7537C32.3088 24.4969 24.7544 14.5521 38.3304 14.2209Z" fill="black"/>
<path fill-rule="evenodd" clip-rule="evenodd" d="M41.5832 22.2207H44.3936C44.7408 20.7903 45.128 18.2095 45.7496 16.4135C45.9864 15.7311 48.2736 14.0983 49.7304 14.1511C51.676 14.2223 52.352 15.4063 52.1688 16.8535C51.9288 18.7551 50.868 21.1039 50.5464 22.2255L53.2512 22.1983C53.2512 22.1983 55.4736 15.2079 54.5368 14.0567C53.9944 13.3911 53.244 12.9567 52.168 12.7431C50.0544 12.3239 48.4448 12.9375 46.7344 14.0535C46.4648 14.2295 46.288 14.3519 46.288 14.3519L46.716 12.5303L43.7432 12.5039L41.5824 22.2199L41.5832 22.2207Z" fill="black" stroke="black" stroke-width="0.22" stroke-miterlimit="22.93"/>
<path fill-rule="evenodd" clip-rule="evenodd" d="M55.8096 12.8792H64.4064L63.8704 14.3256H55.2736L55.8096 12.8792Z" fill="black"/>
<path fill-rule="evenodd" clip-rule="evenodd" d="M59.5736 10.9785H61.8488C61.8488 10.9785 58.6632 19.4681 59.5992 20.1377C60.5352 20.8073 63.7248 19.8561 63.7248 19.8561V21.7177C63.7248 21.7177 57.3408 23.3529 56.9112 20.7521C56.4816 18.1521 59.5736 10.9785 59.5736 10.9785Z" fill="black"/>
<path fill-rule="evenodd" clip-rule="evenodd" d="M67.5528 15.9591L73.8736 16.0127C73.8736 16.0127 72.9496 14.1863 70.9944 14.1863C69.0392 14.1863 67.5528 15.9583 67.5528 15.9583V15.9591ZM66.7224 17.2183C66.7224 17.2183 66.7768 20.5911 70.2848 20.6055C73.7936 20.6199 75.7608 19.0311 75.7608 19.0311L75.7672 20.9159C75.7672 20.9159 72.492 22.1959 70.0232 22.1959C67.5544 22.1959 63.7224 21.1759 63.796 17.6335C63.8688 14.0903 67.7776 12.5495 71.0336 12.5591C76.844 12.5759 76.6576 17.2191 76.6576 17.2191H66.7216L66.7224 17.2183Z" fill="black" stroke="black" stroke-width="0.22" stroke-miterlimit="22.93"/>
<path fill-rule="evenodd" clip-rule="evenodd" d="M84.5192 5.38873H85.0976C85.348 5.38873 85.6272 5.48393 85.6272 5.80553C85.6272 6.17033 85.2816 6.20233 84.964 6.20233H84.5192V6.35913H85.064L85.6928 7.32553H85.892L85.2664 6.36393C85.5648 6.31593 85.8064 6.15113 85.8064 5.80953C85.8064 5.43113 85.5976 5.23193 85.1248 5.23193H84.3384V7.32553H84.5184V5.38873H84.5192Z" fill="black"/>
<path fill-rule="evenodd" clip-rule="evenodd" d="M84.9824 4.50879C85.964 4.50879 86.7544 5.29919 86.7544 6.27919C86.7544 7.25919 85.964 8.05039 84.9824 8.05039C84.0008 8.05039 83.2112 7.25999 83.2112 6.27919C83.2112 5.29839 84.0016 4.50879 84.9824 4.50879L84.9872 4.66399C84.0736 4.66399 83.392 5.36559 83.392 6.27919C83.392 7.19279 84.0832 7.89439 84.9872 7.89439C85.8912 7.89439 86.5736 7.17039 86.5736 6.27439C86.5736 5.37839 85.8968 4.66399 84.9872 4.66399L84.9824 4.50879Z" fill="black"/>
</g>
<defs>
<clipPath id="clip0_484_1438">
<rect width="86.8" height="24" fill="white"/>
</clipPath>
</defs>
</svg>
