<svg width="168" height="18" viewBox="0 0 168 18" fill="none" xmlns="http://www.w3.org/2000/svg">
<g clip-path="url(#clip0_523_1559)">
<path d="M24.1078 4.95996H29.5914C30.678 4.95996 31.4859 5.00198 32.0199 5.08607C32.5539 5.17013 33.0321 5.34763 33.45 5.6185C33.8726 5.8894 34.2208 6.24904 34.5041 6.69743C34.7826 7.1458 34.9264 7.65023 34.9264 8.2107C34.9264 8.81787 34.7548 9.37369 34.4064 9.87812C34.0581 10.3825 33.5893 10.7655 32.9996 11.0178C33.8353 11.2466 34.4762 11.6389 34.9264 12.1901C35.3769 12.7412 35.5997 13.3951 35.5997 14.1377C35.5997 14.7262 35.4559 15.296 35.1632 15.8518C34.8754 16.4076 34.4762 16.8513 33.9746 17.183C33.4731 17.5146 32.8556 17.7201 32.1174 17.7948C31.6577 17.8415 30.5432 17.8695 28.7788 17.8836H24.1078V4.95996ZM26.8751 7.10843V10.0976H28.6907C29.7679 10.0976 30.4412 10.0836 30.7011 10.0556C31.1747 10.0042 31.5463 9.85009 31.8201 9.5932C32.0895 9.33632 32.2288 9.00004 32.2288 8.58435C32.2288 8.18269 32.1126 7.8604 31.8759 7.60819C31.6438 7.35598 31.2956 7.20653 30.8312 7.15515C30.5571 7.12712 29.7679 7.1131 28.4631 7.1131H26.8751V7.10843ZM26.8751 12.2555V15.7117H29.4381C30.4365 15.7117 31.068 15.6837 31.3374 15.6323C31.7505 15.5623 32.0848 15.3894 32.3449 15.1139C32.6049 14.8383 32.7349 14.474 32.7349 14.0163C32.7349 13.6286 32.6327 13.297 32.4377 13.0261C32.238 12.7552 31.9502 12.559 31.5741 12.4329C31.1981 12.3115 30.3761 12.2461 29.1178 12.2461H26.8751V12.2555Z" fill="black"/>
<path d="M39.1007 4.99731H36.4727V17.8882H39.1007V4.99731Z" fill="black"/>
<path d="M46.7157 17.8929V16.2628C46.3534 16.7673 45.8798 17.1643 45.2901 17.4585C44.7004 17.7481 44.0783 17.8976 43.4237 17.8976C42.7549 17.8976 42.156 17.7574 41.6267 17.4772C41.0974 17.197 40.7119 16.8046 40.4751 16.3002C40.2383 15.7958 40.1177 15.0952 40.1177 14.2031V8.21069H42.7457V12.559C42.7457 13.8902 42.7922 14.7075 42.8897 15.0064C42.9872 15.3054 43.1635 15.5436 43.419 15.721C43.6744 15.8985 43.9995 15.9826 44.394 15.9826C44.8444 15.9826 45.2438 15.8658 45.6012 15.6323C45.9589 15.3988 46.2002 15.1045 46.3302 14.7589C46.4603 14.4133 46.5252 13.5586 46.5252 12.2041V8.21069H49.1535V17.8929H46.7157Z" fill="black"/>
<path d="M56.6988 14.7309L59.3176 15.142C58.9786 16.0387 58.4493 16.7206 57.7203 17.1877C56.996 17.6548 56.0859 17.893 54.9948 17.893C53.2674 17.893 51.9905 17.3652 51.1593 16.3143C50.5046 15.4689 50.175 14.404 50.175 13.1196C50.175 11.583 50.6068 10.3779 51.4657 9.5092C52.3248 8.64047 53.4159 8.20142 54.7299 8.20142C56.2066 8.20142 57.372 8.65915 58.2309 9.56991C59.0853 10.4807 59.4939 11.8772 59.4568 13.7595H52.8727C52.8913 14.4881 53.1048 15.0532 53.5089 15.4596C53.9128 15.8659 54.419 16.0667 55.0226 16.0667C55.4358 16.0667 55.7795 15.964 56.0626 15.7538C56.3458 15.5343 56.5548 15.198 56.6988 14.7309ZM56.852 12.2508C56.8333 11.5409 56.6383 10.9991 56.2623 10.6302C55.8862 10.2612 55.4311 10.0743 54.8973 10.0743C54.3215 10.0743 53.8477 10.2705 53.4763 10.6582C53.1003 11.0505 52.9192 11.5783 52.9237 12.2462H56.852V12.2508Z" fill="black"/>
<path d="M60.548 17.8929V4.95996H64.9916C66.677 4.95996 67.7728 5.02534 68.2837 5.15612C69.0684 5.3523 69.7275 5.77264 70.257 6.42186C70.7863 7.07108 71.051 7.91179 71.051 8.93931C71.051 9.73333 70.8978 10.4012 70.5913 10.943C70.2849 11.4848 69.8994 11.9098 69.4258 12.2181C68.957 12.5263 68.474 12.7319 67.991 12.8299C67.3318 12.9514 66.3705 13.0168 65.117 13.0168H63.3108V17.8976H60.548V17.8929ZM63.32 7.1458V10.8169H64.8337C65.9248 10.8169 66.6538 10.7515 67.0207 10.6161C67.3875 10.4806 67.6753 10.2705 67.8843 9.98087C68.0932 9.69128 68.1954 9.35967 68.1954 8.97668C68.1954 8.50495 68.0467 8.11729 67.7542 7.81371C67.4617 7.51011 67.0903 7.31863 66.6399 7.23921C66.3101 7.1785 65.6463 7.15048 64.6479 7.15048H63.32V7.1458Z" fill="black"/>
<path d="M73.939 11.2325L71.5523 10.8308C71.8217 9.93404 72.2813 9.27082 72.936 8.83644C73.5908 8.40676 74.5658 8.19189 75.8567 8.19189C77.0314 8.19189 77.9044 8.32267 78.4755 8.57956C79.0512 8.84112 79.4552 9.16807 79.6872 9.56506C79.9195 9.96207 80.0402 10.6954 80.0402 11.7649L80.0123 14.6327C80.0123 15.4501 80.0541 16.0479 80.1377 16.4356C80.2212 16.8232 80.4627 17.4397 80.6903 17.8834L78.0855 17.8788C78.0158 17.7153 77.8579 17.2763 77.7557 16.954C77.7139 16.8092 77.6815 16.7111 77.6629 16.6644C77.2125 17.0708 76.7342 17.379 76.2235 17.5798C75.7127 17.7854 75.1647 17.8834 74.5845 17.8834C73.563 17.8834 72.7549 17.6266 72.1652 17.1034C71.5757 16.585 71.283 15.9311 71.283 15.1371C71.283 14.614 71.4177 14.1469 71.6871 13.7359C71.9562 13.3249 72.3325 13.012 72.8153 12.7925C73.2983 12.5729 73.9947 12.3815 74.9048 12.218C76.1352 12.0031 76.9849 11.8023 77.4587 11.6155V11.3726C77.4587 10.9009 77.3331 10.5646 77.0824 10.3637C76.8317 10.1629 76.3628 10.0601 75.6709 10.0601C75.202 10.0601 74.8397 10.1442 74.575 10.317C74.3151 10.4992 74.1015 10.8028 73.939 11.2325ZM77.4587 13.3389C77.1197 13.4464 76.5902 13.5725 75.8567 13.7219C75.1277 13.8714 74.6494 14.0162 74.4265 14.161C74.0828 14.3945 73.9112 14.6887 73.9112 15.0437C73.9112 15.394 74.0505 15.6976 74.3243 15.9545C74.5984 16.2114 74.9466 16.3375 75.3737 16.3375C75.8475 16.3375 76.2977 16.188 76.7297 15.8891C77.05 15.6649 77.2542 15.3847 77.3565 15.0577C77.4261 14.8429 77.4587 14.4365 77.4587 13.834V13.3389Z" fill="black"/>
<path d="M83.871 4.97388H81.2428V17.8881H83.871V4.97388Z" fill="black"/>
<path d="M85.1897 8.43014H87.5856V9.72391C88.4445 8.71973 89.4615 8.21997 90.6454 8.21997C91.2722 8.21997 91.8201 8.34608 92.2845 8.59362C92.7488 8.84116 93.1249 9.21948 93.4221 9.72391C93.8539 9.21948 94.3183 8.84116 94.8197 8.59362C95.3211 8.34608 95.8504 8.21997 96.4217 8.21997C97.1413 8.21997 97.7543 8.36009 98.2511 8.64501C98.7525 8.92523 99.1241 9.34092 99.3701 9.88739C99.5511 10.289 99.6394 10.9429 99.6394 11.849V17.8975H97.0393V12.4843C97.0393 11.5454 96.951 10.9383 96.7699 10.6674C96.5284 10.3124 96.1616 10.1349 95.6601 10.1349C95.298 10.1349 94.9543 10.2424 94.6339 10.4572C94.3136 10.672 94.0815 10.985 93.9422 11.396C93.7982 11.807 93.7286 12.4609 93.7286 13.353V17.8975H91.1284V12.7131C91.1284 11.793 91.0819 11.1998 90.9891 10.9289C90.8961 10.6627 90.7521 10.4619 90.5571 10.3311C90.3621 10.2003 90.0975 10.1349 89.7679 10.1349C89.3685 10.1349 89.0063 10.2377 88.686 10.4479C88.3656 10.658 88.1333 10.957 87.9988 11.3493C87.8595 11.7416 87.7898 12.3908 87.7898 13.3016V17.8975H85.1897V8.43014Z" fill="black"/>
<path d="M101.251 17.8882L106.549 4.9646H107.988L113.156 17.8882H111.846L110.291 13.8341H104.153L102.56 17.8882H101.251ZM104.584 12.7925H109.864L107.226 6.00614L104.584 12.7925Z" fill="black"/>
<path d="M120.975 4.95068H122.14V17.8556H120.975V16.0247H120.938C120.771 16.333 120.553 16.5992 120.288 16.8327C120.023 17.0616 119.731 17.2578 119.415 17.4072C119.099 17.5614 118.77 17.6781 118.435 17.7622C118.096 17.8462 117.767 17.8883 117.442 17.8883C116.624 17.8883 115.933 17.7622 115.361 17.5146C114.79 17.2671 114.321 16.9261 113.95 16.4964C113.578 16.0668 113.314 15.553 113.142 14.9645C112.975 14.3713 112.891 13.7408 112.891 13.0682C112.891 12.4283 112.984 11.8165 113.165 11.2233C113.346 10.6302 113.62 10.1164 113.992 9.67266C114.363 9.22896 114.827 8.874 115.389 8.60777C115.951 8.34154 116.615 8.21076 117.381 8.21076C118.092 8.21076 118.779 8.35555 119.434 8.64514C120.088 8.9347 120.604 9.36441 120.98 9.92955V4.95068H120.975ZM120.975 13.0122C120.975 12.4937 120.896 11.9986 120.743 11.5316C120.59 11.0645 120.362 10.6582 120.074 10.3079C119.782 9.95758 119.424 9.68201 119.006 9.47651C118.584 9.27101 118.11 9.16823 117.576 9.16823C116.968 9.16823 116.443 9.27568 116.002 9.49519C115.561 9.7147 115.199 10.0136 114.916 10.392C114.632 10.7703 114.423 11.2093 114.294 11.7137C114.163 12.2182 114.112 12.7553 114.14 13.3344C114.14 13.9136 114.228 14.4274 114.4 14.8664C114.577 15.3101 114.818 15.6838 115.129 15.992C115.44 16.3003 115.803 16.5338 116.216 16.6926C116.629 16.8514 117.084 16.9308 117.576 16.9308C118.119 16.9308 118.607 16.8327 119.034 16.6272C119.461 16.4264 119.819 16.1508 120.102 15.8005C120.385 15.4502 120.604 15.0392 120.752 14.5581C120.901 14.0864 120.975 13.568 120.975 13.0122Z" fill="black"/>
<path d="M123.064 8.19653H124.327L127.596 16.5056L130.861 8.19653H132.123L128.218 17.8881H126.914L123.064 8.19653Z" fill="black"/>
<path d="M134.39 4.95532H133.108V6.40788H134.39V4.95532Z" fill="black"/>
<path d="M134.329 8.18726H133.164V17.8881H134.329V8.18726Z" fill="black"/>
<path d="M136.567 14.7543C136.748 15.5483 137.078 16.1088 137.547 16.4357C138.021 16.7627 138.698 16.9261 139.581 16.9261C140.008 16.9261 140.379 16.8794 140.69 16.786C141.001 16.6926 141.257 16.5618 141.456 16.403C141.656 16.2442 141.809 16.062 141.912 15.8612C142.014 15.6604 142.065 15.4455 142.065 15.2213C142.065 14.7683 141.907 14.4367 141.586 14.2172C141.271 13.9976 140.871 13.8248 140.388 13.6987C139.91 13.5726 139.39 13.4652 138.833 13.3764C138.276 13.2877 137.756 13.1523 137.278 12.9748C136.799 12.7973 136.4 12.5404 136.08 12.2088C135.764 11.8772 135.601 11.4054 135.601 10.8029C135.601 10.0323 135.908 9.40174 136.525 8.90666C137.143 8.41624 138.011 8.1687 139.14 8.1687C140.226 8.1687 141.113 8.39291 141.795 8.83661C142.478 9.28031 142.887 10.0276 143.031 11.0692H141.846C141.744 10.3592 141.447 9.85481 140.96 9.56522C140.472 9.27564 139.859 9.13086 139.121 9.13086C138.383 9.13086 137.816 9.27564 137.431 9.56522C137.041 9.85481 136.846 10.2378 136.846 10.7142C136.846 11.1299 137.004 11.4475 137.324 11.667C137.64 11.8865 138.039 12.064 138.522 12.1995C139 12.3349 139.52 12.4563 140.077 12.5638C140.635 12.6712 141.155 12.8207 141.633 13.0168C142.111 13.213 142.51 13.4792 142.826 13.8108C143.142 14.1424 143.304 14.6048 143.304 15.198C143.304 15.637 143.202 16.0247 142.993 16.3656C142.784 16.7019 142.501 16.9868 142.139 17.211C141.777 17.4352 141.345 17.608 140.848 17.7201C140.347 17.8322 139.803 17.8883 139.204 17.8883C138.61 17.8883 138.081 17.8089 137.621 17.6501C137.161 17.4913 136.767 17.2671 136.446 16.9822C136.121 16.6973 135.871 16.3656 135.69 15.9873C135.508 15.609 135.406 15.198 135.378 14.759H136.567V14.7543Z" fill="black"/>
<path d="M148.64 17.893C147.99 17.8789 147.386 17.7762 146.824 17.5753C146.262 17.3745 145.765 17.0709 145.347 16.6693C144.925 16.2676 144.591 15.7632 144.345 15.1606C144.098 14.5581 143.973 13.8529 143.973 13.0495C143.973 12.3769 144.071 11.7464 144.266 11.1579C144.461 10.5741 144.753 10.0603 145.139 9.62129C145.529 9.18224 146.012 8.83662 146.597 8.58441C147.182 8.33219 147.86 8.20142 148.64 8.20142C149.429 8.20142 150.116 8.32752 150.701 8.58441C151.286 8.84129 151.769 9.18224 152.159 9.61195C152.549 10.0416 152.837 10.5554 153.023 11.1486C153.209 11.7418 153.306 12.3723 153.306 13.0495C153.306 13.7828 153.195 14.446 152.976 15.0392C152.758 15.6324 152.442 16.1415 152.034 16.5665C151.625 16.9915 151.133 17.3185 150.557 17.552C149.977 17.7762 149.341 17.893 148.64 17.893ZM152.062 13.0495C152.062 12.5077 151.997 11.9986 151.867 11.5222C151.737 11.0505 151.537 10.6395 151.263 10.2892C150.989 9.93889 150.641 9.66332 150.214 9.46249C149.786 9.26166 149.262 9.15889 148.64 9.15889C148.031 9.15889 147.507 9.26633 147.075 9.48584C146.638 9.70536 146.285 9.99494 146.016 10.3546C145.742 10.7142 145.542 11.1299 145.413 11.597C145.283 12.064 145.218 12.5451 145.218 13.0449C145.218 13.6147 145.292 14.1378 145.44 14.6142C145.589 15.0952 145.807 15.5063 146.09 15.8472C146.374 16.1929 146.731 16.4544 147.158 16.6459C147.585 16.8374 148.078 16.9308 148.635 16.9308C149.243 16.9308 149.763 16.8234 150.2 16.6039C150.636 16.3843 150.989 16.0901 151.258 15.7258C151.532 15.3615 151.732 14.9458 151.862 14.4834C151.997 14.021 152.062 13.5446 152.062 13.0495Z" fill="black"/>
<path d="M155.451 17.8929H154.286V8.21069H155.451V10.2564H155.488C155.813 9.50446 156.231 8.98602 156.742 8.68709C157.253 8.39286 157.931 8.24339 158.776 8.24339V9.42038C158.116 9.40637 157.568 9.50446 157.141 9.70996C156.714 9.91546 156.375 10.1957 156.12 10.546C155.869 10.8963 155.693 11.312 155.595 11.7884C155.498 12.2648 155.451 12.7645 155.451 13.283V17.8929Z" fill="black"/>
<path d="M160.396 14.7589C160.577 15.5529 160.907 16.1134 161.376 16.4403C161.85 16.7673 162.528 16.9307 163.41 16.9307C163.837 16.9307 164.208 16.884 164.519 16.7906C164.831 16.6972 165.086 16.5664 165.286 16.4076C165.485 16.2488 165.639 16.0667 165.741 15.8658C165.843 15.665 165.894 15.4502 165.894 15.2259C165.894 14.7776 165.736 14.4413 165.416 14.2218C165.1 14.0022 164.701 13.8294 164.218 13.708C163.739 13.5819 163.219 13.4745 162.662 13.3857C162.105 13.297 161.585 13.1615 161.107 12.9841C160.628 12.8066 160.229 12.5497 159.909 12.2181C159.593 11.8865 159.43 11.4194 159.43 10.8122C159.43 10.0416 159.737 9.41102 160.354 8.91596C160.972 8.42552 161.84 8.17798 162.969 8.17798C164.055 8.17798 164.942 8.40219 165.625 8.84589C166.307 9.28959 166.716 10.0369 166.86 11.0784H165.676C165.573 10.3685 165.276 9.86409 164.789 9.5745C164.301 9.28494 163.688 9.14014 162.95 9.14014C162.212 9.14014 161.645 9.28494 161.26 9.5745C160.87 9.86409 160.675 10.2471 160.675 10.7235C160.675 11.1392 160.833 11.4568 161.153 11.6763C161.469 11.8958 161.868 12.0733 162.351 12.2087C162.829 12.3442 163.349 12.4656 163.906 12.573C164.464 12.6805 164.984 12.8299 165.462 13.0261C165.94 13.2223 166.339 13.4838 166.655 13.8201C166.971 14.1517 167.134 14.6141 167.134 15.2073C167.134 15.6463 167.031 16.034 166.823 16.3749C166.614 16.7112 166.33 16.9961 165.968 17.2203C165.606 17.4445 165.174 17.6126 164.677 17.7294C164.176 17.8415 163.633 17.8975 163.034 17.8975C162.439 17.8975 161.91 17.8181 161.45 17.6594C160.99 17.5005 160.596 17.2764 160.275 16.9914C159.951 16.7065 159.7 16.3749 159.519 15.9966C159.337 15.6183 159.235 15.2073 159.208 14.7682H160.396V14.7589Z" fill="black"/>
<path d="M20.8761 9.88746C20.8946 9.86877 20.8946 9.84541 20.8807 9.82673C20.8668 9.80804 20.8482 9.80337 20.8203 9.81738C18.2294 11.6109 15.9171 13.8061 13.9809 16.3236C13.9623 16.3469 13.9344 16.3469 13.9251 16.3189C13.6558 15.6043 13.3587 14.9084 13.0429 14.2218C13.0383 14.2124 13.0383 14.1984 13.0429 14.1844C15.0488 10.6348 17.714 7.53346 20.8668 5.04402L20.8714 5.03935C20.89 5.02066 20.89 4.99731 20.8761 4.97864C20.8621 4.96463 20.8482 4.95528 20.825 4.96463C17.5004 7.00101 14.6309 9.68661 12.4207 12.8533C12.4021 12.8767 12.3789 12.8767 12.365 12.8533C12.0168 12.1854 11.6453 11.5315 11.2553 10.8963C11.246 10.8823 11.246 10.8636 11.2553 10.8496C13.7394 6.64137 17.0222 3.01696 20.8761 0.191249C20.8946 0.167896 20.8946 0.144543 20.8807 0.12586C20.8668 0.107178 20.8482 0.102507 20.8296 0.111848C16.7296 2.38645 13.1776 5.64186 10.4752 9.59787C10.4613 9.62123 10.4334 9.62123 10.4195 9.59787C7.73104 5.66521 4.22074 2.43314 0.15326 0.163225C0.13933 0.153884 0.106827 0.135201 0.0696811 0.111848C0.0511081 0.102507 0.0278919 0.107178 0.00931894 0.12586C-0.00461079 0.144543 -0.00461079 0.172566 0.0139622 0.186578C0.0557514 0.214601 0.0882541 0.242626 0.106827 0.256638C3.92822 3.07302 7.16455 6.6694 9.63012 10.8496C9.6394 10.8636 9.6394 10.8823 9.63477 10.8916C9.24473 11.5268 8.86864 12.1854 8.52038 12.8533C8.50645 12.8767 8.4786 12.8767 8.46467 12.8533C6.25448 9.68193 3.39424 7.00568 0.0650379 4.96463C0.0464649 4.95528 0.0186054 4.95996 0.00931894 4.97397C-0.00461079 4.99263 -0.00461079 5.01599 0.0139622 5.03468L0.0186054 5.03935C3.17136 7.52879 5.84123 10.6254 7.85177 14.1751C7.8564 14.1844 7.8564 14.1984 7.85177 14.2124C7.53602 14.899 7.23422 15.6043 6.9649 16.3189C6.9556 16.3469 6.92312 16.3469 6.90454 16.3236C4.9683 13.8014 2.66989 11.6156 0.0789676 9.82206C0.0603946 9.80804 0.0278919 9.80804 0.0139622 9.82673C-0.00461079 9.85008 0.00467569 9.87811 0.0186054 9.89213C2.56774 12.1667 4.73614 14.843 6.417 17.8695C6.42165 17.8835 6.44485 17.8929 6.45878 17.8929H8.01428C8.03284 17.8929 8.03749 17.8882 8.04677 17.8742C8.26037 17.2437 8.48787 16.6225 8.73398 16.006C8.74791 15.9733 8.79897 15.9779 8.8129 16.006C9.11007 16.6178 9.37939 17.225 9.63477 17.8602C9.6394 17.8742 9.66263 17.8929 9.67656 17.8929H11.2367C11.2506 17.8929 11.2599 17.8789 11.2645 17.8649C11.5199 17.2297 11.7939 16.6085 12.091 15.9966C12.105 15.9639 12.156 15.9639 12.1653 15.9966C12.4114 16.6131 12.639 17.2297 12.8479 17.8602C12.8525 17.8789 12.8711 17.8882 12.8897 17.8882H14.4405C14.4544 17.8882 14.473 17.8742 14.4777 17.8602C16.1585 14.8383 18.3223 12.162 20.8761 9.88746ZM10.4148 16.104C10.113 15.5109 9.78334 14.9224 9.44438 14.3572C9.43975 14.3479 9.4351 14.3339 9.44438 14.3199C9.7462 13.652 10.0712 12.9981 10.4102 12.3535C10.4241 12.3255 10.4659 12.3255 10.4798 12.3535C10.8188 12.9981 11.1438 13.6566 11.4456 14.3199C11.4503 14.3339 11.4503 14.3386 11.4456 14.3526C11.102 14.9177 10.777 15.5062 10.4752 16.0994C10.4613 16.1274 10.4334 16.1321 10.4148 16.104Z" fill="black"/>
</g>
<defs>
<clipPath id="clip0_523_1559">
<rect width="167.143" height="18" fill="white"/>
</clipPath>
</defs>
</svg>
