<svg width="74" height="24" viewBox="0 0 74 24" fill="none" xmlns="http://www.w3.org/2000/svg">
<path d="M34.6636 4.87695H39.0723C43.5086 4.87695 47.0356 7.60485 47.0356 12.2065C47.0356 17.2214 44.0046 19.784 39.0723 19.784H34.6636V4.87695ZM36.7853 17.9102H39.0172C42.6819 17.9102 44.721 16.1468 44.721 12.2891C44.721 8.81725 42.3513 6.75066 39.2652 6.75066H36.7577V17.9102H36.7853Z" fill="black"/>
<path d="M51.9953 6.44746H49.7358V4.18799H51.9953V6.44746ZM49.8461 8.89982H51.8575V19.8114H49.8461V8.89982Z" fill="black"/>
<path d="M55.605 4.87695H60.0137C64.45 4.87695 67.977 7.60485 67.977 12.2065C67.977 17.2214 64.946 19.784 60.0137 19.784H55.605V4.87695ZM57.7542 17.9102H59.9861C63.6509 17.9102 65.6899 16.1468 65.6899 12.2891C65.6899 8.81725 63.3202 6.75066 60.2341 6.75066H57.7267V17.9102H57.7542Z" fill="black"/>
<path d="M72.9368 6.44746H70.6774V4.18799H72.9368V6.44746ZM70.8151 8.89982H72.8266V19.8114H70.8151V8.89982Z" fill="black"/>
<path fill-rule="evenodd" clip-rule="evenodd" d="M14.8243 18.5716C19.7841 18.4063 23.6969 14.466 23.752 9.58882V5.37298H29.2078V10.0297C29.0976 17.6072 22.512 23.559 14.8243 23.7243C6.99882 23.6692 0.358176 17.6623 0.275513 10.0297V1.68067C0.275513 0.826479 0.826603 0.275391 1.65324 0.275391H23.752V5.37298H6.42017C5.9793 5.37298 5.70375 5.64852 5.70375 6.08939V9.50616C5.75886 14.4384 9.75427 18.5165 14.8243 18.5716Z" fill="black"/>
</svg>
