<svg width="58" height="24" viewBox="0 0 58 24" fill="none" xmlns="http://www.w3.org/2000/svg">
<path d="M16.7568 23.8894H10.5024V14.7734H6.44289V23.8894H0.0216806L0 0.393168H6.44289V9.13297H10.5024V0.393168H16.7568V23.8894ZM45.4138 24C51.8633 23.9966 57.112 18.5297 57.1104 11.9464C57.1087 5.22516 51.8633 0.00511153 45.4138 4.08387e-06C38.9725 -0.00513097 35.6802 4.8337 34.868 6.78761C34.8747 3.85505 32.0427 0.39487 28.7303 0.38976H18.0578V23.8809L28.0081 23.8843C32.021 23.8843 34.8747 20.3373 34.8797 17.2958C35.7953 19.2106 38.9725 24.0017 45.4138 24ZM27.1742 14.4415C28.0949 14.4415 28.8204 15.3691 28.8204 16.4261C28.8204 17.483 28.0949 18.4123 27.1742 18.4123H24.0103V14.4415H27.1742ZM27.1859 5.62173C28.1065 5.62173 28.832 6.54932 28.832 7.60627C28.832 8.66322 28.1065 9.59081 27.1859 9.59081H24.022V5.62173H27.1859ZM31.3989 11.9515C32.1244 11.8579 33.3319 11.012 33.7589 10.4708C33.6088 11.1413 33.5971 13.0799 33.7722 13.7488C33.2869 12.9846 32.1361 12.0451 31.3989 11.9515H31.3989ZM39.558 11.9515C39.558 8.6496 42.1815 5.97234 45.4171 5.97234C48.6544 5.97234 51.2779 8.6496 51.2779 11.9515C51.2779 15.2534 48.6544 17.9306 45.4171 17.9306C42.1815 17.9306 39.558 15.2534 39.558 11.9515ZM45.4171 16.6524C47.9622 16.6524 50.0237 14.5471 50.0237 11.9515C50.0237 9.35594 47.9622 7.25055 45.4171 7.25055C42.8736 7.25055 40.8105 9.35594 40.8105 11.9515C40.8105 14.5471 42.8736 16.6524 45.4171 16.6524Z" fill="black"/>
<path d="M18.6837 1.01573V23.2551L28.0081 23.2583C28.0082 23.2583 28.0083 23.2583 28.0083 23.2583C31.6507 23.2582 34.2492 20.0165 34.2537 17.2948L35.4444 17.0257C36.3197 18.8561 39.3324 23.3756 45.4134 23.374L18.6837 1.01573ZM18.6837 1.01573H28.7298C30.1649 1.0181 31.544 1.7727 32.5808 2.91217C33.6205 4.05483 34.2449 5.50815 34.242 6.78618L35.446 7.02789C36.2072 5.19675 39.3268 0.621125 45.4133 0.625977C51.51 0.630805 56.4828 5.56332 56.4844 11.9465C56.486 18.2036 51.4984 23.3707 45.4136 23.374L18.6837 1.01573ZM0.647077 23.2634L0.626552 1.01914H5.81692V9.13297V9.75894H6.44289H10.5024H11.1284V9.13297V1.01914H16.1309V23.2634H11.1284V14.7734V14.1474H10.5024H6.44289H5.81692V14.7734V23.2634H0.647077ZM23.3843 18.4123V19.0383H24.0103H27.1742C28.5552 19.0383 29.4463 17.7018 29.4463 16.4261C29.4463 15.1496 28.5546 13.8156 27.1742 13.8156H24.0103H23.3843V14.4415V18.4123ZM23.396 9.59081V10.2168H24.022H27.1859C28.5662 10.2168 29.458 8.8827 29.458 7.60627C29.458 6.32984 28.5662 4.99576 27.1859 4.99576H24.022H23.396V5.62173V9.59081ZM31.3188 11.3307L31.3722 12.1618L31.32 12.5725C31.5168 12.5975 31.8784 12.7687 32.296 13.0931C32.696 13.4037 33.0495 13.7785 33.2438 14.0844L34.3778 13.5903C34.3129 13.3424 34.2698 12.7642 34.2695 12.1102C34.2693 11.4621 34.311 10.8699 34.3697 10.6075L33.2674 10.0831C33.1128 10.2791 32.7661 10.5825 32.3489 10.8547C31.9205 11.134 31.5356 11.3027 31.3188 11.3307ZM45.4171 5.34637C41.8239 5.34637 38.932 8.31591 38.932 11.9515C38.932 15.5871 41.8239 18.5566 45.4171 18.5566C49.0119 18.5566 51.9039 15.5872 51.9039 11.9515C51.9039 8.3158 49.0119 5.34637 45.4171 5.34637ZM49.3977 11.9515C49.3977 14.2135 47.6045 16.0265 45.4171 16.0265C43.2313 16.0265 41.4365 14.2134 41.4365 11.9515C41.4365 9.68963 43.2313 7.87653 45.4171 7.87653C47.6045 7.87653 49.3977 9.68948 49.3977 11.9515Z" stroke="white" stroke-opacity="0.1" stroke-width="1.25195"/>
</svg>
