<svg width="82" height="24" viewBox="0 0 82 24" fill="none" xmlns="http://www.w3.org/2000/svg">
<path d="M64.7858 20.0201C64.5347 20.4811 64.2298 20.9119 63.8773 21.304C63.407 21.8161 62.8569 22.252 62.2473 22.5954C61.2146 23.1684 60.0789 23.541 58.9022 23.693C57.8566 23.8447 56.7913 23.8055 55.7603 23.5774C54.2133 23.2265 53.2445 22.2967 52.824 20.8044C52.5508 19.8358 52.482 18.845 52.4788 17.8491C52.4697 15.3564 52.4736 12.8644 52.4749 10.3724C52.4749 10.0946 52.4048 9.8601 52.1407 9.71583C52.0417 9.66115 51.9299 9.63288 51.8163 9.63384C51.5619 9.63384 51.3082 9.63384 51.0538 9.63384C50.9723 9.6357 50.8913 9.62173 50.8154 9.59274C50.7394 9.56376 50.6701 9.52032 50.6114 9.46496C50.5527 9.40959 50.5058 9.34338 50.4733 9.27015C50.4409 9.19693 50.4236 9.11814 50.4224 9.03833C50.4142 8.30786 50.4142 7.5776 50.4224 6.84756C50.4276 6.4999 50.706 6.25077 51.0668 6.24505C51.2887 6.24123 51.51 6.24505 51.7319 6.24505C52.2212 6.24505 52.4736 5.99909 52.4736 5.52369C52.4736 3.96276 52.4814 2.40183 52.4684 0.840898C52.4645 0.362323 52.6514 0.148137 53.1978 0.0877591C53.295 0.0817186 53.3924 0.0804461 53.4898 0.0839459L58.0788 0.0515318C58.1489 0.0507658 58.219 0.0452477 58.2884 0.0350105C58.3726 0.0215857 58.4587 0.0247606 58.5416 0.0443515C58.6246 0.0639424 58.7027 0.0995552 58.7714 0.1491C58.8401 0.198645 58.8981 0.261123 58.9418 0.332878C58.9855 0.404633 59.0142 0.484221 59.0262 0.566972C59.0381 0.651189 59.0435 0.736175 59.0424 0.821196C59.0424 2.38213 59.0424 3.94284 59.0424 5.50335C59.0424 6.01752 59.2779 6.24632 59.8068 6.24632H62.612C63.0662 6.24632 63.3296 6.50054 63.3309 6.94226C63.3309 7.55112 63.3342 8.15935 63.3309 8.76758C63.3309 9.27602 62.9591 9.63575 62.4407 9.63639H59.7497C59.3006 9.63639 59.043 9.88743 59.043 10.3222C59.043 12.8513 59.045 15.3804 59.0489 17.9094C59.0489 18.3759 59.0904 18.8405 59.2435 19.2867C59.5226 20.0964 60.152 20.404 60.9956 20.1568C61.7931 19.9216 62.4407 19.4532 63.0467 18.9174C63.3193 18.6759 63.5704 18.4128 63.8254 18.1548C63.8567 18.1268 63.8786 18.0903 63.8885 18.0499C63.8983 18.0096 63.8955 17.9673 63.8806 17.9285C63.3614 16.0428 63.3309 14.1469 63.9 12.2752C64.7968 9.32306 66.7889 7.42337 69.8322 6.62893C71.6804 6.13435 73.6361 6.18097 75.4575 6.76303C78.1453 7.61404 79.9589 9.36882 80.8129 12.0077C81.5916 14.4145 81.5202 16.8163 80.4884 19.1532C79.866 20.5812 78.8115 21.7879 77.4672 22.6107C75.8865 23.5952 74.1409 23.9917 72.2825 23.9727C71.0683 23.9717 69.8652 23.7464 68.7363 23.3085C67.1237 22.673 65.8409 21.644 64.9078 20.2045C64.8734 20.1485 64.837 20.0964 64.7858 20.0201ZM71.5142 10.4785C70.5804 10.5204 69.6324 10.9672 68.9913 11.9403C68.4838 12.7106 68.3897 13.5718 68.4773 14.4577C68.6039 15.7473 69.0932 16.9135 69.8128 17.9902C70.3319 18.763 71.0061 19.3471 71.9133 19.656C73.2227 20.1009 74.8203 19.5549 75.5542 18.4045C76.0733 17.5891 76.2187 16.6936 76.0688 15.7663C75.8177 14.2111 75.1895 12.8059 74.1279 11.613C73.505 10.917 72.7289 10.4728 71.5142 10.4785Z" fill="black"/>
<path d="M8.20259 11.6513C8.20259 8.83664 8.20259 6.02197 8.20259 3.20729C8.20259 2.82151 8.09618 2.7052 7.701 2.648C7.4343 2.60923 7.1676 2.56729 6.90156 2.52407C6.80331 2.51405 6.7125 2.46824 6.64712 2.39573C6.58174 2.32321 6.54656 2.22929 6.54856 2.13257C6.54293 1.55633 6.54293 0.979661 6.54856 0.402575C6.54873 0.303238 6.58708 0.207606 6.65598 0.134708C6.72487 0.0618102 6.81927 0.0169892 6.92037 0.00916377C6.98499 0.00202166 7.05002 -0.000951622 7.11504 0.000265028H17.3443C17.7583 0.000265028 17.903 0.140723 17.903 0.54049C17.903 1.04343 17.903 1.54594 17.903 2.04804C17.903 2.3423 17.7596 2.49292 17.4585 2.52661C17.0458 2.57491 16.6331 2.62258 16.221 2.6766C15.9446 2.71283 15.82 2.86092 15.8174 3.13738C15.8174 3.19586 15.8174 3.25369 15.8174 3.31216C15.8174 7.24796 15.8174 11.1842 15.8174 15.1208C15.8174 16.3208 15.7 17.5061 15.3392 18.6596C14.9089 20.035 14.1712 21.2108 12.9941 22.0974C12.1875 22.705 11.2777 23.1143 10.3044 23.3869C8.54586 23.8845 6.7575 23.9316 4.95357 23.7123C4.00293 23.5966 3.08344 23.3704 2.2282 22.9312C1.40994 22.5105 0.73184 21.9423 0.346395 21.0995C-0.107834 20.1087 -0.0974515 19.0956 0.273069 18.087C0.727297 16.8565 1.69415 16.3303 2.97054 16.2712C3.90235 16.228 4.74657 16.4714 5.44997 17.0974C5.97363 17.5633 6.29354 18.1493 6.48302 18.809C6.62123 19.2863 6.71013 19.7769 6.87236 20.2485C6.92232 20.3934 6.98137 20.5358 7.04042 20.6775C7.07837 20.7654 7.13076 20.8465 7.19551 20.9178C7.51476 21.2762 7.95601 21.219 8.16236 20.7906C8.26349 20.567 8.30908 20.3231 8.29539 20.0788C8.27592 19.3073 8.24932 18.5351 8.2305 17.7628C8.17275 15.7246 8.20065 13.6876 8.20259 11.6513Z" fill="black"/>
<path d="M42.0101 24C40.9952 23.9701 40.2231 23.9364 39.4574 23.822C38.4996 23.6816 37.5717 23.4471 36.732 22.9469C35.2908 22.087 35.0734 20.4981 35.5497 19.4437C36.0039 18.4376 37.0804 17.8001 38.2154 17.8319C39.8065 17.8758 40.7746 18.8342 41.2152 20.2038C41.2769 20.3945 41.3288 20.5902 41.3963 20.7796C41.6325 21.4387 42.11 21.773 42.8238 21.7469C43.4844 21.7222 44.1015 21.5442 44.6453 21.159C44.8965 20.9826 45.0992 20.7478 45.2351 20.4758C45.509 19.9318 45.4019 19.4183 44.9321 19.0185C44.5291 18.6759 44.0496 18.4719 43.5564 18.2927C42.8712 18.0448 42.1561 17.8955 41.4586 17.6895C40.4022 17.3768 39.3594 17.0279 38.4263 16.4292C37.0921 15.5729 36.3682 14.3654 36.2544 12.8065C36.1804 11.817 36.2791 10.8522 36.6716 9.9281C37.144 8.81841 37.9545 8.00935 39.0174 7.43162C39.9194 6.94161 40.8921 6.65751 41.9044 6.48464C42.8967 6.31947 43.9031 6.24838 44.9094 6.27236C45.9249 6.29143 46.921 6.41282 47.8612 6.83165C49.0208 7.34963 49.6444 8.22099 49.6665 9.47685C49.6801 10.2287 49.342 10.8115 48.6788 11.184C47.9041 11.6187 47.0676 11.7649 46.1981 11.5017C45.496 11.2901 44.9801 10.8331 44.62 10.2116C44.4649 9.94526 44.3338 9.66561 44.1911 9.39232C44.085 9.18891 43.9543 8.99877 43.8017 8.82604C43.5558 8.54703 43.2443 8.45169 42.8972 8.5769C42.21 8.82413 41.7064 9.27983 41.443 9.95415C41.2438 10.4626 41.443 10.9641 41.9089 11.2628C42.2665 11.4813 42.6541 11.6489 43.06 11.7604C44.0619 12.0591 45.0878 12.2689 46.0865 12.5822C46.9768 12.8593 47.8314 13.2069 48.5854 13.758C49.2236 14.2205 49.7215 14.8442 50.0259 15.5623C50.61 16.9243 50.5892 18.3175 50.1771 19.7106C49.8086 20.9582 49.0091 21.902 47.906 22.5992C46.8937 23.2348 45.7646 23.5678 44.5966 23.7795C43.6583 23.9485 42.7135 23.9758 42.0101 24Z" fill="black"/>
<path d="M35.1482 14.0975C35.1767 15.8719 34.8997 17.5854 34.1216 19.2042C33.4345 20.6323 32.4598 21.8284 31.1114 22.7029C30.0883 23.3672 28.9169 23.7803 27.6963 23.9073C26.0993 24.0802 24.5673 23.8571 23.1248 23.1529C21.9178 22.5631 20.9185 21.7191 20.0646 20.6984C18.8713 19.2701 18.0024 17.6091 17.5157 15.8262C17.4138 15.4595 17.275 15.1029 17.2153 14.7254C17.1108 14.0733 17.2354 13.7956 17.835 13.5045C18.3612 13.2503 18.8868 12.9871 19.4572 12.8276C19.7063 12.7562 19.9669 12.7312 20.2255 12.7539C20.5928 12.7863 20.8471 12.97 21.0087 13.2897C21.1528 13.5744 21.2469 13.8788 21.3753 14.1693C21.9263 15.4156 22.7776 16.4014 24.0358 17.0032C24.8367 17.393 25.7477 17.5094 26.6239 17.3338C27.5001 17.1581 28.2912 16.7006 28.8714 16.034C29.3613 15.462 29.5638 14.775 29.6436 14.0479C29.763 12.9509 29.6189 11.8749 29.3691 10.8065C29.2711 10.3845 29.1835 9.95998 29.1167 9.53098C29.0369 9.013 29.1569 8.76068 29.628 8.51917C30.0765 8.28507 30.5429 8.08574 31.0231 7.92302C31.6818 7.70502 32.3437 7.49338 33.0042 7.27983C33.5156 7.11522 33.8407 7.28682 33.9983 7.78447C34.3085 8.7645 34.5875 9.7547 34.8056 10.7551C34.9697 11.5114 35.0405 12.2804 35.0969 13.052C35.119 13.3996 35.1307 13.7492 35.1482 14.0975Z" fill="black"/>
<path d="M24.8469 5.31724C24.8651 4.55457 24.9267 3.79508 25.2966 3.10041C25.5562 2.61357 25.9202 2.22398 26.4555 2.01996C27.2446 1.72125 28.1329 1.92208 28.5028 2.87542C28.5735 3.05846 28.6365 3.24341 28.6975 3.429C28.7916 3.70673 28.9071 3.80271 29.2095 3.78427C29.5449 3.7633 29.8772 3.74296 30.2068 3.82495C30.661 3.93744 31.0504 4.14718 31.2924 4.56029C31.6032 5.09416 31.4527 5.71129 30.9193 6.16317C30.5112 6.50891 30.0284 6.73517 29.5651 6.99638C28.5534 7.56394 27.5171 8.08764 26.5152 8.66981C26.27 8.81218 26.0136 8.94056 25.7126 8.93611C25.5984 8.93872 25.4859 8.90795 25.3897 8.84773C25.2934 8.78751 25.2176 8.70057 25.172 8.59799C25.0351 8.32788 25.0143 8.02599 24.9774 7.73681C24.8683 6.93474 24.8794 6.1244 24.8469 5.31724Z" fill="black"/>
<path d="M20.4415 11.1623C19.0406 11.1706 17.8765 10.4441 17.3963 9.29694C17.0861 8.55524 17.1971 7.83516 17.526 7.13604C17.7285 6.69941 17.9861 6.2952 18.3845 6.0003C18.9387 5.59036 19.5668 5.46198 20.2177 5.68633C21.2267 6.03462 22.0599 6.63967 22.6374 7.53327C22.9412 8.0012 23.07 8.55784 23.0017 9.10833C22.9334 9.65881 22.6724 10.1691 22.263 10.5522C21.899 10.889 21.4454 11.0543 20.9542 11.1273C20.7846 11.1528 20.6131 11.1645 20.4415 11.1623Z" fill="black"/>
</svg>
