<svg width="76" height="24" viewBox="0 0 76 24" fill="none" xmlns="http://www.w3.org/2000/svg">
<path d="M25.712 20.1136C25.712 20.7034 25.2059 21.1699 24.6249 21.1919C24.0308 21.1699 23.5378 20.7034 23.5378 20.1136V0.686523H17.1428V22.0986C17.1428 23.1461 17.9879 23.9999 19.0222 23.9999H30.2233C31.2708 23.9999 32.1203 23.1461 32.1203 22.0986V0.686523H25.712V20.1136Z" fill="#1A1A18"/>
<path d="M55.7506 0.686523H36.3719C35.2276 0.686523 34.2946 1.61079 34.2946 2.77712V23.9999H40.6896V4.52881C40.7028 3.94345 41.1913 3.45931 41.7811 3.45931C42.3708 3.45931 42.8594 3.92144 42.8726 4.52001V23.9999H49.2544V4.52001C49.2632 3.91704 49.7429 3.45931 50.3415 3.45931C50.9401 3.45931 51.4198 3.93904 51.433 4.52881V23.9999H57.8324V2.77712C57.8324 1.61079 56.9126 0.686523 55.7594 0.686523H55.7506Z" fill="#1A1A18"/>
<path d="M12.9045 0.686523H0V23.9999H6.39061V18.1419H12.8736C14.0268 18.1419 14.9642 17.2044 14.9642 16.0469V2.77712C14.9642 1.61079 14.0708 0.686523 12.9045 0.686523ZM8.57363 14.1543C8.57363 14.8101 8.04988 15.2635 7.48212 15.2635H6.38621V3.46811H7.48212C8.04108 3.46811 8.57363 3.92144 8.57363 4.56402V14.1587V14.1543Z" fill="#1A1A18"/>
<path d="M72.889 0.686523H62.0884C60.9353 0.686523 60.0066 1.61079 60.0066 2.77712V23.9999H66.406V18.1463H68.5758V23.9999H74.9796V2.77712C74.9796 1.61079 74.0466 0.686523 72.889 0.686523ZM68.5758 15.2591H66.3884V4.53761C66.4104 3.94344 66.8945 3.46811 67.4843 3.46811C68.0741 3.46811 68.5538 3.93024 68.5758 4.52441V15.2591Z" fill="#1A1A18"/>
</svg>
