<svg width="81" height="24" viewBox="0 0 81 24" fill="none" xmlns="http://www.w3.org/2000/svg">
<g clip-path="url(#clip0_522_1524)">
<path d="M31.8538 6.4035C32.2207 6.4035 33.823 6.28455 35.7721 7.75355C35.8595 7.81948 35.8767 7.94417 35.8137 8.03302L34.8778 9.34438C34.8104 9.43897 34.68 9.4576 34.5883 9.38738C34.4163 9.25409 34.1225 9.04341 33.7786 8.86713C33.2254 8.5848 32.4901 8.34546 31.8552 8.34546C31.2203 8.34546 30.2013 8.55327 30.2013 9.55219C30.2013 10.3562 30.9122 10.6586 33.105 11.1989C34.5324 11.5701 36.1978 12.2552 36.1978 14.4422C36.1978 16.4544 34.5252 17.7227 32.2193 17.7227C30.8291 17.7227 28.923 17.1953 27.7133 15.9757C27.6403 15.9012 27.6374 15.7822 27.7062 15.7034L28.7581 14.4637C28.8327 14.3763 28.9659 14.3677 29.0505 14.4465C29.4504 14.8206 30.6198 15.7679 32.2135 15.7679C34.1125 15.7679 34.0365 14.6242 34.0365 14.4537C34.0365 14.0896 33.7728 13.5794 32.8355 13.3157C31.8982 13.052 29.5478 12.612 28.6678 11.5873C28.1275 10.9467 28.0516 10.2358 28.0516 9.70124C28.0516 8.49451 28.8312 6.40063 31.8552 6.40063L31.8538 6.4035Z" fill="black"/>
<path d="M41.6482 9.02319C39.9556 9.02319 39.0412 10.2686 39.0412 10.2686V9.40585C39.0412 9.29406 38.951 9.20234 38.8377 9.20234H37.1007C36.9889 9.20234 36.8972 9.29263 36.8972 9.40585V19.8351C36.8972 19.9469 36.9875 20.0386 37.1007 20.0386H38.8449C38.9567 20.0386 39.0484 19.9483 39.0484 19.8351V16.5861C39.0484 16.5861 39.8969 17.724 41.7399 17.724C43.2018 17.724 45.5579 16.5502 45.5579 13.4087C45.5579 10.2672 43.3422 9.02319 41.6496 9.02319H41.6482ZM41.1968 15.8695C40.0144 15.8695 39.0112 14.8419 39.0112 13.3729C39.0112 12.4772 39.573 10.9121 41.1724 10.9121C42.7718 10.9121 43.3823 12.202 43.3823 13.3729C43.3823 14.5438 42.7374 15.8695 41.1968 15.8695Z" fill="black"/>
<path d="M50.5725 9.02319C47.838 9.02319 46.1411 11.2719 46.1411 13.3915C46.1411 15.7147 47.944 17.7455 50.5897 17.7455C53.2353 17.7455 55.0383 15.6559 55.0383 13.3915C55.0383 11.1271 53.307 9.02319 50.5711 9.02319H50.5725ZM50.5897 15.8695C49.4732 15.8695 48.2551 14.9351 48.2551 13.3844C48.2551 11.8337 49.3543 10.9136 50.5897 10.9136C51.5385 10.9136 52.8885 11.6989 52.8885 13.3844C52.8885 15.0698 51.7061 15.8695 50.5897 15.8695Z" fill="black"/>
<path d="M60.5087 10.8649V9.38442C60.5087 9.27263 60.4184 9.18091 60.3052 9.18091H58.3231V7.17446C58.3231 7.06267 58.2328 6.97095 58.1196 6.97095H56.4113C56.2995 6.97095 56.2078 7.06124 56.2078 7.17446V9.18091H55.3722C55.2604 9.18091 55.1687 9.2712 55.1687 9.38442V10.8649C55.1687 10.9767 55.259 11.0684 55.3722 11.0684H56.2078V15.2604C56.2078 16.2035 56.6377 17.6969 58.5123 17.6969C59.3751 17.6969 60.1117 17.3945 60.3898 17.2655C60.4614 17.2325 60.5073 17.1608 60.5073 17.0806V15.6302C60.5073 15.4998 60.3611 15.421 60.2536 15.4955C60.0573 15.6302 59.7377 15.7735 59.2647 15.7735C58.369 15.7735 58.3217 15.1644 58.3217 14.7345V11.0684H60.3038C60.4156 11.0684 60.5073 10.9781 60.5073 10.8649H60.5087Z" fill="black"/>
<path d="M62.4507 8.16482C63.1797 8.16482 63.7706 7.57385 63.7706 6.84486C63.7706 6.11587 63.1797 5.5249 62.4507 5.5249C61.7217 5.5249 61.1307 6.11587 61.1307 6.84486C61.1307 7.57385 61.7217 8.16482 62.4507 8.16482Z" fill="black"/>
<path d="M63.302 9.18091H61.5922C61.4798 9.18091 61.3887 9.27202 61.3887 9.38442V17.35C61.3887 17.4624 61.4798 17.5535 61.5922 17.5535H63.302C63.4144 17.5535 63.5055 17.4624 63.5055 17.35V9.38442C63.5055 9.27202 63.4144 9.18091 63.302 9.18091Z" fill="black"/>
<path d="M65.3945 11.0683H64.5705C64.4587 11.0683 64.3669 10.978 64.3669 10.8648V9.38434C64.3669 9.27255 64.4572 9.18082 64.5705 9.18082H65.3945V8.64338C65.3945 8.28509 65.4547 6.02783 67.9857 6.02783C69.2397 6.02783 69.6482 6.30873 69.6482 6.30873V7.83077C69.6482 7.98269 69.5937 8.10881 69.4332 8.04575C69.2727 7.98269 68.7969 7.858 68.4128 7.858C68.0287 7.858 67.4984 8.08158 67.4984 8.76234V9.18082H70.6013C70.6858 9.18082 70.7604 9.23242 70.7904 9.31124L72.9617 14.9264L74.9123 9.32987C74.9409 9.24818 75.0183 9.19372 75.1043 9.19372H77.0119C77.1022 9.19372 77.1652 9.28401 77.1323 9.36714C76.6851 10.5251 74.1498 17.0848 73.823 17.9175C73.4648 18.8318 72.8557 20.0758 71.1086 20.0758C70.0954 20.0758 69.4418 19.7362 69.1695 19.5585C69.085 19.5026 69.0534 19.3937 69.0964 19.3019L69.7184 17.9676C69.7442 17.9117 69.813 17.8902 69.866 17.9232C70.0438 18.0321 70.4494 18.2442 70.9209 18.2442C71.6145 18.2442 71.9241 17.4245 71.9241 17.4245L69.2641 11.0683H67.5128V17.3657C67.5128 17.4775 67.4225 17.5692 67.3093 17.5692H65.5923C65.4805 17.5692 65.3888 17.4775 65.3888 17.3657L65.3931 11.0683H65.3945Z" fill="black"/>
<path d="M78.1755 9.76147H78.809C78.9853 9.76147 79.1214 9.81164 79.2132 9.90193C79.2906 9.97932 79.3321 10.0882 79.3321 10.2187V10.223C79.3321 10.4465 79.2117 10.587 79.0354 10.6529L79.3737 11.1488H79.0168L78.7202 10.7045H78.4808V11.1488H78.1755V9.76147ZM78.7904 10.4351C78.9394 10.4351 79.024 10.3562 79.024 10.2387V10.2344C79.024 10.104 78.9323 10.0366 78.7846 10.0366H78.4808V10.4351H78.7904Z" fill="black"/>
<path d="M78.7287 11.7966C78.0064 11.7966 77.4188 11.209 77.4188 10.4867C77.4188 9.76436 78.0064 9.17676 78.7287 9.17676C79.4511 9.17676 80.0387 9.76436 80.0387 10.4867C80.0387 11.209 79.4511 11.7966 78.7287 11.7966ZM78.7287 9.32151C78.0853 9.32151 77.5621 9.84462 77.5621 10.4881C77.5621 11.1316 78.0853 11.6547 78.7287 11.6547C79.3722 11.6547 79.8953 11.1316 79.8953 10.4881C79.8953 9.84462 79.3722 9.32151 78.7287 9.32151Z" fill="black"/>
<path fill-rule="evenodd" clip-rule="evenodd" d="M24 12C24 18.6274 18.6274 24 12 24C5.37258 24 0 18.6274 0 12C0 5.37258 5.37258 0 12 0C18.6274 0 24 5.37258 24 12ZM16.4128 17.5951C16.5403 17.6724 16.6808 17.7083 16.8184 17.7083C17.0864 17.7083 17.3472 17.5721 17.4948 17.3256C17.7184 16.953 17.598 16.4686 17.2254 16.2436C11.8854 13.0318 5.82446 14.8276 5.56935 14.905C5.15373 15.0325 4.92012 15.4711 5.04624 15.8881C5.17236 16.3052 5.61378 16.5402 6.0294 16.4141C6.0853 16.3969 11.6876 14.7531 16.4128 17.5951ZM18.1748 14.4723C18.0174 14.4721 17.8586 14.432 17.7126 14.3476C11.7764 10.9337 5.79576 12.9216 5.73556 12.9416C5.24828 13.1079 4.71944 12.8499 4.55176 12.3626C4.38551 11.8753 4.64492 11.3465 5.13076 11.1788C5.40737 11.0842 11.9785 8.90149 18.6399 12.7324C19.0856 12.9889 19.239 13.5579 18.9824 14.005C18.8106 14.3043 18.497 14.472 18.1748 14.4723ZM19.1186 10.6685C19.2877 10.7574 19.4711 10.8004 19.6503 10.8004V10.799C20.063 10.799 20.4615 10.5754 20.6664 10.1856C20.9617 9.62518 20.7452 8.93152 20.1849 8.63772C12.5045 4.60476 4.80974 6.95947 4.48584 7.06123C3.88247 7.25184 3.54711 7.89677 3.73772 8.50014C3.92833 9.1035 4.57326 9.43887 5.17663 9.24825L5.17667 9.24824C5.24954 9.22594 12.2765 7.07481 19.1186 10.6685Z" fill="black"/>
</g>
<defs>
<clipPath id="clip0_522_1524">
<rect width="80.0373" height="24" fill="white"/>
</clipPath>
</defs>
</svg>
