<svg width="109" height="40" viewBox="0 0 109 40" fill="none" xmlns="http://www.w3.org/2000/svg">
<path d="M48.75 35.9952C48.75 36.6665 48.2638 39.0971 44.1203 39.0971H39.7453V28.8193C39.7453 28.0786 39.2129 27.3378 38.287 27.2221V27.1295H44.1203C47.7777 27.0832 48.2175 29.7221 48.2175 30.2545C48.2175 31.898 47.1296 32.6619 46.1342 33.0091C47.3148 33.2638 48.75 34.0045 48.75 35.9952ZM41.5509 32.6388H44.2129C45.1851 32.6388 46.4583 31.898 46.4583 30.324C46.4583 28.6341 45.3703 27.6851 43.8657 27.6851H41.5509V32.6388ZM46.7592 35.9027C46.7592 33.4258 44.1666 33.2175 43.6805 33.2175H41.5509V38.4721H44.1435C44.1203 38.449 46.7592 38.3795 46.7592 35.9027Z" fill="black"/>
<path d="M62.0833 33.0787C62.0833 37.4074 59.4907 39.3056 56.3194 39.3056C53.125 39.3056 50.5555 37.4074 50.5555 33.0787C50.5555 28.8889 53.1481 26.875 56.3194 26.875C59.4907 26.875 62.0833 28.8657 62.0833 33.0787ZM60.1157 33.0787C60.1157 29.2361 58.4259 27.4074 56.3194 27.4074C54.2361 27.4074 52.5231 29.2593 52.5231 33.0787C52.5231 37.037 54.2361 38.75 56.3194 38.75C58.4259 38.75 60.1157 37.037 60.1157 33.0787Z" fill="black"/>
<path d="M72.1759 38.3565V39.0972H64.4907V28.7963C64.4907 28.1019 64.0509 27.5 63.0555 27.2222V27.1296H66.1342V38.3565H72.1759Z" fill="black"/>
<path d="M84.861 33.1018C84.861 39.3518 78.4027 39.074 78.2638 39.074H74.4675V28.7731C74.4675 28.0324 73.9351 27.2916 73.0092 27.199V27.1064H78.2406C78.4027 27.1527 84.861 26.7592 84.861 33.1018ZM82.8471 33.1018C82.824 27.7083 79.0277 27.7083 78.2406 27.7083H76.2267V38.449H78.2406C78.8656 38.4722 82.8934 38.449 82.8471 33.1018Z" fill="black"/>
<path d="M94.8147 38.4722V39.0972H87.2916V28.7963C87.2916 28.1019 86.8286 27.5 85.8333 27.2222V27.1296H94.8147V27.7546H89.074V32.5H93.8657V33.2408H89.074V38.4954H94.8147V38.4722Z" fill="black"/>
<path d="M107.639 27.1296V39.0972L98.9351 30.5556V39.0972H98.1944V29.8843C98.1944 28.9583 98.0555 27.5926 96.7823 27.2222V27.1296C97.9861 27.1296 98.7499 27.8241 99.1666 28.1482L106.921 35.6713V27.1296H107.639Z" fill="black"/>
<path d="M57.4074 16.1341C57.4074 16.2036 57.3611 16.273 57.2916 16.2962C56.0416 16.4814 54.8148 16.7591 53.6111 17.1527C53.6342 17.3379 53.6342 17.523 53.6574 17.7314L54.074 26.5508C54.1666 28.0323 54.2361 29.4906 54.3749 30.949C54.4212 31.6897 54.4907 32.4304 54.6064 33.148C54.7222 33.8656 54.8379 34.6064 55.0694 35.2545C55.162 35.5323 55.0231 35.8332 54.7453 35.9027C54.4675 35.9953 54.1898 35.8564 54.0972 35.5786C54.074 35.5323 54.074 35.486 54.074 35.4629L53.912 33.2175L53.75 30.9953C53.6342 29.5138 53.5648 28.0323 53.4722 26.574L52.9629 17.7545C52.9398 17.6388 52.9398 17.4999 52.9398 17.3841C52.2222 17.6388 51.5277 17.9166 50.8333 18.2175C49.7916 18.6804 48.7962 19.2129 47.824 19.7916C46.8518 20.3703 45.9259 20.9721 45.0462 21.6434C44.699 23.2869 44.3055 24.9073 43.8194 26.5277C43.3796 27.9397 42.8703 29.3517 42.1296 30.6712C41.9444 30.9953 41.7361 31.3193 41.5046 31.6203C41.2731 31.9212 40.9953 32.199 40.6944 32.4073C40.3703 32.6388 40 32.7777 39.5833 32.7777C39.1666 32.7777 38.7962 32.6388 38.4722 32.4536H38.4259C38.1944 32.2684 37.9861 32.0138 37.8472 31.736C37.7083 31.4582 37.6851 31.1573 37.662 30.8564C37.662 30.2545 37.824 29.6758 38.0324 29.1203C38.449 28.0323 39.074 27.0601 39.7685 26.1341C40.4629 25.2082 41.2268 24.3517 42.0601 23.5416C42.8009 22.824 43.5648 22.1295 44.3749 21.5045C44.6296 20.2545 44.8842 19.0045 45.1388 17.7545C45.7175 14.861 46.2731 11.9675 46.9444 9.09711C47.1064 8.37952 47.2916 7.66193 47.4768 6.94434C47.662 6.22674 47.8703 5.50915 48.1018 4.79156C48.3333 4.09711 48.5648 3.37952 48.8888 2.70822C49.0509 2.38415 49.2129 2.03693 49.3981 1.71285C49.4907 1.55082 49.6064 1.41193 49.7222 1.24989C49.8379 1.08785 49.9768 0.948966 50.1851 0.810077C50.2777 0.76378 50.3935 0.694336 50.5324 0.694336C50.6481 0.694336 50.787 0.717484 50.9027 0.786929C51.1342 0.902669 51.2499 1.08785 51.3657 1.24989C51.574 1.59711 51.6898 1.96748 51.8287 2.31471C52.0601 3.0323 52.199 3.77304 52.3379 4.49063C52.6157 5.94897 52.8009 7.4073 52.9861 8.88878C53.1481 10.3471 53.2638 11.8286 53.3564 13.3101C53.449 14.4443 53.5185 15.5554 53.5648 16.7129C54.7685 16.3656 56.0185 16.1341 57.2453 16.0184C57.3379 15.9953 57.4074 16.0416 57.4074 16.1341ZM44.1898 22.2684C42.662 23.4721 41.2268 24.8147 40.0231 26.3425C39.3287 27.2453 38.6805 28.1712 38.2638 29.236C38.0555 29.7453 37.8935 30.3008 37.8935 30.8564C37.9166 31.1341 37.9398 31.3888 38.0555 31.6434C38.1481 31.8749 38.3333 32.0832 38.5416 32.2453C38.8425 32.4073 39.1898 32.4999 39.537 32.4999C39.8611 32.4767 40.2083 32.361 40.4861 32.1527C41.0648 31.736 41.4583 31.111 41.7592 30.4629C42.4074 29.1666 42.824 27.7545 43.2175 26.3425C43.5648 25.023 43.8888 23.6341 44.1898 22.2684ZM52.8703 16.9212C52.8009 15.7406 52.7314 14.5369 52.6388 13.3564C52.5462 11.898 52.4537 10.4166 52.3148 8.95822C52.199 7.49989 52.0601 6.04156 51.8518 4.58322C51.7361 3.86563 51.5972 3.14804 51.3888 2.4536C51.2962 2.12952 51.1574 1.7823 50.9953 1.48137C50.9027 1.34248 50.8101 1.2036 50.6944 1.1573C50.6018 1.111 50.5092 1.111 50.3935 1.18045C50.1388 1.31934 49.9305 1.64341 49.7453 1.94434C49.5601 2.24526 49.4212 2.56934 49.2592 2.91656C48.9583 3.56471 48.7268 4.25915 48.4953 4.95359C48.0555 6.34248 47.7083 7.77767 47.4074 9.21285C46.8055 12.0832 46.2962 14.9999 45.7407 17.8934C45.5555 18.8888 45.3472 19.9073 45.1388 20.9258C45.8796 20.3471 46.6898 19.8147 47.5 19.3517C48.4953 18.773 49.5138 18.2406 50.5787 17.7777C51.3425 17.4536 52.0833 17.1527 52.8703 16.9212Z" fill="black"/>
<path d="M57.1064 19.4906C57.1064 19.1897 57.3611 18.9351 57.662 18.9351C57.9629 18.9351 58.2176 19.1897 58.2176 19.4906C58.2176 19.7915 57.9629 20.0462 57.662 20.0462C57.3611 20.023 57.1064 19.7915 57.1064 19.4906Z" fill="black"/>
<path d="M75.7869 7.54618C75.3934 7.70821 74.9768 7.52303 74.7916 7.15266C74.7221 6.96747 74.699 6.78229 74.7684 6.62025V6.57396C74.8842 6.22673 74.9305 5.85636 74.8842 5.50914L74.8379 5.25451L74.7453 4.99988C74.699 4.83784 74.6527 4.67581 74.5832 4.51377C74.3055 3.86562 73.8656 3.31007 73.3101 2.91655C72.7314 2.52303 72.0601 2.2684 71.3425 2.12951C70.6249 2.01377 69.8842 1.99062 69.1666 2.10636C67.7082 2.29155 66.2499 2.82396 65.0231 3.68044C64.4212 4.0971 63.8194 4.58321 63.3564 5.16192C62.8703 5.71747 62.4536 6.34247 62.1527 7.01377C61.8518 7.68507 61.6666 8.40266 61.574 9.1434L61.5277 9.69896C61.5045 9.79155 61.5277 9.88414 61.5277 9.95358C61.5277 10.0462 61.5277 10.1388 61.5508 10.2314C61.574 10.4165 61.574 10.6017 61.6203 10.7638L61.6666 11.0184L61.736 11.2962C62.1295 12.7314 62.8934 14.074 63.7036 15.3703C65.2545 17.7545 67.0832 19.9536 68.8193 22.2453C70.3703 20.023 72.0138 17.8703 73.7036 15.7638C73.7962 15.648 73.9582 15.648 74.074 15.7175C74.1897 15.8101 74.1897 15.9721 74.1203 16.0878C73.1249 17.2915 72.1758 18.5184 71.2499 19.7453C70.5323 20.7175 69.8147 21.6665 69.1203 22.6619C69.1666 22.7082 69.2129 22.7545 69.236 22.8008C69.699 23.449 70.1619 24.074 70.5323 24.7915C70.9258 25.486 71.1805 26.273 71.2731 27.0832C71.3656 27.8934 71.2731 28.7267 71.0184 29.4906C70.7638 30.2777 70.3703 30.9721 69.8842 31.6203C69.3981 32.2684 68.8193 32.824 68.1481 33.2869C67.4999 33.7499 66.7823 34.1434 65.9953 34.3517C65.6018 34.4443 65.1851 34.5138 64.7453 34.4675C64.5138 34.4443 64.3055 34.3749 64.0971 34.2823C63.8888 34.1897 63.7036 34.0277 63.5647 33.8425C63.449 33.6573 63.3332 33.4258 63.2869 33.2175C63.2406 32.986 63.2406 32.7777 63.2406 32.5693C63.2638 32.1295 63.3332 31.736 63.449 31.3656C63.6805 30.5786 64.0277 29.8841 64.3749 29.1897C64.7684 28.5184 65.1388 27.824 65.5555 27.1527C66.3656 25.8332 67.2221 24.5369 68.1018 23.2638C68.2175 23.1017 68.3332 22.9397 68.449 22.7777C66.6897 20.4628 64.7684 18.2175 63.1481 15.7406C62.7314 15.0925 62.3147 14.398 61.9675 13.7036C61.5971 13.0091 61.2962 12.2684 61.0647 11.4814L60.9721 11.1804L60.9258 10.8795C60.8795 10.6712 60.8564 10.486 60.8332 10.2777C60.8101 10.1851 60.8332 10.0693 60.8101 9.97673C60.8101 9.86099 60.7869 9.7684 60.8101 9.65266L60.8332 9.05081C60.9258 8.24062 61.111 7.45359 61.4351 6.6897C61.7592 5.94896 62.199 5.25451 62.7314 4.65266C63.2406 4.02766 63.8656 3.49525 64.5369 3.03229C65.8564 2.10636 67.3842 1.50451 69.0045 1.24988C69.7916 1.13414 70.6249 1.13414 71.4582 1.27303C72.2684 1.38877 73.0786 1.6897 73.7731 2.17581C74.4906 2.63877 75.0462 3.35636 75.3934 4.12025C75.486 4.30544 75.5555 4.51377 75.6249 4.7221L75.7175 5.02303L75.7869 5.32396C75.8332 5.53229 75.9027 5.71747 75.9258 5.92581C75.9721 6.13414 76.0416 6.34247 76.111 6.55081C76.3656 6.94433 76.1805 7.38414 75.7869 7.54618ZM68.8193 23.1712C68.7499 23.2869 68.6573 23.4027 68.5879 23.5184C67.7082 24.7915 66.8518 26.0878 66.0416 27.4073C65.2545 28.7499 64.4212 30.0693 64.0045 31.5045C63.9119 31.8749 63.8425 32.2221 63.8194 32.5693C63.7962 32.7545 63.8425 32.9165 63.8656 33.0786C63.9119 33.2406 63.9814 33.3795 64.0508 33.5184C64.236 33.773 64.5138 33.9119 64.861 33.9582C65.2082 33.9814 65.5786 33.9351 65.9258 33.8425C66.6434 33.6573 67.3147 33.3101 67.9166 32.8703C68.5184 32.4304 69.074 31.898 69.5138 31.3193C70.4397 30.1388 70.9721 28.6341 70.7869 27.1758C70.6943 26.4351 70.4629 25.7175 70.0925 25.0693C69.7221 24.398 69.2592 23.773 68.8193 23.1712Z" fill="black"/>
<path d="M74.7684 16.134C74.6527 16.0877 74.5601 16.1109 74.4212 16.1572C74.3055 16.2266 74.1897 16.3655 74.0972 16.5507C74.0277 16.7127 73.9583 16.9211 73.912 17.1294C73.8194 17.5461 73.7962 18.009 73.8194 18.472C73.8194 18.7035 73.8425 18.9118 73.8888 19.1201C73.9351 19.3285 74.0046 19.5137 74.1203 19.6294C74.1666 19.6988 74.236 19.7451 74.3286 19.7683C74.3749 19.7683 74.3981 19.7914 74.4444 19.7914C74.4907 19.7914 74.5138 19.7914 74.5833 19.7914C74.7685 19.7914 74.9536 19.6988 75.1388 19.5831C75.5323 19.3516 75.8796 19.0507 76.2268 18.7498C76.574 18.4488 76.9212 18.1016 77.2684 17.8007C77.4536 17.6387 77.6157 17.4766 77.8009 17.3146C77.986 17.1525 78.1712 17.0137 78.3796 16.8979C78.449 16.8748 78.5184 16.8748 78.5416 16.9442C78.5647 16.9905 78.5416 17.06 78.4953 17.0831C78.1249 17.3146 77.7777 17.6387 77.4305 17.9859C77.1064 18.3331 76.7823 18.6572 76.4351 19.0044C76.0879 19.3285 75.7407 19.6757 75.324 19.9535C75.1157 20.0924 74.8842 20.2313 74.5833 20.2775C74.5138 20.2775 74.4444 20.2775 74.3518 20.2775C74.2823 20.2544 74.2129 20.2544 74.1434 20.2313C74.0046 20.185 73.8657 20.1155 73.7499 19.9998C73.5185 19.7914 73.4027 19.5137 73.3333 19.2822C73.2638 19.0275 73.2175 18.7729 73.1944 18.5183C73.1481 18.0322 73.1481 17.5461 73.2175 17.0368C73.2638 16.7822 73.3101 16.5275 73.4259 16.2729C73.5185 16.0183 73.6805 15.7405 73.9583 15.5553C74.0972 15.4627 74.2592 15.3933 74.4444 15.347C74.6296 15.3238 74.8147 15.3238 74.9768 15.3701C75.1388 15.4164 75.3009 15.509 75.4397 15.6248C75.5786 15.7405 75.6944 15.9025 75.7638 16.1109L75.787 16.2266C75.8564 16.4581 75.7175 16.7127 75.486 16.7822C75.2546 16.8516 74.9999 16.7127 74.9305 16.4813C74.9305 16.435 74.9073 16.3887 74.9073 16.3424C74.9768 16.2961 74.8842 16.1803 74.7684 16.134Z" fill="black"/>
<path d="M82.9629 16.9907C82.9629 17.037 82.9398 17.0602 82.8935 17.0602C82.3379 17.1065 81.8055 16.9676 81.3425 16.7361C81.412 17.2222 81.4583 17.7083 81.4351 18.1944C81.412 18.5416 81.3657 18.8889 81.2962 19.2129C81.2036 19.537 81.0879 19.8842 80.8333 20.162C80.6944 20.3009 80.5555 20.4398 80.3472 20.4861C80.2546 20.5324 80.162 20.5555 80.0694 20.5555C79.9768 20.5555 79.861 20.5555 79.7685 20.5324C79.3749 20.4629 79.0509 20.2083 78.8425 19.9074C78.611 19.6296 78.4722 19.2824 78.3564 18.9352C78.2638 18.5879 78.2175 18.2407 78.1944 17.8703C78.1712 17.5 78.2175 17.1528 78.3101 16.7824C78.4027 16.4352 78.5879 16.0416 78.8657 15.7176L78.8888 15.6944C79.0509 15.5324 79.3286 15.5092 79.5138 15.6944C79.699 15.8565 79.699 16.1342 79.5138 16.3194C79.4907 16.3426 79.4675 16.3657 79.4444 16.3889C79.2592 16.5278 79.0972 16.7592 78.9814 17.037C78.8657 17.3148 78.8194 17.5926 78.7962 17.9166C78.7731 18.2407 78.7962 18.5416 78.8657 18.8426C78.9351 19.1435 79.0277 19.4444 79.1898 19.699C79.3518 19.9537 79.5601 20.1389 79.8379 20.2083C79.9073 20.2083 79.9768 20.2315 80.0462 20.2315C80.1157 20.2315 80.1851 20.2315 80.2314 20.2083C80.3703 20.162 80.486 20.0926 80.5786 20C80.787 19.7916 80.9027 19.4907 80.9953 19.1898C81.0879 18.8889 81.1342 18.5416 81.1573 18.2407C81.2036 17.7083 81.1805 17.1759 81.0879 16.6666C81.0416 16.6435 80.9953 16.5972 80.949 16.574C80.6712 16.3889 80.3934 16.1805 80.162 15.9259C80.0462 15.8102 79.9305 15.6713 79.861 15.5092C79.8147 15.4398 79.7685 15.3472 79.7453 15.2546C79.7453 15.2083 79.7453 15.162 79.7453 15.1157C79.7453 15.0463 79.7684 15 79.8147 14.9537C79.9073 14.8842 80.0231 14.8611 80.0925 14.8611C80.1851 14.8611 80.2777 14.8842 80.3703 14.9305C80.5323 15 80.6712 15.1389 80.787 15.2778C80.9953 15.5555 81.111 15.8796 81.2036 16.2037C81.2268 16.3426 81.2731 16.4583 81.2962 16.5972C81.7823 16.8518 82.3379 17.0139 82.8703 16.9444C82.9166 16.9444 82.9629 16.9676 82.9629 16.9907ZM81.0879 16.4583C81.0647 16.3889 81.0647 16.3194 81.0416 16.25C80.9722 15.9259 80.8564 15.625 80.6712 15.3703C80.5786 15.2315 80.4629 15.1157 80.324 15.0463C80.2546 15.0231 80.1851 15 80.1157 15C80.0462 15 79.9768 15 79.9305 15.0463C79.9073 15.0694 79.8842 15.1389 79.9073 15.2083C79.9073 15.2778 79.9536 15.3472 79.9768 15.4166C80.0462 15.5555 80.162 15.6944 80.2546 15.8102C80.4629 16.0416 80.7407 16.25 80.9953 16.4352C81.0416 16.4352 81.0647 16.4583 81.0879 16.4583Z" fill="black"/>
<path d="M87.4073 11.7592C87.4073 11.9212 87.2916 12.0601 87.1295 12.0832C87.1064 12.0832 87.0832 12.0832 87.0601 12.0832C86.4582 12.0138 85.8101 12.037 85.1851 12.1295C84.6064 12.199 84.0277 12.3147 83.4721 12.4768V12.5462C83.449 13.1018 83.4258 13.6573 83.4027 14.2129C83.3564 15.324 83.3332 16.4351 83.3332 17.5462C83.3332 18.6573 83.3795 19.7684 83.4721 20.8564C83.5184 21.412 83.5879 21.9444 83.7036 22.4768C83.773 22.7314 83.8425 22.986 83.9351 23.2407C83.9814 23.3564 84.0508 23.4721 84.1203 23.5647C84.1897 23.6342 84.2592 23.6805 84.3286 23.7036C84.4212 23.7036 84.5138 23.7962 84.4906 23.8888C84.4906 23.9814 84.398 24.074 84.3055 24.0508C84.1897 24.0508 84.0971 24.0277 84.0045 23.9814C83.9351 23.9351 83.8656 23.8657 83.7962 23.8194C83.6805 23.6805 83.611 23.5416 83.5416 23.4258C83.4258 23.1481 83.3332 22.8703 83.2638 22.5925C83.1249 22.037 83.0555 21.4814 82.986 20.9258C82.8471 19.7916 82.8008 18.6805 82.7545 17.5694C82.7082 16.4582 82.7082 15.3471 82.7082 14.236C82.7082 13.7268 82.7082 13.2175 82.7082 12.6851C82.2684 12.824 81.8518 12.9629 81.4119 13.1018C80.8101 13.3101 80.2314 13.5647 79.6527 13.8657C79.5138 13.9351 79.3286 13.8888 79.2592 13.7499C79.1897 13.611 79.236 13.4258 79.398 13.3564C79.398 13.3564 79.4443 13.3332 79.4675 13.3332C80.0925 13.1712 80.7175 12.986 81.3193 12.8008C81.7823 12.662 82.2453 12.5231 82.7082 12.4073V11.7129C82.7082 11.4351 82.7314 11.1573 82.6619 10.8564C82.5925 10.6249 82.7545 10.3703 82.986 10.324C83.2406 10.2545 83.4721 10.4166 83.5416 10.6712C83.5647 10.7407 83.5416 10.8332 83.5416 10.9027C83.449 11.1805 83.449 11.4582 83.4258 11.736L83.4027 12.2221C83.9582 12.0832 84.4906 11.9444 85.0462 11.8286C85.6943 11.6897 86.3193 11.5971 86.9906 11.5508C87.2453 11.4814 87.3842 11.6203 87.4073 11.7592Z" fill="black"/>
<path d="M89.4675 11.7592C89.4675 11.9212 89.3517 12.0601 89.1897 12.0832C89.1666 12.0832 89.1434 12.0832 89.1203 12.0832C88.5184 12.0138 87.8703 12.037 87.2453 12.1295C86.6666 12.199 86.0879 12.3147 85.5323 12.4768V12.5462C85.5092 13.1018 85.486 13.6573 85.4629 14.2129C85.4166 15.324 85.3934 16.4351 85.3934 17.5462C85.3934 18.6573 85.4397 19.7684 85.5323 20.8564C85.5786 21.412 85.648 21.9444 85.7638 22.4768C85.8332 22.7314 85.9027 22.986 85.9953 23.2407C86.0416 23.3564 86.111 23.4721 86.1804 23.5647C86.2499 23.6342 86.3193 23.6805 86.3888 23.7036C86.4814 23.7036 86.574 23.7962 86.5508 23.8888C86.5508 23.9814 86.4582 24.074 86.3656 24.0508C86.2499 24.0508 86.1573 24.0277 86.0647 23.9814C85.9953 23.9351 85.9258 23.8657 85.8564 23.8194C85.7406 23.6805 85.6712 23.5416 85.6017 23.4258C85.486 23.1481 85.3934 22.8703 85.324 22.5925C85.1851 22.037 85.1156 21.4814 85.0462 20.9258C84.9073 19.7916 84.861 18.6805 84.8147 17.5694C84.7684 16.4582 84.7684 15.3471 84.7684 14.236C84.7684 13.7268 84.7684 13.2175 84.7684 12.6851C84.3286 12.824 83.9119 12.9629 83.4721 13.1018C82.8703 13.3101 82.2916 13.5647 81.7129 13.8657C81.574 13.9351 81.3888 13.8888 81.3193 13.7499C81.2499 13.611 81.2962 13.4258 81.4582 13.3564C81.4582 13.3564 81.5045 13.3332 81.5277 13.3332C82.1527 13.1712 82.7777 12.986 83.3795 12.8008C83.8425 12.662 84.3055 12.5231 84.7684 12.4073V11.7129C84.7684 11.4351 84.7916 11.1573 84.7221 10.8564C84.6527 10.6249 84.8147 10.3703 85.0462 10.324C85.3008 10.2545 85.5323 10.4166 85.6017 10.6712C85.6249 10.7407 85.6017 10.8332 85.6017 10.9027C85.5092 11.1805 85.5092 11.4582 85.486 11.736L85.4629 12.2221C86.0184 12.0832 86.5508 11.9444 87.1064 11.8286C87.7545 11.6897 88.3795 11.5971 89.0508 11.5508C89.3286 11.4814 89.4675 11.6203 89.4675 11.7592Z" fill="black"/>
<path d="M30.8564 4.86108H7.89343V8.65738H30.8564V4.86108Z" fill="black"/>
<path d="M33.9814 14.699H4.76843V18.4953H33.9814V14.699Z" fill="black"/>
<path d="M37.6157 9.79175H1.15735V13.588H37.6157V9.79175Z" fill="black"/>
<path d="M11.0184 30.0925L14.7916 31.9907V20.6018H11.0184V30.0925Z" fill="black"/>
<path d="M17.4768 33.3333L21.2731 35.2314V20.6018H17.4768V33.3333Z" fill="black"/>
<path d="M23.7963 36.5046L27.5926 38.4027V20.6018H23.7963V36.5046Z" fill="black"/>
</svg>
