<svg width="43" height="32" viewBox="0 0 43 32" fill="none" xmlns="http://www.w3.org/2000/svg">
<g clip-path="url(#clip0_484_1471)">
<path d="M42.4051 3.97465C42.4051 3.97465 41.1819 3.02782 37.2207 1.57301C33.745 0.293806 31.0901 0 31.0901 0L31.1032 7.58582C31.1032 10.7921 27.48 14.1967 21.2921 14.1967H21.1151C14.9279 14.1967 11.3059 10.7921 11.3059 7.58582L11.318 0C11.318 0 8.66555 0.293629 5.1884 1.57301C1.22743 3.02782 0.00439453 3.97465 0.00439453 3.97465C0.298023 10.0586 9.74924 15.071 21.2023 15.0737H21.205C32.6588 15.071 42.1124 10.0586 42.4051 3.97465Z" fill="black"/>
<path d="M42.4103 21.0094C42.4103 21.0094 41.1872 21.9536 37.2261 23.4096C33.7479 24.689 31.0953 24.9814 31.0953 24.9814L31.1086 17.3968C31.1086 14.1913 27.4851 10.7879 21.2974 10.7879L21.2104 10.7852H21.2077L21.1218 10.7879C14.9334 10.7879 11.3114 14.1913 11.3114 17.3968L11.3249 24.9814C11.3249 24.9814 8.67106 24.689 5.19409 23.4096C1.23419 21.9536 0.00866699 21.0094 0.00866699 21.0094C0.302296 14.9261 9.756 9.91358 21.2105 9.90967C32.6642 9.91358 42.1181 14.9261 42.4103 21.0094ZM2.06815 31.9837C1.10266 31.9837 1.08525 31.2487 1.08525 30.9647V29.6267C1.08525 29.5433 1.07991 29.4361 1.25161 29.4361H1.74911C1.91263 29.4361 1.90339 29.549 1.90339 29.6267V30.9647C1.90339 31.0612 1.91956 31.3163 2.27078 31.3163H3.10759C3.45223 31.3163 3.47231 31.0612 3.47231 30.9647V29.6267C3.47231 29.5488 3.46129 29.4361 3.62392 29.4361H4.128C4.30929 29.4361 4.29294 29.549 4.29294 29.6267V30.9647C4.29294 31.2493 4.2741 31.9837 3.30737 31.9837M6.69316 31.8202C6.35261 31.3616 5.86577 30.785 5.3697 30.1732V31.8038C5.3697 31.8762 5.38712 31.9837 5.21684 31.9837H4.75151C4.5839 31.9837 4.60274 31.8764 4.60274 31.8038V29.6233C4.60274 29.5483 4.59599 29.4354 4.75151 29.4354H5.65924C5.91536 29.4354 6.28151 29.9503 6.52022 30.2936C6.70667 30.5511 7.04722 30.9425 7.27651 31.2377V29.6231C7.27651 29.5481 7.26709 29.4353 7.43612 29.4353H7.94161C8.10247 29.4353 8.0934 29.5481 8.0934 29.6231V31.983H7.16151C6.96137 31.9837 6.87552 31.9972 6.69316 31.8202ZM8.40161 31.9837V29.4386H10.6504C10.7873 29.4386 11.7111 29.4201 11.7111 30.3906C11.7111 31.3803 11.8171 31.9837 10.6692 31.9837H9.45704L9.19558 31.4528V31.9837M10.5309 31.3133C10.9399 31.3133 10.909 30.9219 10.909 30.742C10.909 30.1412 10.74 30.1167 10.4705 30.1167H9.18722V31.3129L10.5309 31.3133ZM12.5908 29.4548H14.664C14.8383 29.4548 14.8156 29.5696 14.8156 29.7818C14.8156 29.9802 14.8424 30.0929 14.664 30.0929H13.0254C12.9824 30.0929 12.8323 30.0717 12.8323 30.2244C12.8323 30.3799 12.8041 30.4418 12.9678 30.4418H14.416L14.6494 30.9055C14.6828 30.9699 14.6789 31.0264 14.5515 31.0264H13.052L12.8201 30.573V31.2409C12.8201 31.3965 12.9582 31.3669 12.9984 31.3669H14.7C14.8691 31.3669 14.8543 31.485 14.8543 31.678C14.8543 31.8845 14.8691 32.0001 14.7 32.0001H12.5464C12.3667 32.0001 12.0167 31.9441 12.0167 31.3829V29.9804C12.0167 29.8329 12.0931 29.4548 12.5908 29.4548ZM15.3746 29.4385H17.6422C17.9465 29.4385 18.3891 29.4356 18.3891 30.2568C18.3891 30.7932 18.2751 30.8199 18.0309 30.9862C18.4399 31.0561 18.385 31.5788 18.385 31.8495C18.385 31.9865 18.3354 31.9835 18.295 31.9835H17.6299C17.4904 31.9835 17.524 31.7638 17.524 31.6485C17.524 31.3374 17.3496 31.3506 17.2812 31.3506H16.3024C16.2085 31.1869 16.0262 30.8222 16.0262 30.8222V31.8788L15.9014 31.9834H15.2322L15.1652 31.9V29.6581C15.1654 29.5003 15.2766 29.4385 15.3746 29.4385ZM17.1808 30.1117H16.171C16.002 30.1117 16.0102 30.1677 16.0102 30.2191V30.6746H17.0494C17.5537 30.6746 17.5537 30.5486 17.5537 30.4173C17.5535 30.1546 17.5322 30.1117 17.1808 30.1117ZM22.2939 29.4548C22.4602 29.4548 22.6223 29.5298 22.7972 29.8704C22.9152 30.1144 23.7387 31.603 23.9129 31.914V31.9997H23.0548L22.8077 31.5518H21.764L21.5383 31.0394C21.4741 31.1439 21.1295 31.7983 21.0115 31.9993H20.1507V31.9434C20.3263 31.6133 21.5251 29.4543 21.5251 29.4543M22.0258 30.1603L21.6048 30.9244L21.6437 30.9622H22.4241L22.4631 30.9244L22.0649 30.1576L22.0258 30.1603ZM24.4573 29.4385H26.7264C27.0294 29.4385 27.472 29.4356 27.472 30.2568C27.472 30.7932 27.3591 30.8199 27.1151 30.9862C27.5259 31.0561 27.4692 31.5788 27.4692 31.8495C27.4692 31.9865 27.4181 31.9835 27.3778 31.9835H26.7127C26.5735 31.9835 26.6082 31.7638 26.6082 31.6485C26.6082 31.3374 26.434 31.3506 26.367 31.3506H25.3857C25.2916 31.1869 25.1089 30.8222 25.1089 30.8222V31.8788L24.9861 31.9834H24.3155L24.2485 31.9V29.6581C24.2483 29.5003 24.3608 29.4385 24.4573 29.4385ZM26.2651 30.1117H25.2541C25.0851 30.1117 25.0935 30.1677 25.0935 30.2191V30.6746H26.134C26.6354 30.6746 26.6354 30.5486 26.6354 30.4173C26.6352 30.1546 26.6167 30.1117 26.2651 30.1117ZM29.454 31.9837C29.2853 31.6673 28.8159 30.793 28.4993 30.2191V31.8069C28.4993 31.8739 28.5102 31.9837 28.3467 31.9837H27.8881C27.7164 31.9837 27.7297 31.8739 27.7297 31.8069V29.6261C27.7297 29.5483 27.7189 29.4383 27.8881 29.4383H28.6821C28.8001 29.4383 28.9688 29.4116 29.1566 29.7897C29.299 30.0927 29.599 30.7232 29.8086 31.0557C30.0176 30.7232 30.3262 30.0927 30.4682 29.7897C30.6532 29.4116 30.8167 29.4383 30.9511 29.4383H31.7422C31.9029 29.4383 31.8842 29.5483 31.8842 29.6261V31.8069C31.8842 31.8739 31.9086 31.9837 31.7422 31.9837H31.2781C31.1093 31.9837 31.1226 31.8739 31.1226 31.8069V30.2191C30.8007 30.793 30.3367 31.667 30.16 31.9837M32.9029 31.989C32.1519 31.989 32.1843 31.1848 32.1843 30.6592C32.1843 30.1814 32.1304 29.4335 33.0717 29.4255H34.7453C35.6895 29.4255 35.6277 30.1846 35.6277 30.6592C35.6277 31.1848 35.6655 31.989 34.9009 31.989M34.4155 31.3346C34.7965 31.3346 34.7829 30.9404 34.7829 30.6778C34.7829 30.439 34.8392 30.0687 34.3428 30.0687H33.501C33.0077 30.0687 33.0664 30.439 33.0664 30.6778C33.0664 30.9407 33.0422 31.3346 33.4233 31.3346H34.4155ZM36.8855 31.9837C35.9227 31.9837 35.904 31.2487 35.904 30.9647V29.6267C35.904 29.5433 35.8989 29.4361 36.0706 29.4361H36.5697C36.7332 29.4361 36.7222 29.549 36.7222 29.6267V30.9647C36.7222 31.0612 36.7384 31.3163 37.0896 31.3163H37.9262C38.2723 31.3163 38.2911 31.0612 38.2911 30.9647V29.6267C38.2911 29.5488 38.2831 29.4361 38.4438 29.4361H38.9452C39.1276 29.4361 39.1117 29.549 39.1117 29.6267V30.9647C39.1117 31.2493 39.0954 31.9837 38.1247 31.9837M39.6478 29.4385H41.917C42.2201 29.4385 42.6623 29.4356 42.6623 30.2568C42.6623 30.7932 42.5471 30.8199 42.3031 30.9862C42.7137 31.0561 42.66 31.5788 42.66 31.8495C42.66 31.9865 42.609 31.9835 42.5686 31.9835H41.9035C41.7667 31.9835 41.799 31.7638 41.799 31.6485C41.799 31.3374 41.622 31.3506 41.555 31.3506H40.576C40.4823 31.1869 40.2996 30.8222 40.2996 30.8222V31.8788L40.1736 31.9834H39.5056L39.4386 31.9V29.6581C39.4386 29.5003 39.5513 29.4385 39.6478 29.4385ZM41.4528 30.1117H40.4443C40.2752 30.1117 40.2832 30.1677 40.2832 30.2191V30.6746H41.3239C41.8253 30.6746 41.8253 30.5486 41.8253 30.4173C41.8257 30.1546 41.8042 30.1117 41.4528 30.1117Z" fill="black"/>
</g>
<defs>
<clipPath id="clip0_484_1471">
<rect width="42.6667" height="32" fill="white"/>
</clipPath>
</defs>
</svg>
