<svg width="115" height="24" viewBox="0 0 115 24" fill="none" xmlns="http://www.w3.org/2000/svg">
<g clip-path="url(#clip0_523_1585)">
<path d="M70.8048 23.6357C70.6889 23.7139 70.5168 23.7521 70.2884 23.7521H69.3914V22.7926H70.2884C70.7485 22.7926 70.9785 22.9523 70.9785 23.2699C70.9785 23.4378 70.9206 23.5592 70.8048 23.6357ZM69.3914 21.6435H70.2023C70.4076 21.6435 70.5664 21.6834 70.6773 21.7616C70.7882 21.8397 70.8445 21.9561 70.8445 22.1058C70.8445 22.2571 70.7882 22.3719 70.6773 22.45C70.5664 22.5299 70.4076 22.5681 70.2023 22.5681H69.3914V21.6435ZM70.7253 22.6579C70.8461 22.6097 70.9421 22.5365 71.01 22.4367C71.0795 22.3386 71.1126 22.2172 71.1126 22.0775C71.1126 21.868 71.0348 21.7067 70.8776 21.5919C70.722 21.4772 70.5019 21.4207 70.2189 21.4207H69.1216V23.975H70.2917C70.6062 23.975 70.8445 23.9168 71.005 23.7987C71.1656 23.6806 71.2467 23.5127 71.2467 23.2932C71.2467 23.1235 71.202 22.9838 71.1109 22.8758C71.0199 22.7677 70.8925 22.6945 70.7253 22.6579Z" fill="black"/>
<path d="M76.4386 22.9357H75.7634V21.6552H76.4386C76.6902 21.6552 76.8822 21.7101 77.0162 21.8215C77.1486 21.9329 77.2165 22.0909 77.2165 22.2971C77.2165 22.4983 77.1503 22.6563 77.0162 22.7677C76.8822 22.8808 76.6885 22.9357 76.4386 22.9357ZM77.3324 22.8026C77.4333 22.6646 77.483 22.4966 77.483 22.2971C77.483 22.0244 77.3919 21.8098 77.2066 21.6552C77.0229 21.5005 76.768 21.4224 76.4436 21.4224H75.4919V23.9767H75.7601V23.1668H76.4436C76.5148 23.1668 76.581 23.1635 76.6472 23.1552L77.2281 23.9767H77.5227L76.902 23.102C77.0891 23.0388 77.2314 22.9407 77.3324 22.8026Z" fill="black"/>
<path d="M82.0261 23.0754L82.6368 21.7034L83.2475 23.0754H82.0261ZM82.5061 21.4224L81.3442 23.9767H81.6239L81.9285 23.2949H83.3452L83.6497 23.9767H83.9327L82.7709 21.4224H82.5061Z" fill="black"/>
<path d="M89.8445 23.4944L88.2076 21.4224H87.9858V23.975H88.254V21.903L89.8891 23.975H90.1109V21.4224H89.8445V23.4944Z" fill="black"/>
<path d="M96.564 23.2399C96.4713 23.3963 96.3422 23.5193 96.175 23.6091C96.0079 23.6973 95.8126 23.7422 95.5908 23.7422H94.8394V21.6551H95.5908C95.8142 21.6551 96.0079 21.7 96.175 21.7882C96.3422 21.8763 96.4713 21.9994 96.564 22.1574C96.655 22.3137 96.7014 22.4949 96.7014 22.6995C96.7014 22.904 96.655 23.0836 96.564 23.2399ZM96.3174 21.5836C96.1122 21.4755 95.8738 21.4207 95.6057 21.4207H94.5713V23.975H95.6057C95.8738 23.975 96.1122 23.9218 96.3174 23.812C96.5226 23.7039 96.6831 23.5526 96.7973 23.3597C96.9115 23.1668 96.9678 22.9456 96.9678 22.6978C96.9678 22.45 96.9115 22.2289 96.7973 22.036C96.6831 21.843 96.5226 21.6917 96.3174 21.5836Z" fill="black"/>
<path d="M101.47 21.4224H101.201V23.9767H101.47V21.4224Z" fill="black"/>
<path d="M107.789 23.4944L106.152 21.4224H105.93V23.975H106.198V21.903L107.833 23.975H108.055V21.4224H107.789V23.4944Z" fill="black"/>
<path d="M11.6251 0C5.20514 0 0 5.23004 0 11.6807C0 18.1314 5.20514 23.3614 11.6251 23.3614C12.0835 23.3614 12.5337 23.3282 12.9789 23.2749C11.7294 21.5338 9.6953 19.4318 7.24086 16.7112C4.43389 13.5998 4.0135 10.2589 4.91716 8.21508C5.82082 6.17129 8.30671 4.06264 11.8568 4.06264C14.8061 4.06264 16.1484 6.23281 16.4562 8.14856L16.4628 8.14689L16.4645 8.21009C16.5191 8.57261 16.5389 8.92517 16.5224 9.25111C16.5538 9.31929 16.5985 9.38747 16.668 9.46231C17.0123 9.83481 18.8014 11.7871 18.3562 13.7278C17.9093 15.6685 17.1281 17.7206 16.3933 17.2899C16.3933 17.2899 15.9051 14.5743 13.7998 11.6175C13.5797 11.684 13.3513 11.7306 13.1097 11.7306C11.7724 11.7306 10.6883 10.6414 10.6883 9.29767C10.6883 9.06485 10.7314 8.84368 10.7926 8.62916C10.0776 8.23503 9.1061 7.97395 8.21072 8.60421C6.69304 9.67517 7.40305 12.2694 8.598 13.7627C9.79295 15.2544 14.9898 20.1203 15.9266 21.612C16.0656 21.8331 16.2261 22.071 16.3933 22.3287C20.4349 20.4994 23.2518 16.4252 23.2518 11.6824C23.2518 5.23004 18.0467 0 11.6251 0Z" fill="black"/>
<path d="M14.3113 8.89519C14.6324 8.89519 14.8922 8.6341 14.8922 8.31148C14.8922 7.98887 14.6324 7.72778 14.3113 7.72778C13.9902 7.72778 13.7303 7.98887 13.7303 8.31148C13.7303 8.6341 13.9902 8.89519 14.3113 8.89519Z" fill="black"/>
<path d="M33.5248 11.8037C33.5248 17.1568 37.4539 19.5765 41.095 19.5765C42.9255 19.5765 44.6749 18.9778 45.8682 17.8204V17.531C44.9629 18.2128 43.667 18.6685 42.3495 18.6685C39.7577 18.6685 37.0418 16.9323 37.0418 11.8054C37.0418 7.03101 39.3655 4.38356 41.6494 4.38356C43.4799 4.38356 45.2906 6.05817 45.888 9.67513H46.1346V5.10529C44.7974 4.42347 43.1307 4.03101 41.4442 4.03101C37.5168 4.03101 33.5248 6.17957 33.5248 11.8037Z" fill="black"/>
<path d="M53.2132 18.6651C51.6294 18.6651 50.4145 17.0736 50.4145 13.8907C50.4145 10.7277 51.6294 9.13628 53.2132 9.13628C53.8091 9.13628 54.4893 9.38407 55.1679 9.83972V17.3647C55.1679 17.5709 55.1877 17.7787 55.2092 17.9434C54.5307 18.4173 53.8306 18.6651 53.2132 18.6651ZM58.3572 17.7571V8.12354C57.3492 8.47442 56.2585 8.59914 55.1679 8.59914V9.38407C54.1599 8.57753 53.0279 8.22664 52.02 8.22664C49.3868 8.22664 47.1442 10.3968 47.1442 13.8907C47.1442 17.4046 49.3868 19.5964 52.02 19.5964C53.0693 19.5964 54.241 19.2039 55.2903 18.3142C55.5585 19.1407 56.237 19.5332 57.5131 19.5332C58.2115 19.5332 59.0556 19.4301 60.1247 19.2022V18.9545C59.9195 18.9744 59.7755 18.9744 59.61 18.9744C58.7064 18.9761 58.3572 18.5836 58.3572 17.7571Z" fill="black"/>
<path d="M67.3043 18.6668C66.687 18.6668 66.0084 18.4389 65.3497 17.985V9.83972C66.0084 9.38573 66.687 9.13628 67.3043 9.13628C68.8882 9.13628 70.1014 10.7277 70.1014 13.8907C70.103 17.0736 68.8882 18.6668 67.3043 18.6668ZM68.4976 8.22664C67.4682 8.22664 66.3576 8.57753 65.3497 9.38407V8.12354C63.9297 8.47442 62.5527 8.59914 60.6179 8.59914V8.82697C61.9138 9.07476 62.1604 9.26101 62.1604 9.86134V22.7394C62.1604 23.3381 61.9138 23.5243 60.6179 23.7721V23.9999H67.0164V23.7721C65.5765 23.5243 65.3497 23.3381 65.3497 22.7394V18.419C66.3576 19.2455 67.4682 19.5964 68.4976 19.5964C71.1308 19.5964 73.3734 17.4046 73.3734 13.8907C73.3734 10.3968 71.1308 8.22664 68.4976 8.22664Z" fill="black"/>
<path d="M81.4585 18.9563C81.1705 18.9762 80.9438 18.9978 80.717 18.9978C79.2556 18.9978 78.6598 18.316 78.6598 16.7861V8.76392H81.4568V8.41137H78.6598V5.56104H78.4132C77.3837 7.07101 75.9041 8.02057 73.928 8.53775V8.76558H75.4705V16.4352C75.4705 18.647 76.2318 19.5982 78.3718 19.5982C79.1944 19.5982 80.2023 19.4735 81.4568 19.2057V18.9563H81.4585Z" fill="black"/>
<path d="M88.8233 18.9561C88.6181 18.9761 88.4526 18.9761 88.2887 18.9761C87.3619 18.9761 87.0342 18.5836 87.0342 17.7571V8.12354C85.6357 8.47442 84.257 8.59914 82.3223 8.59914V8.82697C83.6182 9.07476 83.8449 9.26101 83.8449 9.86134V17.3647C83.8449 18.853 84.4821 19.5348 86.1686 19.5348C86.8687 19.5348 87.7326 19.4317 88.8233 19.2039V18.9561Z" fill="black"/>
<path d="M102.112 8.41309H98.0388V8.64091C99.3348 8.91031 99.8495 9.11652 99.8495 9.55056C99.8495 9.63371 99.8296 9.75677 99.7667 9.88149L96.8456 16.3305H96.7628L93.5537 9.90145C93.4924 9.75677 93.451 9.63204 93.451 9.52894C93.451 9.13648 93.9045 8.88703 94.9323 8.64091V8.41309H88.3899V8.64091C89.7073 8.97184 89.9539 9.23958 90.2833 9.90145L95.1789 19.4103H95.8376L100.137 9.90145C100.425 9.23958 100.816 8.97184 102.112 8.64091V8.41309Z" fill="black"/>
<path d="M107.708 18.6668C106.124 18.6668 104.909 17.0753 104.909 13.8924C104.909 10.7294 106.122 9.13795 107.708 9.13795C108.303 9.13795 108.984 9.38573 109.662 9.84138V17.3663C109.662 17.5725 109.682 17.7804 109.704 17.945C109.025 18.4173 108.325 18.6668 107.708 18.6668ZM114.106 18.9761C113.201 18.9761 112.851 18.5836 112.851 17.7571V8.12354C111.843 8.47442 110.753 8.59914 109.662 8.59914V9.38407C108.654 8.57753 107.522 8.22664 106.514 8.22664C103.881 8.22664 101.638 10.3968 101.638 13.8907C101.638 17.4046 103.881 19.5964 106.514 19.5964C107.564 19.5964 108.735 19.2039 109.785 18.3142C110.053 19.1407 110.731 19.5332 112.006 19.5332C112.706 19.5332 113.548 19.4301 114.619 19.2022V18.9545C114.414 18.9761 114.27 18.9761 114.106 18.9761Z" fill="black"/>
<path d="M113.085 21.7784C113.25 21.6869 113.436 21.642 113.643 21.642C113.952 21.642 114.207 21.7418 114.409 21.9413L114.576 21.7701C114.465 21.6487 114.328 21.5572 114.166 21.494C114.003 21.4325 113.825 21.4009 113.631 21.4009C113.374 21.4009 113.144 21.4574 112.941 21.5688C112.737 21.6803 112.578 21.8366 112.461 22.0345C112.345 22.2324 112.287 22.4552 112.287 22.7013C112.287 22.9474 112.345 23.1686 112.461 23.3665C112.577 23.5644 112.737 23.7191 112.941 23.8321C113.144 23.9436 113.373 24.0001 113.628 24.0001C113.806 24.0001 113.977 23.9718 114.139 23.917C114.301 23.8604 114.442 23.7806 114.561 23.6758V22.7013H114.303V23.5627C114.121 23.6941 113.901 23.7606 113.639 23.7606C113.434 23.7606 113.249 23.7141 113.083 23.6209C112.918 23.5295 112.789 23.4031 112.694 23.2418C112.6 23.0805 112.552 22.9009 112.552 22.7013C112.552 22.5018 112.598 22.3205 112.694 22.1592C112.79 21.9962 112.919 21.8682 113.085 21.7784Z" fill="black"/>
<path d="M85.4288 6.30435C86.4169 6.30435 87.1981 5.45623 87.1981 4.48506C87.1981 3.51388 86.4169 2.72729 85.4288 2.72729C84.4623 2.72729 83.6794 3.51222 83.6794 4.48506C83.6794 5.45789 84.4606 6.30435 85.4288 6.30435Z" fill="black"/>
</g>
<defs>
<clipPath id="clip0_523_1585">
<rect width="114.621" height="24" fill="white"/>
</clipPath>
</defs>
</svg>
