<svg width="88" height="24" viewBox="0 0 88 24" fill="none" xmlns="http://www.w3.org/2000/svg">
<g clip-path="url(#clip0_484_1489)">
<path d="M0.118671 20.5115C1.51724 20.0636 2.91719 19.6199 4.31438 19.1665C8.85305 17.6931 13.3917 16.2184 17.927 14.7355C18.1773 14.6539 18.2068 14.7183 18.2048 14.9461C18.1945 15.848 18.2006 16.7507 18.2006 17.6527C18.2006 18.4614 17.8625 18.9401 17.0709 19.2028C15.7197 19.6514 14.3637 20.087 13.0097 20.5273C9.63088 21.6255 6.25208 22.7236 2.8726 23.8197C2.71073 23.8718 2.54131 23.8993 2.37532 23.9384C2.14965 24.0124 1.90821 23.9095 1.68323 23.9994H1.61464C1.14822 23.9342 0.712669 23.8067 0.362169 23.4603C0.122101 23.2223 -0.0274277 22.9616 0.00412414 22.6152C0.00412414 21.9568 0.00275232 21.2983 0.00549596 20.6405C0.00755369 20.5664 0.051452 20.5287 0.118671 20.5115Z" fill="black"/>
<path d="M84.1097 19.2761C85.033 19.2741 85.9562 19.2597 86.8788 19.2768C87.186 19.2823 87.2834 19.2062 87.2807 18.8838C87.2656 16.7197 87.2718 14.555 87.2759 12.3903C87.2759 12.2613 87.219 12.1145 87.3418 12.0034V19.3379C86.3684 19.3379 85.3951 19.3399 84.4218 19.3344C84.3183 19.3344 84.1941 19.3927 84.1097 19.2748V19.2761Z" fill="#566077"/>
<path d="M0.0370483 1.24218C0.0569397 1.24012 0.0761452 1.23875 0.0960366 1.23944C0.232533 1.36221 0.214699 1.52889 0.215385 1.68528C0.218815 3.99474 0.218815 6.3042 0.215385 8.61366C0.215385 8.77005 0.232533 8.93672 0.0974084 9.06018C0.077517 9.06018 0.0569397 9.05881 0.0370483 9.05744V1.24218Z" fill="#1AB0DD"/>
<path d="M1.60983 0.00137182C1.86499 0.00137182 2.12015 0.00068591 2.37531 0C3.12912 0.144041 3.83904 0.432123 4.56473 0.666019C8.36262 1.89243 12.1571 3.13118 15.9522 4.36445C16.5421 4.5565 17.1128 4.78011 17.536 5.26505C17.5792 5.57302 17.3426 5.715 17.1512 5.86042C16.73 6.18005 16.2424 6.38582 15.7622 6.59503C14.1476 7.2974 12.4705 7.82898 10.7894 8.34204C8.2563 9.11575 5.70197 9.81538 3.13598 10.4704C2.92678 10.5239 2.71209 10.5514 2.50632 10.6158C2.02206 10.4608 1.53164 10.3223 1.05493 10.146C0.541869 9.95599 0.15433 9.62538 0.0301804 9.05882C0.0301804 6.45236 0.0294945 3.84521 0.0288086 1.23875C0.206459 0.551472 0.759303 0.119348 1.60983 0.00137182Z" fill="#545454"/>
<path d="M0.0466364 19.25C0.0438927 17.9523 0.0411491 16.6538 0.0370336 15.3561C0.0370336 15.2196 0.0281168 15.0838 0.0233154 14.9473C0.135119 14.2579 0.620743 13.928 1.22366 13.7298C2.9206 13.1722 4.62097 12.6248 6.31929 12.0726C6.40571 12.0445 6.49214 12.0143 6.57856 11.9855C6.64235 11.8381 6.78913 11.8189 6.91534 11.7777C9.52523 10.9388 12.1303 10.0842 14.7375 9.23777C14.8465 9.2021 14.957 9.17467 15.0729 9.17192C15.3507 9.16438 15.5784 9.30499 15.8061 9.43257C16.4934 9.81736 17.1855 10.1932 17.881 10.5623C18.1019 10.6796 18.1931 10.8181 18.1821 11.0712C18.1478 11.8326 18.2198 12.5953 18.1437 13.3567C16.5531 13.8793 14.9638 14.4061 13.3711 14.924C8.93055 16.3678 4.48859 17.8082 0.0473223 19.25H0.0466364Z" fill="black"/>
<path d="M24.8752 13.168C24.8752 12.0959 24.8691 11.2276 24.88 10.3599C24.8828 10.15 24.8245 10.0835 24.6112 10.091C24.166 10.1075 23.7195 10.0883 23.2743 10.0999C23.0919 10.1047 23.0404 10.041 23.0425 9.86467C23.0507 9.13349 23.0507 8.40231 23.0425 7.67182C23.0404 7.48113 23.096 7.41254 23.2942 7.41872C23.7277 7.43244 24.1633 7.41049 24.5968 7.42832C24.821 7.43724 24.8841 7.37002 24.8814 7.14504C24.8684 6.23141 24.8828 5.31777 24.8711 4.40414C24.8684 4.18465 24.9219 4.11332 25.1523 4.11606C26.1236 4.12909 27.0948 4.12772 28.0661 4.11606C28.2773 4.11332 28.337 4.17093 28.3343 4.38288C28.3226 5.29651 28.3377 6.21014 28.324 7.12378C28.3206 7.36179 28.3843 7.43244 28.6258 7.42832C29.4139 7.41323 30.2027 7.43038 30.9908 7.41803C31.2165 7.4146 31.3132 7.45644 31.3063 7.71229C31.2885 8.42015 31.2912 9.12869 31.3056 9.83655C31.3098 10.0554 31.237 10.1034 31.0326 10.1006C30.2212 10.0903 29.4098 10.0993 28.5984 10.0938C28.4262 10.0924 28.324 10.1102 28.3254 10.327C28.3384 11.9828 28.3089 13.6392 28.3569 15.2943C28.3891 16.3939 29.1375 16.9193 30.2226 16.7059C30.5045 16.6504 30.7782 16.5688 31.0176 16.4089C31.1547 16.317 31.2172 16.315 31.2803 16.4871C31.5354 17.1813 31.7961 17.874 32.0739 18.5593C32.1493 18.7452 32.0588 18.7987 31.9332 18.8714C31.2247 19.2836 30.4503 19.4468 29.6423 19.4811C28.6608 19.5223 27.6998 19.4256 26.8136 18.9633C25.651 18.3562 25.0927 17.3411 24.9328 16.079C24.8018 15.044 24.9143 14.0021 24.8745 13.1687L24.8752 13.168Z" fill="black"/>
<path d="M15.0461 9.25777C13.8664 9.63365 12.6852 10.0054 11.5061 10.3854C9.86202 10.9156 8.21995 11.452 6.57719 11.9856C5.67179 11.6132 4.72318 11.3697 3.79994 11.0494C3.36988 10.8998 2.93638 10.7599 2.50494 10.6159C2.56462 10.4252 2.75256 10.4718 2.87739 10.4396C5.41115 9.79827 7.92981 9.1055 10.432 8.35031C12.0446 7.864 13.6489 7.353 15.2142 6.72677C15.8384 6.47709 16.4536 6.20547 17.0236 5.844C17.25 5.70064 17.4304 5.51545 17.5353 5.2644C18.0189 5.69173 18.2095 6.24045 18.1979 6.87218C18.1629 7.46069 17.7959 7.8544 17.3652 8.17609C16.6711 8.69396 15.9207 9.11442 15.0461 9.25777Z" fill="#323232"/>
<path d="M15.0461 9.25767C15.6312 9.00731 16.2383 8.80908 16.7877 8.47367C17.4276 8.08339 17.9661 7.6156 18.1979 6.87207C18.2006 8.97507 18.2034 11.0788 18.2048 13.1818C18.2048 13.2449 18.2281 13.3217 18.1423 13.356C18.1423 12.5932 18.1396 11.8298 18.1444 11.0671C18.1451 10.9087 18.1231 10.7934 17.9606 10.707C17.1361 10.2721 16.3185 9.82491 15.5002 9.37976C15.3569 9.30225 15.2121 9.24463 15.0461 9.25698V9.25767Z" fill="black"/>
<path d="M87.2691 11.4903C87.0071 9.39693 85.8033 8.01619 83.7778 7.49765C82.9643 7.28913 82.1344 7.23837 81.2983 7.26307C79.6884 7.31039 78.1623 7.66089 76.761 8.49016C76.5271 8.62871 76.4708 8.73572 76.6121 8.98882C76.9496 9.59585 77.2631 10.2159 77.5635 10.8421C77.678 11.0808 77.7542 11.0795 77.9716 10.9389C79.22 10.1309 80.5911 9.84415 82.0583 10.0938C83.1139 10.2735 83.7765 11.0123 83.8526 12.0061C83.8711 12.2469 83.8327 12.3477 83.5542 12.3415C82.6639 12.3223 81.7722 12.3313 80.8812 12.3354C79.9155 12.3395 78.9723 12.4719 78.069 12.8327C75.4392 13.8835 75.54 17.182 77.2569 18.5024C78.4799 19.4428 79.8839 19.5944 81.3497 19.4339C82.4197 19.3166 83.356 18.9174 84.0062 18.0037C84.011 17.9969 84.0447 18.0106 84.1098 18.0236V19.2754C85.0564 19.3385 86.0043 19.2754 86.9509 19.309C87.2335 19.3193 87.3144 19.2404 87.313 18.9537C87.3014 16.7602 87.3062 14.5666 87.3082 12.3731C87.3082 12.2503 87.2787 11.5706 87.2691 11.4903ZM82.9122 16.7334C82.0267 17.2465 81.0959 17.3158 80.1569 16.907C79.6411 16.6827 79.3537 16.1463 79.4004 15.6346C79.4532 15.055 79.7714 14.673 80.375 14.4939C81.0541 14.2923 81.7551 14.3526 82.4499 14.3458C82.8381 14.3458 83.2264 14.3526 83.6146 14.343C83.782 14.3389 83.843 14.376 83.8615 14.5639C83.9534 15.4714 83.7538 16.2457 82.9115 16.7334H82.9122Z" fill="black"/>
<path d="M74.2121 7.41751C73.2635 7.43123 72.3149 7.42574 71.3662 7.41888C71.1996 7.41751 71.1502 7.47238 71.1543 7.63426C71.1639 8.03346 71.157 8.43334 71.157 8.89153C69.207 6.58619 65.0586 6.86604 62.9474 8.87301C60.9816 10.7421 60.7127 14.3267 62.4597 16.5552C63.374 17.7219 64.597 18.4037 66.045 18.6349C67.8496 18.923 69.5458 18.6939 70.9588 17.3248C71.0178 17.7103 70.9725 18.0498 70.943 18.3845C70.8271 19.7063 70.1049 20.5774 68.8064 20.8463C66.9051 21.2407 65.1354 20.8524 63.516 19.7927C63.3294 19.6706 63.2711 19.6843 63.171 19.8716C62.8006 20.565 62.4179 21.2516 62.0296 21.9355C61.9446 22.0843 61.9439 22.1762 62.1003 22.2654C62.3472 22.4067 62.5784 22.5802 62.8335 22.7037C65.1162 23.8101 67.5176 24.0296 69.9766 23.5439C72.3821 23.0686 73.8156 21.5747 74.2793 19.1617C74.374 18.6678 74.4357 18.1678 74.4364 17.6657C74.4412 14.3644 74.4391 11.0624 74.4371 7.76115C74.4371 7.60751 74.5132 7.41271 74.2135 7.41683L74.2121 7.41751ZM68.6116 15.8377C68.3873 15.8748 68.1617 15.9235 67.9628 15.9002C66.3125 15.9002 65.06 14.944 64.8446 13.5434C64.5524 11.64 65.82 10.1344 67.7577 10.098C68.9902 10.0747 70.0424 10.4513 70.6742 11.5858C71.6578 13.3534 70.6035 15.5078 68.6123 15.8377H68.6116Z" fill="black"/>
<path d="M46.9588 12.502C46.6796 9.55739 44.3736 7.36865 41.4235 7.26165C39.9028 7.20677 38.5228 7.5319 37.4281 8.67325C37.4205 8.68148 37.3897 8.66708 37.3574 8.6609C37.3574 8.3447 37.3451 8.02575 37.3615 7.70817C37.3732 7.49074 37.317 7.41255 37.0817 7.41598C36.1681 7.4297 35.2537 7.42764 34.3401 7.41735C34.1275 7.41461 34.0479 7.45782 34.0486 7.69377C34.0554 12.9005 34.0554 18.1073 34.0486 23.314C34.0486 23.541 34.1117 23.5959 34.3319 23.5932C35.2915 23.5815 36.251 23.576 37.2106 23.5952C37.4816 23.6007 37.5255 23.5109 37.5234 23.2674C37.5131 21.6918 37.5172 20.1163 37.52 18.5401C37.52 18.4214 37.4843 18.2945 37.5755 18.1457C38.483 19.0572 39.5763 19.4496 40.8075 19.4811C43.0162 19.5374 44.8338 18.7678 46.0582 16.8678C46.9149 15.5385 47.1056 14.0542 46.9581 12.5006L46.9588 12.502ZM42.6787 15.7182C41.8323 16.6401 40.7465 16.8466 39.575 16.5146C38.435 16.1915 37.8087 15.3636 37.557 14.2332C37.4925 13.9438 37.4665 13.6482 37.472 13.3491C37.5001 12.2516 37.8142 11.2859 38.7539 10.6164C40.2184 9.57316 43.0114 9.96688 43.4442 12.6783C43.6218 13.7922 43.4689 14.8567 42.6787 15.7175V15.7182Z" fill="black"/>
<path d="M59.6344 13.4994C59.6337 12.8375 59.6563 12.1756 59.5692 11.5157C59.3134 9.57529 58.3367 8.21788 56.4264 7.60399C55.5114 7.30973 54.5717 7.2384 53.6196 7.26377C51.9837 7.30699 50.4336 7.66366 49.0179 8.51968C48.8251 8.63628 48.7723 8.73025 48.8889 8.94425C49.2374 9.58489 49.5652 10.2365 49.8945 10.8868C49.9733 11.0425 50.0234 11.1097 50.2107 10.9814C51.3164 10.2248 52.5551 9.93951 53.881 10.0232C55.2384 10.1082 56.0553 10.8518 56.1561 12.037C56.1781 12.2956 56.1006 12.3423 55.8667 12.3395C54.964 12.3285 54.0607 12.3306 53.158 12.3361C52.2039 12.3416 51.2663 12.4623 50.3787 12.8334C49.1551 13.3444 48.4342 14.2463 48.3436 15.588C48.2558 16.896 48.7305 17.9605 49.832 18.7013C50.9508 19.4538 52.2176 19.5745 53.514 19.4545C54.6547 19.3488 55.6637 18.9455 56.401 17.8686C56.401 18.3357 56.414 18.6904 56.3962 19.0429C56.3852 19.2645 56.4483 19.3365 56.6788 19.3324C57.5588 19.3186 58.4389 19.3173 59.3189 19.333C59.5713 19.3379 59.644 19.2782 59.6426 19.0162C59.6303 17.1772 59.6371 15.3376 59.6351 13.4987L59.6344 13.4994ZM54.0044 17.1409C53.4996 17.18 53.0003 17.1608 52.529 16.942C51.9508 16.6724 51.6737 16.2163 51.7169 15.6079C51.7567 15.0461 52.0907 14.6599 52.7067 14.4864C53.0593 14.387 53.4242 14.3492 53.7904 14.3479C54.453 14.3451 55.1163 14.3629 55.7775 14.3396C56.0834 14.3293 56.1575 14.3993 56.1726 14.7278C56.1774 14.8294 56.1904 14.8911 56.1904 14.9823C56.1767 16.3048 55.0861 17.0579 54.0038 17.1409H54.0044Z" fill="black"/>
</g>
<defs>
<clipPath id="clip0_484_1489">
<rect width="87.3418" height="24" fill="white"/>
</clipPath>
</defs>
</svg>
