<svg width="99" height="18" viewBox="0 0 99 18" fill="none" xmlns="http://www.w3.org/2000/svg">
<path d="M20.613 0.699219H30.4411V3.44541H28.4688V14.6465H30.4411V17.3844H17.6671V14.6465H19.6394V7.38161L12.3745 17.3844L5.09293 7.38161V14.6465H7.06519V17.3844H0V14.6465H1.9473V3.44541H0V0.699219H11.1512L15.8946 7.20685L20.613 0.699219Z" fill="black"/>
<path d="M43.0153 4.84326H32.2136V7.58113H34.1776V14.6463H32.2136V17.3925H44.9876V14.6463H43.0153V4.84326Z" fill="black"/>
<path d="M41.4175 2.42164L40.1443 0L36.1332 2.07212L37.3981 4.5104L41.4175 2.42164Z" fill="black"/>
<path d="M64.577 12.0499C64.6142 11.7435 64.6309 11.4349 64.6269 11.1262C64.6269 7.58946 61.0902 4.16089 55.1817 4.16089C48.3412 4.16089 45.7365 7.9473 45.7365 11.1262C45.7365 14.1054 47.9916 18 55.1983 18C60.7156 18 63.7199 15.3121 64.4522 13.0069H59.559C59.3549 13.7011 58.9265 14.308 58.3408 14.7326C57.755 15.1573 57.0449 15.3757 56.3218 15.3537C56.0217 15.3858 55.7182 15.3575 55.4292 15.2706C55.1402 15.1837 54.8714 15.0399 54.6388 14.8476C54.4062 14.6553 54.2144 14.4184 54.0747 14.1509C53.935 13.8834 53.8502 13.5906 53.8252 13.2899V12.0499H64.577ZM53.8252 8.1387C53.8521 7.79407 54.008 7.47226 54.2618 7.23753C54.5155 7.0028 54.8485 6.87242 55.1942 6.87242C55.5399 6.87242 55.8728 7.0028 56.1266 7.23753C56.3803 7.47226 56.5362 7.79407 56.5631 8.1387V9.89459H53.8252V8.1387Z" fill="black"/>
<path d="M67.3731 3.44541H65.4258V0.699219H76.6019V14.6465H78.5742V17.3927H65.4258V14.6465H67.3731V3.44541Z" fill="black"/>
<path d="M98.1802 12.0499C98.2175 11.7435 98.2342 11.4349 98.2302 11.1262C98.2302 7.58946 94.7018 4.16089 88.785 4.16089C81.9528 4.16089 79.3397 7.9473 79.3397 11.1262C79.3397 14.1054 81.6032 18 88.8016 18C94.3189 18 97.3314 15.3121 98.0554 13.0069H93.1705C92.9649 13.7017 92.5349 14.3089 91.9477 14.7334C91.3606 15.158 90.6493 15.3761 89.925 15.3537C89.625 15.3858 89.3214 15.3575 89.0324 15.2706C88.7434 15.1837 88.4747 15.0399 88.2421 14.8476C88.0095 14.6553 87.8177 14.4184 87.678 14.1509C87.5382 13.8834 87.4534 13.5906 87.4285 13.2899V12.0499H98.1802ZM87.4285 8.1387C87.4285 7.77453 87.5732 7.42528 87.8307 7.16778C88.0882 6.91027 88.4374 6.76561 88.8016 6.76561C89.1657 6.76561 89.515 6.91027 89.7725 7.16778C90.03 7.42528 90.1747 7.77453 90.1747 8.1387V9.89459H87.4285V8.1387Z" fill="black"/>
</svg>
