<svg width="162" height="18" viewBox="0 0 162 18" fill="none" xmlns="http://www.w3.org/2000/svg">
<g clip-path="url(#clip0_481_1081)">
<path d="M-0.00012207 17.2606L0.965242 16.3132C1.2007 16.0821 1.31842 15.8203 1.31842 15.5277V0.577637H1.55388L13.0915 10.7907V3.28113C13.0915 2.98838 12.9738 2.72648 12.7383 2.49554L11.773 1.5482V1.31714H17.8715V1.5482L16.9061 2.49554C16.6707 2.72659 16.5529 2.9885 16.5529 3.28113V18.1155H16.3175L4.77973 7.8793V15.5276C4.77973 15.8202 4.89745 16.0821 5.13291 16.313L6.09827 17.2605V17.4915H-0.00012207V17.2606Z" fill="black"/>
<path d="M19.5659 17.2606L20.5313 16.3132C20.7667 16.0821 20.8845 15.8203 20.8845 15.5277V3.28113C20.8845 2.98838 20.7667 2.72648 20.5313 2.49553L19.5659 1.5482V1.31714H29.2904C30.9858 1.31714 32.2848 1.69457 33.1873 2.44932C34.09 3.20407 34.5413 4.20536 34.5413 5.45319C34.5413 7.3325 33.5524 8.5109 31.5745 8.9885V9.03471C34.0075 9.45073 35.2241 10.7676 35.2241 12.9859C35.2241 14.4647 34.6943 15.5854 33.6347 16.3479C32.5752 17.1104 31.0957 17.4917 29.1963 17.4917H19.5659V17.2606ZM28.8195 7.71756C30.1538 7.71756 30.821 7.14754 30.821 6.00762C30.821 5.46844 30.6522 5.03717 30.3147 4.71369C29.9772 4.39021 29.4788 4.22847 28.8195 4.22847H24.6519V7.71756H28.8195ZM28.749 14.534C30.5228 14.534 31.4098 13.8485 31.4098 12.4775C31.4098 11.1837 30.5228 10.5366 28.749 10.5366H24.652V14.534H28.749Z" fill="black"/>
<path d="M39.7441 15.539C38.1116 14.0217 37.2954 11.9922 37.2954 9.45058C37.2954 6.89334 38.1195 4.85229 39.7678 3.32731C41.4161 1.80233 43.5038 1.03972 46.0311 1.03972C46.5962 1.03972 47.2869 1.0898 48.1031 1.18997C48.9195 1.29013 49.4296 1.3401 49.6336 1.3401C50.2301 1.3401 50.7795 1.14751 51.2819 0.762451L51.5173 0.854874L50.1046 6.33118L49.8456 6.26186C49.673 5.67648 49.2845 5.16815 48.6802 4.73688C48.0758 4.30561 47.2713 4.08992 46.2667 4.08992C44.8382 4.08992 43.657 4.57901 42.7231 5.5572C41.7891 6.53538 41.322 7.84092 41.322 9.4738C41.322 11.0605 41.7615 12.3429 42.6406 13.3211C43.5197 14.2993 44.6734 14.7884 46.1019 14.7884C47.7659 14.7884 49.0765 14.1491 50.0341 12.8705L52.2475 15.3891C50.7091 17.0065 48.6136 17.8155 45.9606 17.8155C43.4488 17.8152 41.3767 17.0565 39.7441 15.539Z" fill="black"/>
<path d="M56.8615 16.1052C55.5742 14.9652 54.9306 13.3093 54.9306 11.1373V3.28113C54.9306 2.98838 54.8129 2.72647 54.5774 2.49553L53.6121 1.5482V1.31714H59.9696V1.5482L59.0041 2.49553C58.7686 2.72659 58.6509 2.9885 58.6509 3.28113V11.2298C58.6509 12.4004 58.9413 13.2786 59.5222 13.8638C60.103 14.4493 60.9349 14.7418 62.018 14.7418C63.0855 14.7418 63.9056 14.4455 64.4786 13.8523C65.0516 13.2592 65.3381 12.385 65.3381 11.2298V3.28113C65.3381 2.98838 65.2203 2.72647 64.9849 2.49553L64.0194 1.5482V1.31714H70.424V1.5482L69.4586 2.49553C69.2232 2.72659 69.1055 2.9885 69.1055 3.28113V11.1373C69.1055 13.3094 68.4579 14.9653 67.1629 16.1052C65.8679 17.2451 64.1529 17.8151 62.018 17.8151C59.8675 17.8153 58.1487 17.2451 56.8615 16.1052Z" fill="black"/>
<path d="M72.1422 17.2607L73.1076 16.3132C73.343 16.0821 73.4608 15.7279 73.4608 15.2503V8.64184C73.4608 8.16436 73.343 7.81003 73.1076 7.57897L72.1422 6.63164V6.40058H76.8985V8.38768C77.1653 7.75608 77.6559 7.23239 78.3702 6.81648C79.0844 6.40058 79.8575 6.19263 80.6894 6.19263C81.9138 6.19263 82.8635 6.57768 83.5386 7.34792C84.2136 8.11815 84.551 9.1965 84.551 10.5828V15.2504C84.551 15.7279 84.6687 16.0823 84.9042 16.3133L85.8697 17.2608V17.4918H81.0191V11.3453C81.0191 10.6829 80.8622 10.1553 80.5482 9.76253C80.2343 9.36973 79.7712 9.17327 79.159 9.17327C78.4369 9.17327 77.8953 9.39284 77.5342 9.83185C77.1732 10.2709 76.9927 10.837 76.9927 11.5302V15.2503C76.9927 15.7278 77.1104 16.0821 77.3459 16.3132L78.3112 17.2607V17.4917H72.1421V17.2607H72.1422Z" fill="black"/>
<path d="M86.9286 17.2606L87.8939 16.3132C88.1295 16.0821 88.2471 15.7279 88.2471 15.2503V8.6418C88.2471 8.16432 88.1295 7.80999 87.8939 7.57893L86.9286 6.6316V6.40054H91.7791V15.2504C91.7791 15.7279 91.8967 16.0822 92.1323 16.3133L93.0977 17.2607V17.4918H86.9286V17.2606ZM88.518 4.18226C88.102 3.79721 87.8939 3.31961 87.8939 2.74971C87.8939 2.1798 88.1019 1.7022 88.518 1.31715C88.9339 0.931972 89.4244 0.739502 89.9896 0.739502C90.5548 0.739502 91.0452 0.932089 91.4613 1.31715C91.8772 1.7022 92.0853 2.1798 92.0853 2.74971C92.0853 3.31961 91.8773 3.79721 91.4613 4.18226C91.0452 4.56732 90.5548 4.75991 89.9896 4.75991C89.4244 4.75991 88.934 4.56732 88.518 4.18226Z" fill="black"/>
<path d="M95.1221 8.87283C94.5884 7.85617 93.992 7.11679 93.3328 6.65455V6.40039H97.6651L99.9963 11.7612H100.043L102.092 6.40039H106.495V6.65455C105.82 7.11667 105.224 7.85617 104.705 8.87283L100.043 17.9999H99.8079L95.1221 8.87283Z" fill="black"/>
<path d="M108.52 16.2786C107.405 15.2542 106.848 13.8717 106.848 12.1309C106.848 10.3749 107.397 8.9462 108.496 7.84475C109.595 6.7433 111.086 6.19263 112.97 6.19263C114.791 6.19263 116.156 6.71257 117.067 7.75233C117.977 8.79209 118.433 10.19 118.433 11.9462C118.433 12.3005 118.417 12.6318 118.385 12.9399H110.474C110.552 13.5251 110.843 14.0181 111.345 14.4185C111.847 14.8191 112.514 15.0194 113.346 15.0194C114.398 15.0194 115.207 14.7113 115.772 14.095L117.726 16.3595C116.659 17.33 115.097 17.8153 113.04 17.8153C111.141 17.8153 109.634 17.303 108.52 16.2786ZM111.11 9.40445C110.702 9.82035 110.474 10.3288 110.427 10.9294H114.853C114.822 10.2978 114.626 9.78188 114.265 9.38134C113.904 8.9808 113.394 8.78059 112.734 8.78059C112.059 8.78048 111.518 8.98855 111.11 9.40445Z" fill="black"/>
<path d="M120.056 17.2607L121.022 16.3132C121.257 16.0821 121.375 15.7279 121.375 15.2503V8.64184C121.375 8.16436 121.257 7.81003 121.022 7.57897L120.056 6.63164V6.40058H124.813V8.64184C125.08 7.93319 125.519 7.34792 126.131 6.8858C126.744 6.42368 127.45 6.19263 128.25 6.19263C128.831 6.19263 129.326 6.30041 129.734 6.51611L128.815 9.98221C128.313 9.55083 127.748 9.33513 127.12 9.33513C126.429 9.33513 125.888 9.55845 125.495 10.0052C125.103 10.4521 124.907 11.0835 124.907 11.9V15.2503C124.907 15.7278 125.024 16.0821 125.26 16.3132L126.225 17.2607V17.4917H120.056V17.2607H120.056Z" fill="black"/>
<path d="M130.11 16.3132L131.759 13.9565C132.81 14.8036 134.074 15.2273 135.549 15.2273C136.554 15.2273 137.056 14.9192 137.056 14.303C137.056 14.0103 136.927 13.787 136.668 13.633C136.409 13.4789 136.067 13.3711 135.644 13.3094C135.22 13.2478 134.741 13.1706 134.207 13.0783C131.9 12.6933 130.746 11.6072 130.746 9.82028C130.746 8.54172 131.205 7.61749 132.123 7.04747C133.042 6.47745 134.207 6.19255 135.62 6.19255C136.169 6.19255 136.746 6.24263 137.351 6.34268C137.955 6.44285 138.359 6.49293 138.563 6.49293C139.081 6.49293 139.599 6.30034 140.117 5.91528L140.353 6.00771L139.246 10.2362L139.011 10.1669C138.54 9.18106 137.48 8.6881 135.832 8.6881C134.843 8.6881 134.348 8.97311 134.348 9.54301C134.348 9.8048 134.47 10.0129 134.713 10.1669C134.957 10.3209 135.282 10.4249 135.691 10.4787C136.099 10.5328 136.562 10.6059 137.08 10.6983C138.1 10.8677 138.952 11.2066 139.635 11.7151C140.317 12.2234 140.659 12.9628 140.659 13.9332C140.659 15.1656 140.184 16.1207 139.234 16.7985C138.285 17.4763 136.978 17.8152 135.314 17.8152C133.085 17.8154 131.35 17.3145 130.11 16.3132Z" fill="black"/>
<path d="M143.083 16.9254C142.393 16.3323 142.047 15.5507 142.047 14.5801C142.047 13.3633 142.499 12.4544 143.401 11.8537C144.304 11.2528 145.713 10.9372 147.628 10.9062C148.224 10.8908 148.632 10.8178 148.852 10.6868C149.072 10.5559 149.182 10.3287 149.182 10.0051C149.182 9.6816 149.013 9.41196 148.676 9.19638C148.338 8.98069 147.824 8.8729 147.133 8.8729C146.082 8.8729 145.124 9.25807 144.261 10.0283L142.424 7.90246C143.586 6.76253 145.273 6.19263 147.487 6.19263C149.276 6.19263 150.591 6.54695 151.431 7.25549C152.27 7.96415 152.69 9.04238 152.69 10.4905V15.2505C152.69 15.7279 152.808 16.0823 153.044 16.3133L154.009 17.2608V17.4918H149.253V15.9898C148.97 16.5291 148.515 16.968 147.887 17.3069C147.259 17.6458 146.529 17.8153 145.697 17.8153C144.645 17.8152 143.774 17.5185 143.083 16.9254ZM148.57 14.7535C148.978 14.3453 149.182 13.8562 149.182 13.2862V12.5236C148.978 12.6006 148.483 12.6622 147.699 12.7085C146.286 12.7854 145.58 13.2631 145.58 14.1411C145.58 14.4955 145.697 14.7881 145.933 15.0192C146.168 15.2502 146.521 15.3657 146.992 15.3657C147.636 15.3659 148.162 15.1618 148.57 14.7535Z" fill="black"/>
<path d="M154.974 17.2606L155.939 16.3132C156.175 16.0821 156.292 15.7279 156.292 15.2503V2.24138C156.292 1.76378 156.175 1.40957 155.939 1.1784L154.974 0.231058V0H159.824V15.2503C159.824 15.7278 159.942 16.0821 160.177 16.3132L161.143 17.2606V17.4917H154.974V17.2606Z" fill="black"/>
</g>
<defs>
<clipPath id="clip0_481_1081">
<rect width="161.143" height="18" fill="white"/>
</clipPath>
</defs>
</svg>
