<svg width="83" height="22" viewBox="0 0 83 22" fill="none" xmlns="http://www.w3.org/2000/svg">
<path fill-rule="evenodd" clip-rule="evenodd" d="M20.7973 12.0843H28.8947C28.7443 10.2229 27.7508 8.45136 24.9514 8.45136C22.7539 8.45136 21.1886 10.0727 20.7973 12.0843ZM20.7671 14.7567C21.2188 16.8884 22.9345 18.3895 25.433 18.3895C27.1489 18.3895 28.7443 17.6088 29.6473 16.3778L32.3263 18.5998C30.8213 20.6415 28.1422 21.9626 24.9514 21.9626C20.0146 21.9626 16.5829 18.2095 16.5829 13.5556C16.5829 8.87176 20.0146 5.11865 24.9514 5.11865C29.9785 5.11865 32.8982 8.75163 32.8982 13.8259C32.8982 14.1561 32.8682 14.4863 32.8682 14.7567H20.7671Z" fill="black"/>
<path fill-rule="evenodd" clip-rule="evenodd" d="M36.8557 21.9625H32.2729L38.3528 13.4912L32.3341 5.41602H37.1002L40.7358 10.2611L44.3716 5.41602H49.1374L43.119 13.4912L49.1987 21.9625H44.5854L40.7358 17.0868L36.8557 21.9625Z" fill="black"/>
<path fill-rule="evenodd" clip-rule="evenodd" d="M3.80066 21.9625V13.1886C3.80066 10.3869 4.99434 9.02485 7.44988 9.02485C9.87486 9.02485 11.0539 10.3869 11.0539 13.1886V21.9625H14.8548V12.3458C14.8548 8.13606 11.9482 5.41602 7.44988 5.41602C2.92421 5.41602 -0.00012207 8.13606 -0.00012207 12.3458V21.9625H3.80066Z" fill="black"/>
<path fill-rule="evenodd" clip-rule="evenodd" d="M50.8143 0V16.3889C50.8143 16.3889 50.4099 21.9624 57.9612 21.9624H59.4284V18.5284H57.5435C57.5435 18.5284 55.0915 18.6273 55.0915 16.3889L55.1026 8.81541H59.4283V5.38146H55.1197V0H50.8143Z" fill="black"/>
<path fill-rule="evenodd" clip-rule="evenodd" d="M79.1706 5.41602V14.1899C79.1706 16.9916 77.9769 18.3536 75.5214 18.3536C73.0964 18.3536 71.9174 16.9916 71.9174 14.1899V5.41602H68.1165V15.0326C68.1165 19.2424 71.0231 21.9625 75.5214 21.9625C80.0471 21.9625 82.9714 19.2424 82.9714 15.0326V5.41602H79.1706Z" fill="#4F4F4F"/>
<path fill-rule="evenodd" clip-rule="evenodd" d="M61.5398 21.9626H68.1165V20.739H61.5398V21.9626Z" fill="#4F4F4F"/>
</svg>
