<svg width="92" height="24" viewBox="0 0 92 24" fill="none" xmlns="http://www.w3.org/2000/svg">
<path d="M9.85936 0.738528C5.30092 -0.0743411 0.946133 2.96285 0.131493 7.52306C-0.0456022 8.52011 -0.0402891 9.5083 0.126181 10.4505H0.12441C0.133265 10.4983 0.145661 10.5461 0.156287 10.5939C0.18108 10.7214 0.209416 10.8489 0.239522 10.9747C1.98923 18.5207 10.3393 23.4989 10.3393 23.4989C10.3393 23.4989 17.0087 16.9871 16.7696 8.96285C16.759 4.98705 13.9113 1.46285 9.85936 0.738528Z" fill="black"/>
<path d="M23.1044 2.8549C20.4479 0.38973 16.6829 -0.123848 13.5589 1.2327C16.6262 2.74333 18.5424 5.98418 18.3741 9.45526C18.2413 15.5757 14.3204 20.6318 12.2714 22.8667C15.259 21.9281 21.3653 19.4364 24.5743 14.0509C24.7053 13.8437 24.8222 13.6312 24.9338 13.4169C24.9355 13.4151 24.9355 13.4133 24.9373 13.4098C26.7224 9.96352 26.0867 5.62291 23.1044 2.8549Z" fill="black"/>
<path d="M48.2962 16.989V6.38802C48.2962 6.38271 48.2979 6.37916 48.2979 6.37385C48.2979 5.82308 48.1031 5.35378 47.7118 4.9624C47.5258 4.77645 47.3115 4.63477 47.0689 4.53737C46.8263 4.43997 46.5695 4.39038 46.3003 4.39038C45.7513 4.39038 45.2856 4.58164 44.903 4.9624C44.5063 5.35909 44.308 5.82486 44.3044 6.35791C44.3044 6.35968 44.3027 6.36146 44.3027 6.36323V17.0049V17.0138C44.3027 17.0155 44.3044 17.0173 44.3044 17.0191C44.3062 17.2741 44.3593 17.522 44.4638 17.7593C44.5701 18.002 44.7171 18.2162 44.903 18.4022C45.2944 18.7936 45.7602 18.9884 46.3003 18.9884C46.5695 18.9884 46.8263 18.937 47.0689 18.8343C47.3115 18.7316 47.5258 18.5881 47.7118 18.4022C48.1031 18.0108 48.2979 17.545 48.2979 17.0049C48.2962 16.9996 48.2962 16.9943 48.2962 16.989Z" fill="black"/>
<path d="M42.3139 8.88311C41.9349 7.99055 41.4107 7.20602 40.743 6.52774C40.0754 5.86009 39.2944 5.33589 38.4018 4.9569C37.5093 4.57792 36.5742 4.38843 35.5966 4.38843C34.6297 4.38843 33.7017 4.57615 32.8145 4.94982C31.9272 5.32349 31.148 5.84061 30.4804 6.49763C29.8021 7.16529 29.269 7.93919 28.8794 8.81582C28.4916 9.69421 28.2914 10.6169 28.2808 11.5838V21.9209V22.0236C28.2808 22.2839 28.334 22.5336 28.442 22.7745C28.5482 23.0153 28.6952 23.2296 28.8812 23.4156C29.2708 23.8052 29.7348 24 30.2731 24C30.5423 24 30.7974 23.9486 31.0382 23.8477C31.2791 23.745 31.4933 23.6015 31.6775 23.4174C32.0671 23.0277 32.2619 22.5637 32.2619 22.0254C32.2619 22.0094 32.2619 21.9421 32.2619 21.9227V18.1824C33.3086 18.7208 34.4207 18.99 35.5984 18.99C36.576 18.99 37.511 18.8005 38.4036 18.4215C39.2962 18.0425 40.0772 17.5183 40.7448 16.8506C41.4231 16.1724 41.9491 15.3914 42.3227 14.5094C42.6964 13.6257 42.8824 12.6907 42.8824 11.7042C42.8824 10.7161 42.6929 9.77568 42.3139 8.88311ZM38.6498 12.974C38.4798 13.3725 38.2407 13.7267 37.9308 14.0366C37.6315 14.3359 37.2808 14.5714 36.877 14.7397C36.4733 14.9097 36.0465 14.9947 35.5984 14.9947C35.1486 14.9947 34.7236 14.9097 34.3198 14.7397C33.916 14.5714 33.5654 14.3359 33.2661 14.0366C32.9561 13.7285 32.7153 13.3743 32.54 12.974C32.3646 12.5756 32.2779 12.1505 32.2779 11.7025C32.2779 11.2544 32.3646 10.8294 32.54 10.4309C32.7153 10.0325 32.9561 9.67827 33.2661 9.36835C33.5654 9.06906 33.916 8.8353 34.3198 8.66529C34.7236 8.49528 35.1504 8.41027 35.5984 8.41027C36.0465 8.41027 36.4733 8.49528 36.877 8.66529C37.2808 8.8353 37.6315 9.06906 37.9308 9.36835C38.2389 9.67827 38.4798 10.0325 38.6498 10.4309C38.8198 10.8294 38.9048 11.2544 38.9048 11.7025C38.903 12.1523 38.818 12.5756 38.6498 12.974Z" fill="black"/>
<path d="M44.9013 3.38075C44.7153 3.1948 44.5683 2.98052 44.4621 2.7379C44.354 2.49527 44.3009 2.2438 44.3009 1.98347C44.3009 1.44333 44.501 0.972254 44.9013 0.572018C45.282 0.189491 45.7478 0 46.2985 0C46.5677 0 46.8245 0.0478134 47.0671 0.146987C47.3098 0.244389 47.524 0.387838 47.71 0.572018C48.1014 0.963399 48.2962 1.4327 48.2962 1.98347C48.2962 2.52361 48.1014 2.98937 47.71 3.38075C47.524 3.5667 47.3098 3.71192 47.0671 3.81287C46.8245 3.91558 46.5677 3.96694 46.2985 3.96694C45.7584 3.96694 45.2926 3.77036 44.9013 3.38075Z" fill="black"/>
<path d="M86.8517 9.54918C86.8163 9.54032 86.7755 9.53501 86.7295 9.53501H86.5559C86.5382 9.53501 86.5223 9.53324 86.5063 9.53324C86.4674 9.53324 86.4337 9.53501 86.3983 9.53501H84.0607C84.0589 9.53501 84.0571 9.53501 84.0553 9.53501C84.0536 9.53501 84.0518 9.53501 84.05 9.53501H84.0075C83.9863 9.53501 83.9757 9.53147 83.9703 9.52793C83.8481 9.51022 83.7383 9.45709 83.6463 9.36322C83.5914 9.30832 83.5489 9.24635 83.517 9.17374C83.4851 9.1029 83.4692 9.02852 83.4692 8.95237C83.4692 8.79298 83.5276 8.65484 83.6463 8.53619C83.7578 8.42462 83.896 8.36795 84.0571 8.36795C84.0624 8.36795 84.0677 8.36972 84.0748 8.36972C84.0784 8.36972 84.0784 8.36795 84.0819 8.36795H88.589C88.5908 8.36795 88.5908 8.36618 88.5908 8.36618C88.8546 8.36441 89.1061 8.31482 89.3434 8.21388C89.586 8.11116 89.8003 7.96772 89.9881 7.77999C90.3812 7.38684 90.576 6.92108 90.576 6.37916C90.576 5.8284 90.3794 5.35732 89.9881 4.96417C89.8021 4.77822 89.586 4.63477 89.3434 4.53737C89.1097 4.44174 88.8635 4.39392 88.6049 4.39038H88.6014H88.5748C88.5731 4.39038 88.5731 4.39038 88.5713 4.39038C88.5695 4.39038 88.5695 4.39038 88.5677 4.39038H83.9633C83.9331 4.39038 83.9137 4.39038 83.8818 4.39215C81.4361 4.4807 79.481 6.49251 79.481 8.96122C79.481 11.4512 81.4715 13.4701 83.9473 13.5267C83.9526 13.5285 83.9579 13.5303 83.9633 13.5321H84.043C84.0447 13.5321 84.0483 13.5321 84.05 13.5321C84.0553 13.5321 84.0589 13.5321 84.0642 13.5321H86.4019C86.4054 13.5321 86.4089 13.5338 86.4125 13.5338C86.4213 13.5338 86.4284 13.5321 86.4373 13.5321C86.5382 13.5321 86.6339 13.5498 86.7242 13.587C86.8145 13.6241 86.8942 13.6773 86.9633 13.7463C87.1085 13.8916 87.1811 14.0669 87.1811 14.2723C87.1811 14.4742 87.1085 14.6478 86.9633 14.793C86.8942 14.862 86.8145 14.9152 86.7242 14.9541C86.6498 14.986 86.5736 15.0002 86.4922 15.0055H86.4904C86.4727 15.0073 86.455 15.0108 86.4373 15.0108C86.432 15.0108 86.4284 15.009 86.4249 15.009C86.4231 15.009 86.4213 15.009 86.4196 15.009H81.2519V15.0108C81.2466 15.0108 81.2413 15.009 81.236 15.009C80.6852 15.009 80.2177 15.2003 79.8352 15.5828C79.4331 15.9848 79.233 16.4559 79.233 16.9978C79.233 17.2599 79.2862 17.5114 79.3942 17.754C79.5022 17.9966 79.6492 18.2109 79.8352 18.3986C80.1823 18.7458 80.5914 18.9299 81.0571 18.9707C81.0589 18.976 81.0642 18.9848 81.066 18.9884H86.5223C86.5241 18.9866 86.5276 18.9848 86.5294 18.9831C89.1309 18.9742 91.2366 16.8632 91.2366 14.2599C91.233 11.7629 89.3009 9.72627 86.8517 9.54918Z" fill="black"/>
<path d="M64.341 6.35235C64.3357 5.81398 64.1427 5.35176 63.7584 4.96746C63.5724 4.78151 63.3599 4.64161 63.1191 4.54421C62.8782 4.4468 62.6232 4.39722 62.354 4.39722C61.8068 4.39722 61.3428 4.58671 60.9621 4.96746C60.5689 5.36062 60.3706 5.82284 60.3652 6.35235C60.3652 6.3559 60.3635 6.35944 60.3635 6.36121V11.8954C60.3635 11.9061 60.3617 11.9698 60.3617 11.9928C60.3617 13.6345 59.0317 14.9663 57.39 14.9663C55.7484 14.9663 54.4095 13.6699 54.4095 12.0265C54.4095 12.0265 54.4095 11.9574 54.4095 11.9397V6.3736V6.36298C54.4095 6.36121 54.4077 6.36121 54.4077 6.35944C54.4042 5.8193 54.2112 5.35531 53.8251 4.96924C53.6392 4.78329 53.4266 4.64338 53.1858 4.54598C52.9449 4.44858 52.6899 4.39899 52.4207 4.39899C51.8735 4.39899 51.4095 4.58848 51.0288 4.96924C50.6338 5.36416 50.4355 5.82638 50.4319 6.35767C50.4319 6.35944 50.4302 6.36121 50.4302 6.36475V11.899C50.4302 12.8571 50.6144 13.7638 50.9845 14.6227C51.3528 15.4799 51.8664 16.2378 52.5252 16.8966C53.184 17.5554 53.9473 18.069 54.8133 18.4374C55.6811 18.8057 56.5931 18.9917 57.5512 18.9917C58.5093 18.9917 59.4036 18.8075 60.236 18.4374C61.0683 18.069 61.7944 17.5554 62.4125 16.8966C63.0305 16.2485 63.5069 15.4958 63.8416 14.6369C64.1763 13.7797 64.3428 12.8659 64.3428 11.899V6.36475C64.3428 6.35944 64.341 6.3559 64.341 6.35235Z" fill="black"/>
<path d="M78.3635 14.1764C78.2077 14.0117 77.8198 13.631 77.0867 13.5584C76.4757 13.4982 75.9497 13.7408 75.4769 14.1286C74.9119 14.5926 74.1309 15.0052 73.2915 14.922C71.2921 14.7254 70.7183 13.4149 70.5607 13.0112C70.3871 12.5631 70.3216 12.2319 70.3216 10.9746V8.36594H74.8783C74.8818 8.36594 74.8871 8.3677 74.8907 8.3677C74.8942 8.3677 74.8978 8.36594 74.9031 8.36594H74.9137C74.9172 8.36594 74.919 8.36416 74.9226 8.36416C75.1864 8.36062 75.4379 8.31104 75.677 8.21009C75.9249 8.10561 76.1428 7.95862 76.334 7.76735C76.7343 7.36712 76.9344 6.89073 76.9344 6.33819C76.9344 5.7768 76.7343 5.2951 76.334 4.89486C76.1445 4.70537 75.9249 4.56015 75.677 4.45921C75.4503 4.36712 75.2095 4.31576 74.9598 4.30867C74.9598 4.30867 74.9332 4.30867 74.9155 4.30867H70.3234V2.03654C70.3234 2.03477 70.3234 2.03299 70.3234 2.03122C70.3234 2.02945 70.3234 2.02768 70.3234 2.02591V2.02237V2.0206C70.3216 1.46275 70.1215 0.98636 69.7248 0.587895C69.5335 0.398403 69.3157 0.253186 69.0678 0.152241C68.8198 0.0512968 68.5577 0.00170898 68.2815 0.00170898C67.7201 0.00170898 67.2437 0.196515 66.8523 0.586125C66.4468 0.991674 66.2431 1.46806 66.2396 2.01352C66.2396 2.01529 66.2378 2.01706 66.2378 2.0206V11.6989C66.2378 12.6853 66.4273 13.6257 66.8063 14.5182C67.1853 15.4108 67.7095 16.1918 68.3771 16.8594C69.0448 17.5271 69.8257 18.0513 70.7183 18.4303C71.6109 18.8093 72.5513 18.9988 73.5377 18.9988C74.4444 18.9988 75.2927 18.85 76.0808 18.5507C76.8688 18.2514 77.5719 17.8034 78.19 17.2048C78.4202 16.9763 78.5902 16.7089 78.7213 16.4114C78.8435 16.1334 78.9161 15.8606 78.909 15.4993C78.9001 15.0354 78.716 14.5501 78.3635 14.1764Z" fill="black"/>
</svg>
