<svg width="150" height="24" viewBox="0 0 150 24" fill="none" xmlns="http://www.w3.org/2000/svg">
<g clip-path="url(#clip0_481_1053)">
<path fill-rule="evenodd" clip-rule="evenodd" d="M45.8831 5.05319C46.7741 5.01604 47.6471 5.30947 48.332 5.87635C48.6336 6.16069 48.8695 6.5066 49.0234 6.89022C49.1773 7.27384 49.2456 7.68605 49.2235 8.09839C49.2536 8.51815 49.1859 8.93916 49.0254 9.32868C48.865 9.7182 48.6163 10.0657 48.2985 10.3442C47.5055 10.9206 46.5329 11.2003 45.5524 11.1341H43.6354V9.45446H45.6051C46.7649 9.45446 47.3448 8.97865 47.3448 8.12694C47.3448 7.17532 46.7314 6.73281 45.5045 6.73281H43.6354V5.05319H45.8831ZM43.6163 11.1341V9.45446H39.8973V6.71854H43.6163V5.05319H38.0762V14.6599H39.8973V11.1341H43.6163Z" fill="black"/>
<path fill-rule="evenodd" clip-rule="evenodd" d="M45.8831 5.05319C46.7741 5.01604 47.6471 5.30947 48.332 5.87635C48.6336 6.16069 48.8695 6.5066 49.0234 6.89022C49.1773 7.27384 49.2456 7.68605 49.2235 8.09839C49.2536 8.51815 49.1859 8.93916 49.0254 9.32868C48.865 9.7182 48.6163 10.0657 48.2985 10.3442C47.5055 10.9206 46.5329 11.2003 45.5524 11.1341H43.6354V9.45446H45.6051C46.7649 9.45446 47.3448 8.97865 47.3448 8.12694C47.3448 7.17532 46.7314 6.73281 45.5045 6.73281H43.6354V5.05319H45.8831ZM43.6163 11.1341H39.8973V14.6599H38.0762V5.05319H43.6163V6.71854H39.8973V9.44019H43.6163V11.1341Z" fill="black"/>
<path fill-rule="evenodd" clip-rule="evenodd" d="M62.6232 14.6598H60.4714L57.9266 11.1341H56.8051V9.45445H58.7892C59.9442 9.45445 60.5241 8.97864 60.5241 8.12693C60.5241 7.1753 59.8915 6.7328 58.6694 6.7328H56.8051V5.05318H59.0336C59.9261 5.00507 60.8031 5.29983 61.4826 5.87634C61.7963 6.15456 62.0448 6.49774 62.2104 6.88167C62.376 7.26561 62.4548 7.68094 62.4411 8.09838C62.4411 9.70187 61.6168 10.6725 60.0448 11.0341L62.6424 14.6598H62.6232ZM56.786 11.1341V9.45445H53.1149V6.71852H56.786V5.05318H51.2075V14.6598H53.1245V11.1341H56.786Z" fill="black"/>
<path fill-rule="evenodd" clip-rule="evenodd" d="M62.6231 14.6598H60.4713L57.9265 11.1341H56.8194V9.45445H58.7891C59.9441 9.45445 60.524 8.97864 60.524 8.12693C60.524 7.1753 59.8914 6.7328 58.6693 6.7328H56.8194V5.05318H59.0336C59.9261 5.00507 60.803 5.29983 61.4825 5.87634C61.7963 6.15456 62.0447 6.49774 62.2103 6.88167C62.3759 7.26561 62.4547 7.68094 62.441 8.09838C62.441 9.70187 61.6167 10.6725 60.0448 11.0341L62.6231 14.6598ZM56.8003 11.1341H53.1149V14.6598H51.1979V5.05318H56.7907V6.71852H53.1053V9.44018H56.7907L56.8003 11.1341Z" fill="black"/>
<path fill-rule="evenodd" clip-rule="evenodd" d="M75.7499 14.6599H65.3119V5.05322H75.4048V6.72808H67.1857V8.85021H72.9032V10.5203H67.1857V12.985H75.7499V14.6599Z" fill="black"/>
<path fill-rule="evenodd" clip-rule="evenodd" d="M83.0584 13.0183L87.4243 5.05322H89.5091L84.1511 14.6599H81.9849L76.6269 5.05322H78.7116L83.0584 13.0183Z" fill="black"/>
<path d="M93.1322 5.05322H91.2296V14.6599H93.1322V5.05322Z" fill="black"/>
<path fill-rule="evenodd" clip-rule="evenodd" d="M105.223 7.40379C103.952 6.76501 102.546 6.43865 101.121 6.45217C98.974 6.45217 97.8814 6.84234 97.8814 7.57985C97.8814 8.05566 98.2791 8.33639 99.1034 8.48865C100.196 8.55526 101.303 8.66946 102.41 8.76462C104.001 8.91212 105.123 9.20712 105.803 9.6306C106.155 9.83638 106.444 10.1333 106.639 10.4894C106.834 10.8456 106.928 11.2478 106.91 11.6528C106.918 12.1372 106.793 12.6146 106.548 13.0337C106.303 13.4528 105.948 13.7979 105.521 14.0319C104.562 14.6076 103.254 14.9026 101.485 14.9026C98.9741 14.9026 96.99 14.3126 95.4995 13.1802L96.5107 11.8526C97.9713 12.8164 99.6991 13.3023 101.452 13.242C102.311 13.2798 103.169 13.1355 103.968 12.8185C104.219 12.7509 104.442 12.6064 104.605 12.4057C104.769 12.2049 104.864 11.9581 104.878 11.7004C104.878 11.2246 104.514 10.8582 103.786 10.6488C103.156 10.5135 102.513 10.4417 101.869 10.4347C100.498 10.3538 99.669 10.3205 99.391 10.2872C98.4436 10.2572 97.5197 9.9869 96.7072 9.50213C96.4293 9.31035 96.2049 9.05179 96.0549 8.75059C95.9049 8.44939 95.8342 8.11536 95.8494 7.77969C95.8559 7.32563 95.9869 6.88191 96.2284 6.49627C96.4699 6.11062 96.8127 5.79763 97.22 5.59095C98.4073 4.99952 99.7267 4.71788 101.054 4.77255C103.22 4.77255 105.008 5.24836 106.326 6.16668L105.223 7.40379Z" fill="black"/>
<path fill-rule="evenodd" clip-rule="evenodd" d="M121.465 9.84936C121.474 10.6092 121.29 11.3591 120.932 12.0306C120.574 12.7021 120.052 13.2739 119.414 13.6939C118.148 14.56 116.638 15.0033 115.101 14.9596H115.053V13.2657C116.203 13.3361 117.341 12.9988 118.264 12.3141C118.648 12.0308 118.96 11.661 119.172 11.235C119.385 10.809 119.492 10.339 119.486 9.86364C119.49 9.38128 119.378 8.90495 119.159 8.4745C118.939 8.04405 118.619 7.67198 118.226 7.38941C117.312 6.71509 116.19 6.37852 115.053 6.43778V4.69631H115.101C116.642 4.67378 118.151 5.13322 119.414 6.00955C120.051 6.42943 120.572 7.00056 120.93 7.6711C121.289 8.34165 121.472 9.09038 121.465 9.84936ZM115.048 4.69631V6.40448C113.907 6.35444 112.781 6.68988 111.856 7.3561C111.472 7.64461 111.161 8.01885 110.948 8.44862C110.736 8.8784 110.629 9.35169 110.634 9.83033C110.62 10.307 110.723 10.78 110.937 11.2074C111.15 11.6348 111.466 12.0034 111.856 12.2808C112.774 12.9627 113.904 13.2999 115.048 13.2324V14.9263C113.512 14.9693 112.001 14.526 110.735 13.6606C110.104 13.2342 109.588 12.6612 109.232 11.9916C108.875 11.322 108.688 10.5759 108.688 9.81843C108.688 9.06093 108.875 8.31489 109.232 7.64526C109.588 6.97562 110.104 6.40266 110.735 5.97624C112.005 5.11835 113.512 4.6713 115.048 4.69631Z" fill="black"/>
<path fill-rule="evenodd" clip-rule="evenodd" d="M121.465 9.84939C121.474 10.6093 121.29 11.3591 120.932 12.0306C120.574 12.7021 120.052 13.274 119.414 13.694C118.148 14.56 116.638 15.0033 115.101 14.9596H115.053V13.2657C116.203 13.3361 117.341 12.9989 118.264 12.3141C118.648 12.0309 118.96 11.661 119.172 11.235C119.385 10.809 119.492 10.339 119.486 9.86367C119.49 9.38131 119.378 8.90499 119.159 8.47453C118.939 8.04408 118.619 7.67201 118.226 7.38944C117.312 6.71512 116.19 6.37855 115.053 6.43781V4.69634H115.101C116.642 4.67381 118.151 5.13325 119.414 6.00958C120.051 6.42946 120.572 7.00059 120.93 7.67113C121.289 8.34168 121.472 9.09041 121.465 9.84939ZM115.048 14.9596C113.512 14.9964 112.004 14.5537 110.735 13.694C110.104 13.2675 109.588 12.6946 109.232 12.0249C108.875 11.3553 108.688 10.6093 108.688 9.85177C108.688 9.09426 108.875 8.34823 109.232 7.6786C109.588 7.00896 110.104 6.436 110.735 6.00958C111.995 5.12761 113.506 4.66758 115.048 4.69634V6.40451C113.907 6.35448 112.781 6.68992 111.856 7.35613C111.472 7.64464 111.161 8.01888 110.948 8.44865C110.736 8.87843 110.629 9.35172 110.634 9.83036C110.62 10.3071 110.723 10.78 110.937 11.2074C111.15 11.6348 111.466 12.0035 111.856 12.2808C112.774 12.9627 113.904 13.2999 115.048 13.2324V14.9596Z" fill="black"/>
<path fill-rule="evenodd" clip-rule="evenodd" d="M135.608 14.6599H133.422L130.892 11.1341H129.785V9.45447H131.702C132.857 9.45447 133.437 8.97866 133.437 8.12695C133.437 7.17533 132.823 6.73282 131.601 6.73282H129.766V5.0532H131.999C132.9 5.01023 133.784 5.30394 134.477 5.87636C134.779 6.16026 135.016 6.50598 135.171 6.88963C135.325 7.27327 135.395 7.6857 135.373 8.0984C135.373 9.70189 134.577 10.6726 132.977 11.0342L135.593 14.6599H135.608ZM129.785 11.1341V9.45447H126.08V6.71855H129.785V5.0532H124.211V14.6599H126.08V11.1341H129.785Z" fill="black"/>
<path fill-rule="evenodd" clip-rule="evenodd" d="M135.608 14.6599H133.422L130.892 11.1341H129.771V9.45447H131.721C132.876 9.45447 133.456 8.97866 133.456 8.12695C133.456 7.17533 132.843 6.73282 131.62 6.73282H129.771V5.0532H132.018C132.919 5.01023 133.803 5.30394 134.496 5.87636C134.798 6.16026 135.035 6.50598 135.19 6.88963C135.345 7.27327 135.414 7.6857 135.392 8.0984C135.392 9.70189 134.597 10.6726 132.996 11.0342L135.608 14.6599ZM129.771 11.1341H126.08V14.6599H124.211V5.0532H129.771V6.71855H126.08V9.4402H129.771V11.1341Z" fill="black"/>
<path fill-rule="evenodd" clip-rule="evenodd" d="M147.675 14.6599H149.76L144.469 5.05322H142.121L136.825 14.6599H145.26L144.287 12.985H139.854L143.309 6.61389L147.675 14.6599Z" fill="black"/>
<path fill-rule="evenodd" clip-rule="evenodd" d="M40.2232 20.2172L40.0075 20.517C39.8954 20.4432 39.7726 20.387 39.6433 20.3504C39.5263 20.3092 39.4031 20.2882 39.2791 20.2886C39.107 20.2872 38.9391 20.3406 38.7998 20.4408C38.7374 20.4925 38.6874 20.5573 38.6534 20.6305C38.6194 20.7038 38.6023 20.7837 38.6033 20.8643C38.6036 20.9354 38.6149 21.006 38.6369 21.0737C38.659 21.1399 38.7008 21.1979 38.7567 21.2402C38.9115 21.387 39.0985 21.4961 39.303 21.559L39.6049 21.6922C39.8003 21.7742 39.967 21.9116 40.0842 22.0872C40.2035 22.2423 40.2629 22.4347 40.2519 22.6296C40.2569 22.7726 40.2293 22.9149 40.1712 23.0459C40.1132 23.1769 40.0261 23.2932 39.9164 23.3861C39.6854 23.5835 39.387 23.6857 39.0825 23.6716C38.9116 23.6761 38.7412 23.6504 38.5793 23.5955C38.4099 23.5433 38.2487 23.468 38.1001 23.3718L38.2678 23.0388C38.405 23.1183 38.5475 23.1882 38.6944 23.2481C38.8032 23.2823 38.9159 23.3031 39.0298 23.31C39.2307 23.3186 39.4269 23.2485 39.5762 23.1149C39.6423 23.0539 39.6955 22.9804 39.7325 22.8987C39.7695 22.8169 39.7897 22.7287 39.7918 22.6391C39.7908 22.559 39.7693 22.4804 39.7295 22.4107C39.6959 22.3377 39.6429 22.2752 39.5762 22.2299C39.3707 22.0895 39.1525 21.9684 38.9244 21.8683C38.7998 21.8112 38.7279 21.7779 38.6512 21.7493C38.5025 21.6719 38.3769 21.557 38.287 21.4163C38.202 21.2721 38.1589 21.1074 38.1624 20.9404C38.1536 20.8034 38.1747 20.6662 38.2243 20.5381C38.274 20.4099 38.3509 20.294 38.4499 20.1982C38.6799 20.0069 38.9747 19.9099 39.2743 19.927C39.4367 19.9306 39.598 19.9563 39.7535 20.0031C39.9174 20.0574 40.0748 20.1292 40.2232 20.2172Z" fill="black"/>
<path fill-rule="evenodd" clip-rule="evenodd" d="M43.4437 20.0032H45.3607V20.3791H43.8894L43.8702 21.5543H45.284V21.935H43.8558L43.8367 23.2339H45.3607L45.3463 23.5956H43.3862L43.4437 20.0032Z" fill="black"/>
<path fill-rule="evenodd" clip-rule="evenodd" d="M51.4186 20.1982L51.2509 20.5313C51.0977 20.4551 50.9371 20.3946 50.7716 20.3505C50.6314 20.3103 50.4862 20.2895 50.3403 20.2886C49.9339 20.2805 49.5409 20.4328 49.2476 20.7121C48.9669 21.0114 48.814 21.4071 48.8211 21.816C48.8133 22.0129 48.8457 22.2092 48.9166 22.3933C48.9874 22.5773 49.0951 22.7451 49.2332 22.8866C49.3638 23.0271 49.5235 23.1378 49.7015 23.211C49.8794 23.2841 50.0712 23.3179 50.2636 23.3101C50.3807 23.3067 50.4974 23.2972 50.6135 23.2815C50.7537 23.2588 50.8916 23.2238 51.0256 23.1768L51.0592 21.6495H51.4809L51.4521 23.4147C51.2663 23.501 51.072 23.568 50.8722 23.6146C50.6721 23.6557 50.468 23.6748 50.2636 23.6717C50.0224 23.6768 49.7818 23.6463 49.5495 23.5813C49.3471 23.5131 49.1576 23.4118 48.9888 23.2815C48.7794 23.1048 48.6152 22.8815 48.5096 22.6296C48.3922 22.3796 48.3348 22.106 48.3418 21.8303C48.3388 21.5314 48.4078 21.2361 48.5431 20.9691C48.6877 20.7012 48.8907 20.4687 49.1374 20.2886C49.2948 20.1668 49.4735 20.0748 49.6646 20.0174C49.8681 19.9564 50.0797 19.9259 50.2924 19.927C50.4864 19.9303 50.6794 19.9559 50.8675 20.0032C51.0592 20.0433 51.2445 20.1089 51.4186 20.1982Z" fill="black"/>
<path fill-rule="evenodd" clip-rule="evenodd" d="M54.8353 20.0032H55.3146L55.2667 22.3489V22.3727C55.2627 22.497 55.2854 22.6207 55.3333 22.7355C55.3813 22.8504 55.4533 22.9538 55.5446 23.0389C55.7508 23.2143 56.0161 23.3061 56.2875 23.2958C56.4295 23.3067 56.5722 23.285 56.7044 23.2321C56.8365 23.1793 56.9546 23.0969 57.0494 22.9913C57.2386 22.7109 57.3296 22.3765 57.3083 22.0397L57.3418 20.0032H57.821L57.7779 22.1491C57.7975 22.5558 57.6623 22.9549 57.3993 23.2673C57.2556 23.4029 57.0852 23.5076 56.8988 23.5748C56.7124 23.6419 56.5141 23.67 56.3162 23.6574C55.9009 23.6865 55.4909 23.5514 55.1756 23.2815C55.0436 23.1344 54.9421 22.9628 54.8771 22.7766C54.8122 22.5905 54.7849 22.3934 54.797 22.1967V22.1301L54.8353 20.0032Z" fill="black"/>
<path fill-rule="evenodd" clip-rule="evenodd" d="M62.1966 20.0032C62.3583 20.0045 62.5192 20.0252 62.6758 20.065C62.8017 20.0924 62.9177 20.1532 63.0113 20.2411C63.1158 20.3267 63.198 20.436 63.251 20.5599C63.3147 20.6954 63.3474 20.8433 63.3468 20.9929C63.3529 21.1076 63.3347 21.2224 63.2935 21.3297C63.2522 21.4371 63.1887 21.5346 63.1072 21.6162C62.9194 21.7947 62.6795 21.9096 62.4219 21.9445C62.5224 21.9913 62.6147 22.0539 62.695 22.1301C62.7939 22.2132 62.8809 22.3092 62.9538 22.4155L63.7398 23.4718L63.3804 23.7288L62.4219 22.4441C62.3562 22.3493 62.279 22.263 62.1918 22.1872V21.7113C62.3486 21.6859 62.4986 21.6292 62.6327 21.5448C62.7064 21.4816 62.766 21.404 62.8079 21.3168C62.8498 21.2296 62.8731 21.1348 62.8762 21.0382C62.8794 20.9417 62.8624 20.8455 62.8262 20.7558C62.7901 20.6661 62.7356 20.5848 62.6663 20.5171C62.5279 20.4134 62.3603 20.3552 62.187 20.3505L62.1966 20.0032ZM61.0895 20.0032H62.1966V20.3505H61.5448L61.5161 21.7256H61.9378C62.0337 21.7256 62.1247 21.7256 62.1966 21.7256V22.2014C62.1678 22.2014 62.1535 22.1729 62.1391 22.1729C62.022 22.1086 61.8894 22.0773 61.7557 22.0825H61.5161L61.4825 23.6193H61.0416L61.0895 20.0032Z" fill="black"/>
<path fill-rule="evenodd" clip-rule="evenodd" d="M68.4941 19.9414C68.7478 19.9347 69.0008 19.9718 69.2417 20.0509C69.4569 20.1231 69.6533 20.2417 69.8168 20.3982C70.0278 20.5657 70.1927 20.7834 70.2961 21.0311C70.4038 21.2787 70.4561 21.5465 70.4495 21.8162C70.4533 22.0763 70.401 22.3343 70.2961 22.5727C70.2012 22.8074 70.0556 23.0186 69.8696 23.1912C69.7018 23.3528 69.5007 23.4762 69.2801 23.5529C69.0402 23.6305 68.7896 23.6706 68.5373 23.6718V23.2959C68.7327 23.3056 68.9279 23.2727 69.1092 23.1995C69.2905 23.1264 69.4536 23.0148 69.5868 22.8725C69.8572 22.564 69.9949 22.1625 69.9702 21.7543C69.9821 21.5638 69.9531 21.3729 69.8851 21.1943C69.817 21.0158 69.7115 20.8536 69.5756 20.7187C69.4396 20.5837 69.2763 20.4789 69.0964 20.4114C68.9166 20.3438 68.7244 20.315 68.5325 20.3269L68.4941 19.9414ZM68.4941 19.9414V20.3221C68.3028 20.3148 68.112 20.347 67.9338 20.4166C67.7557 20.4862 67.594 20.5917 67.459 20.7265C67.1943 21.0219 67.0537 21.4067 67.066 21.8019C67.0527 22.2 67.1933 22.5882 67.459 22.8867C67.593 23.0231 67.7544 23.13 67.9328 23.2005C68.1111 23.271 68.3023 23.3035 68.4941 23.2959V23.6718C68.2353 23.6729 67.9781 23.6327 67.7321 23.5529C67.5053 23.464 67.2984 23.3314 67.1235 23.1627C66.9493 22.9896 66.8109 22.7843 66.7161 22.5584C66.6252 22.3264 66.5797 22.0793 66.5819 21.8304C66.5784 21.5721 66.6239 21.3154 66.7161 21.0739C66.8071 20.8418 66.9458 20.6311 67.1235 20.4553C67.2937 20.2842 67.5023 20.1554 67.7321 20.0794C67.9751 19.9863 68.2336 19.9394 68.4941 19.9414Z" fill="black"/>
<path fill-rule="evenodd" clip-rule="evenodd" d="M75.5534 20.2174L75.3282 20.5172C75.2161 20.4434 75.0933 20.3872 74.964 20.3506C74.8471 20.309 74.7239 20.2881 74.5997 20.2888C74.4277 20.2874 74.2598 20.3408 74.1205 20.441C74.0581 20.4927 74.0081 20.5575 73.9741 20.6308C73.9401 20.704 73.923 20.7839 73.924 20.8645C73.9252 20.9352 73.9348 21.0055 73.9528 21.0739C73.9786 21.1394 74.0216 21.1969 74.0774 21.2404C74.2322 21.3872 74.4192 21.4963 74.6237 21.5592C74.7483 21.6163 74.8489 21.6639 74.9256 21.6924C75.121 21.7744 75.2877 21.9118 75.4049 22.0874C75.5219 22.2436 75.5812 22.4352 75.5726 22.6298C75.5776 22.7728 75.55 22.9151 75.492 23.0461C75.4339 23.1771 75.3468 23.2934 75.2371 23.3863C75.0066 23.5846 74.7079 23.6869 74.4033 23.6718C74.2401 23.6771 74.0774 23.6513 73.924 23.5957C73.754 23.5451 73.5925 23.4697 73.4448 23.3721L73.6125 23.039C73.7496 23.1185 73.8922 23.1884 74.039 23.2483C74.1483 23.2809 74.2608 23.3016 74.3745 23.3102C74.5753 23.3188 74.7715 23.2487 74.9209 23.1151C74.987 23.0541 75.0401 22.9806 75.0772 22.8989C75.1142 22.8172 75.1344 22.7289 75.1365 22.6393C75.1385 22.5588 75.1169 22.4794 75.0742 22.4109C75.0397 22.3425 74.9926 22.2812 74.9352 22.2301C74.7211 22.0929 74.4968 21.972 74.2643 21.8685L74.0103 21.7495C73.868 21.6719 73.7489 21.5585 73.6648 21.4207C73.5806 21.2829 73.5345 21.1255 73.531 20.9644C73.5222 20.8274 73.5433 20.6902 73.5929 20.5621C73.6426 20.4339 73.7195 20.318 73.8186 20.2222C74.0478 20.0296 74.3432 19.9325 74.6429 19.951C74.8054 19.9546 74.9666 19.9803 75.1221 20.0271C75.2719 20.0763 75.4163 20.14 75.5534 20.2174Z" fill="black"/>
<path fill-rule="evenodd" clip-rule="evenodd" d="M20.6938 11.8193C22.2562 13.066 24.5614 12.6901 26.4065 11.2103C28.2516 9.73053 28.8411 7.48469 27.71 6.2C27.71 6.2 27.2787 5.72419 27.9065 5.27216C28.0584 5.17543 28.2379 5.13053 28.4178 5.14427C28.5977 5.15801 28.7682 5.22964 28.9034 5.34829C30.2309 6.86138 29.6893 9.85424 27.1062 11.7623C24.825 13.4324 22.0789 13.6274 20.6938 11.8193Z" fill="black"/>
<path fill-rule="evenodd" clip-rule="evenodd" d="M10.2032 13.2371C11.3973 13.3427 12.5975 13.1182 13.6709 12.5882C14.7443 12.0583 15.649 11.2437 16.2848 10.2347C17.4398 8.33147 16.6922 6.42821 14.6219 5.98095C14.6219 5.98095 13.8215 5.83345 14.2432 5.21013C14.5835 4.73432 15.4222 4.81997 15.4222 4.81997C17.8855 5.33384 19.1651 7.76525 17.4398 10.3299C15.9254 12.5662 12.9397 13.9461 10.2032 13.2371Z" fill="black"/>
<path fill-rule="evenodd" clip-rule="evenodd" d="M16.4097 8.67872C14.3393 6.33772 10.4526 6.29966 6.85828 8.05541C3.26392 9.81116 1.45716 13.1133 2.81343 15.3877C2.81343 15.3877 3.35497 16.2299 2.14727 16.7818C1.87399 16.8858 1.57489 16.9028 1.29147 16.8303C1.00806 16.7578 0.754415 16.5995 0.565757 16.3774C-1.04451 13.689 0.973123 9.24018 5.93333 7.01813C10.2418 5.06254 14.8186 5.50505 16.4097 8.67872Z" fill="black"/>
<path fill-rule="evenodd" clip-rule="evenodd" d="M9.35514 7.99854C3.73356 11.9192 4.95084 14.7979 7.63462 16.5632C12.729 19.9605 19.2851 12.1667 21.0536 13.5465C21.667 14.0604 20.4113 15.3451 20.4113 15.3451C16.2371 19.0897 9.38387 20.993 6.00997 18.3284C3.05781 16.0112 2.90926 10.292 9.35514 7.99854Z" fill="black"/>
<path fill-rule="evenodd" clip-rule="evenodd" d="M14.0851 7.94614C12.9008 8.045 11.7686 8.47332 10.8184 9.18195C9.86814 9.89058 9.13834 10.8508 8.71273 11.9525C7.99865 14.008 9.19197 15.7162 11.3725 15.759C11.3725 15.759 12.1969 15.759 11.9237 16.4299C11.7032 16.958 10.831 17.0199 10.831 17.0199C8.24785 16.9675 6.40276 14.8645 7.54336 12.081C8.08003 10.8124 8.99398 9.73681 10.163 8.99791C11.332 8.25902 12.7004 7.89207 14.0851 7.94614Z" fill="black"/>
<path fill-rule="evenodd" clip-rule="evenodd" d="M26.9529 22.8961C24.1164 22.8301 21.2874 22.5774 18.4846 22.1395C16.9222 21.1879 17.4015 17.0198 18.106 15.2117C19.2466 14.8073 19.9654 14.1982 21.0438 13.3893C25.6829 9.96824 26.6414 4.6201 24.2691 1.90797C24.2691 1.90797 23.3585 1.12763 22.4719 1.76522C21.3553 2.60265 22.1269 3.43533 22.1269 3.43533C24.1493 5.7335 23.0854 9.74936 19.7786 12.3996C16.4718 15.0499 12.3694 15.7303 9.58016 13.5035C10.2743 14.4904 11.2898 15.2097 12.4556 15.54C15.1155 16.5773 13.9461 21.5638 13.7975 22.0634C9.5514 23.1292 6.89637 23.2482 1.18374 23.7525C1.03517 23.8001 1.07352 23.9429 1.30835 23.9238C2.89466 23.9238 12.5036 23.9571 28.8795 23.9952L26.9529 22.8961Z" fill="black"/>
<path fill-rule="evenodd" clip-rule="evenodd" d="M16.9607 12.7138C22.5344 7.98418 20.2723 4.90567 16.5821 3.13565C12.8919 1.36563 7.17927 2.94056 3.85808 6.66618C3.85808 6.66618 2.65038 8.09362 1.46184 7.43224C0.580029 6.90884 1.69667 5.40528 1.69667 5.40528C5.62171 0.994491 13.2369 -1.59393 17.9911 1.09441C22.1893 3.44017 23.9721 9.7209 16.9607 12.7138Z" fill="black"/>
</g>
<defs>
<clipPath id="clip0_481_1053">
<rect width="149.76" height="24" fill="white"/>
</clipPath>
</defs>
</svg>
