<svg width="95" height="40" viewBox="0 0 95 40" fill="none" xmlns="http://www.w3.org/2000/svg">
<path d="M5.98509 28.4501C-0.907521 22.9546 -2.02524 12.8951 3.56336 6.0025C9.15196 -0.890114 19.1183 -2.00783 26.0109 3.48762L23.7755 6.28193C18.3732 1.99733 10.6423 2.92876 6.35766 8.23794C2.07307 13.5471 2.91136 21.3712 8.31367 25.6558L5.98509 28.4501Z" fill="black"/>
<path d="M8.96559 24.7246C4.12214 20.8126 3.47013 13.7337 7.38216 8.89022C11.2942 4.13991 18.1868 3.39477 23.0302 7.1205L20.7948 9.9148C17.5348 7.30679 12.6913 7.7725 9.99017 11.1257C7.38215 14.3857 7.84787 19.2291 11.201 21.9303L8.96559 24.7246Z" fill="black"/>
<path d="M11.9458 21.0914C9.15149 18.856 8.68577 14.7577 10.9212 11.9634C13.1567 9.16907 17.255 8.70335 20.0493 10.9388L17.8138 13.7331C16.603 12.6154 14.7401 12.8948 13.7155 14.1057C12.6909 15.4097 12.8772 17.1794 14.1812 18.204L11.9458 21.0914Z" fill="black"/>
<path d="M10.9215 39.9999C7.28895 39.9999 3.7495 38.7891 0.9552 36.4605L3.19064 33.6662C8.49981 37.9508 16.3239 37.1125 20.6085 31.7102C24.8931 26.3078 24.0548 18.5769 18.6524 14.2923L20.8879 11.498C27.7805 16.9935 28.8982 27.053 23.4028 33.9456C20.7947 37.2988 16.8827 39.3479 12.6913 39.8136C12.1324 39.9999 11.4804 39.9999 10.9215 39.9999Z" fill="black"/>
<path d="M10.9218 35.2491C8.40692 35.2491 5.89205 34.4108 3.93604 32.8274L6.17148 30.0331C9.43149 32.7342 14.275 32.2685 16.9761 29.0085C19.6773 25.7485 19.2116 20.905 15.9515 18.2039C15.8584 18.2039 15.8584 18.1107 15.7652 18.1107L18.0007 15.3164C22.8441 19.2284 23.6824 26.3073 19.7704 31.1508C17.6281 33.7588 14.3681 35.2491 10.9218 35.2491Z" fill="black"/>
<path d="M10.9213 30.5925C9.43101 30.5925 8.03386 30.1268 6.823 29.1954L9.05844 26.4011C10.3624 27.4256 12.1322 27.2393 13.1567 25.9353C14.1813 24.6313 13.995 22.8616 12.691 21.837L14.9265 19.0427C17.7208 21.2782 18.1865 25.3765 15.9511 28.1708C14.8333 29.6611 12.8773 30.5925 10.9213 30.5925Z" fill="black"/>
<path d="M37.0821 23.6703C35.2957 23.6703 33.8854 25.1746 33.8854 26.961C33.8854 28.7474 35.2957 30.1577 37.0821 30.1577C38.4924 30.1577 39.7146 29.3115 40.1847 27.9952H39.3385C39.0565 28.7474 38.2103 29.4055 37.0821 29.4995C35.8598 29.4995 34.7316 28.4653 34.6375 27.2431H40.2787C40.3728 26.5849 40.1847 25.8328 39.8086 25.2686C39.2445 24.2344 38.2103 23.6703 37.0821 23.6703ZM34.6375 26.4909C34.8256 25.1746 36.0478 24.2344 37.3641 24.4225C38.4924 24.6105 39.3385 25.4567 39.4326 26.4909H34.6375ZM43.8515 23.6703C42.8173 23.6703 42.1591 24.2344 41.9711 24.6105V23.8583H41.2189V30.0637H41.9711V26.6789C41.9711 25.9268 42.2532 25.2686 42.5352 24.9866C43.2874 24.2344 44.5097 24.2344 45.2618 24.9866C45.6379 25.2686 45.8259 25.9268 45.8259 26.6789V29.9696H46.5781V26.5849C46.5781 25.5507 46.296 24.8926 45.8259 24.4225C45.2618 23.8583 44.6037 23.6703 43.8515 23.6703ZM50.621 23.6703C48.8346 23.6703 47.4243 25.1746 47.4243 26.961C47.4243 28.7474 48.8346 30.1577 50.621 30.1577C52.0313 30.1577 53.2535 29.3115 53.7236 27.9952H52.8774C52.5954 28.7474 51.7492 29.4055 50.621 29.4995C49.3987 29.4995 48.2705 28.4653 48.1764 27.2431H53.8176C53.9117 26.5849 53.7236 25.8328 53.3475 25.2686C52.7834 24.2344 51.7492 23.6703 50.621 23.6703ZM48.2705 26.4909C48.4585 25.1746 49.6808 24.2344 50.997 24.4225C52.1253 24.6105 52.9715 25.4567 53.0655 26.4909H48.2705ZM55.604 24.7045V23.7643H54.8519V29.9696H55.604V26.3029C55.604 25.8328 55.7921 25.3627 56.0741 24.9866C56.4502 24.6105 56.9203 24.4225 57.3904 24.4225V23.5763C56.6383 23.6703 55.9801 23.8583 55.604 24.7045ZM63.1256 24.8926C62.5615 24.0464 61.7153 23.5763 60.6811 23.6703C58.8947 23.6703 57.3904 25.1746 57.4844 26.961C57.4844 28.7474 58.8947 30.1577 60.6811 30.1577C61.6213 30.1577 62.5615 29.7816 63.0316 28.8414V29.4055C63.0316 31.0979 61.8094 31.756 60.7751 31.756C59.7409 31.756 58.8007 31.1919 58.4246 30.1577H57.5785C58.1426 32.1321 59.8349 32.4142 60.7751 32.4142C61.0572 32.4142 62.4675 32.3201 63.2197 31.2859C63.7838 30.5338 63.7838 29.6876 63.7838 29.0294V23.7643H63.0316L63.1256 24.8926ZM60.6811 29.4055C59.2708 29.4055 58.2366 28.1833 58.2366 26.867C58.2366 25.5507 59.2708 24.3284 60.6811 24.3284C62.0914 24.3284 63.1256 25.5507 63.1256 26.867C63.1256 27.9952 62.3735 29.4055 60.6811 29.4055ZM69.613 23.8583L67.5446 28.7474L65.5702 23.8583H64.724L67.0745 29.7816L66.0403 32.2261H66.8865L70.4592 23.8583H69.613ZM42.4412 12.1998H44.0396V19.8155H42.4412V12.1998ZM66.7924 20.0035C64.5359 20.0035 62.6555 18.2171 62.6555 15.9606C62.6555 13.7042 64.4419 11.8238 66.6984 11.8238H66.8865C67.7326 11.8238 68.5788 12.1058 69.331 12.5759L69.613 12.764V12.1058H71.0233V19.7214H69.613V18.9693L69.331 19.1573C68.4848 19.7214 67.6386 20.0035 66.7924 20.0035ZM66.7924 13.4221C65.3821 13.4221 64.2539 14.5503 64.2539 15.9606C64.2539 17.3709 65.3821 18.4992 66.7924 18.4992C68.2027 18.4992 69.331 17.3709 69.331 15.9606C69.331 14.5503 68.2027 13.4221 66.7924 13.4221ZM77.4167 20.0975C74.4081 20.0975 71.9635 17.653 71.9635 14.6444C71.9635 12.5759 73.1858 10.6955 75.0662 9.75531C75.8184 9.37923 76.5705 9.19119 77.4167 9.19119C79.3911 9.19119 81.1775 10.3194 82.2117 12.0118H80.0493C79.3911 11.3537 78.4509 10.9776 77.4167 10.9776C75.3483 10.9776 73.7499 12.6699 73.7499 14.6444C73.7499 16.6188 75.4423 18.3111 77.4167 18.3111C78.3569 18.3111 79.2971 17.9351 80.0493 17.2769H82.2117C81.1775 18.9693 79.3911 20.0975 77.4167 20.0975ZM87.0068 20.0035C84.7503 20.0035 82.9639 18.2171 82.9639 15.9606C82.9639 13.7042 84.7503 11.9178 87.0068 11.9178C89.2632 11.9178 91.0496 13.7042 91.0496 15.9606C91.0496 18.2171 89.2632 20.0035 87.0068 20.0035ZM87.0068 13.4221C85.5965 13.4221 84.4682 14.5503 84.4682 15.9606C84.4682 17.3709 85.5965 18.4992 87.0068 18.4992C88.4171 18.4992 89.5453 17.3709 89.5453 15.9606C89.4513 14.5503 88.323 13.4221 87.0068 13.4221ZM94.7164 19.7214C94.3403 19.6274 94.0583 19.4394 93.7762 19.2513C92.648 18.4992 91.9898 17.1829 91.9898 15.8666V9.56727H93.4942V15.8666C93.4942 16.8068 93.9643 17.559 94.7164 18.0291V19.7214ZM54.3818 19.8155V12.1058H55.7921V13.046L56.0741 12.764C56.3562 12.4819 56.8263 12.1998 57.2024 12.1058C57.2964 12.1058 57.2964 12.1058 57.3904 12.0118C57.6725 11.9178 57.8605 11.9178 58.1426 11.9178V13.2341C56.9203 13.3281 55.8861 14.2683 55.6981 15.4905V19.8155H54.3818ZM58.8947 19.8155V12.1058H60.305V13.046L60.5871 12.764C60.8692 12.4819 61.3393 12.1998 61.7153 12.1058C61.8094 12.1058 61.8094 12.1058 61.9034 12.0118C62.1854 11.9178 62.3735 11.9178 62.6555 11.9178V13.2341C61.4333 13.3281 60.3991 14.2683 60.211 15.4905V19.8155H58.8947ZM49.2107 20.0035C46.9542 20.0035 45.1678 18.2171 45.1678 15.9606C45.1678 13.7042 46.9542 11.9178 49.2107 11.9178C51.4671 11.9178 53.2535 13.7042 53.2535 15.9606C53.2535 16.2427 53.2535 16.4307 53.1595 16.7128H46.6721L46.7661 16.9949C47.3303 18.3111 48.7406 18.8753 50.0568 18.4052C50.3389 18.3111 50.5269 18.1231 50.809 17.9351H52.7834C52.1253 19.1573 50.715 20.0035 49.2107 20.0035ZM49.2107 13.4221C48.0824 13.4221 47.1422 14.1743 46.7661 15.2085L46.6721 15.4905H51.6552L51.5612 15.2085C51.2791 14.1743 50.3389 13.4221 49.2107 13.4221ZM37.8342 20.0035C37.3641 20.0035 36.894 19.9095 36.4239 19.8155C36.0478 19.7214 35.6718 19.5334 35.2957 19.3454C35.0136 19.1573 34.7316 18.9693 34.4495 18.6872L34.0734 18.3111L35.0136 17.0889L35.3897 17.465C35.5777 17.653 35.7658 17.841 35.9538 17.9351C36.2359 18.1231 36.4239 18.2171 36.706 18.3111C36.988 18.4052 37.3641 18.4992 37.6462 18.4992C38.3043 18.4992 38.8684 18.3111 39.1505 18.0291C39.4326 17.747 39.6206 17.2769 39.6206 16.9008C39.6206 16.7128 39.6206 16.4307 39.4326 16.2427C39.3385 16.0547 39.1505 15.8666 38.9625 15.6786C38.6804 15.4905 38.3983 15.3965 38.1163 15.3025C37.7402 15.2085 37.2701 15.1145 36.894 15.0204C36.5179 14.9264 36.0478 14.8324 35.6718 14.5503C35.3897 14.3623 35.1076 14.1743 34.8256 13.8922C34.6375 13.6101 34.4495 13.3281 34.3555 13.046C34.2615 12.764 34.1674 12.3879 34.1674 12.1058C34.1674 11.7297 34.2615 11.3537 34.3555 10.9776C34.5435 10.6015 34.7316 10.3194 35.0136 10.0374C35.2957 9.75531 35.6718 9.56727 36.1419 9.37923C36.612 9.19119 37.1761 9.09717 37.7402 9.09717C38.2103 9.09717 38.6804 9.19119 39.1505 9.28521C39.5266 9.37923 39.8086 9.56727 40.0907 9.75531C40.2787 9.84933 40.4668 10.0374 40.6548 10.2254L40.7488 10.3194L39.8086 11.4477L39.7146 11.3537C39.5266 11.2596 39.4326 11.0716 39.2445 10.9776C39.0565 10.8836 38.7744 10.7895 38.5864 10.6955C38.3043 10.6015 38.0223 10.5075 37.7402 10.6015C37.4581 10.6015 37.1761 10.6015 36.988 10.6955L36.4239 10.9776C36.2359 11.0716 36.1419 11.2596 36.0478 11.4477C35.9538 11.6357 35.9538 11.7297 35.9538 11.9178C35.9538 12.1058 35.9538 12.2939 36.0478 12.4819C36.1419 12.6699 36.2359 12.858 36.4239 12.952C36.612 13.14 36.894 13.2341 37.1761 13.3281L38.3043 13.6101C38.6804 13.7042 39.0565 13.7982 39.4326 13.9862C39.8086 14.1743 40.0907 14.3623 40.3728 14.6444C40.6548 14.9264 40.8429 15.2085 41.0309 15.5846C41.2189 15.9606 41.313 16.4307 41.313 16.9008C41.313 17.2769 41.2189 17.747 41.0309 18.1231C40.8429 18.4992 40.5608 18.7812 40.2787 19.0633C39.8933 19.4018 39.6206 19.5484 39.2445 19.7196C38.8525 19.9076 38.3043 20.0035 37.8342 20.0035Z" fill="black"/>
<path d="M43.2874 11.5413C43.8066 11.5413 44.2276 11.1203 44.2276 10.6011C44.2276 10.0818 43.8066 9.66089 43.2874 9.66089C42.7681 9.66089 42.3472 10.0818 42.3472 10.6011C42.3472 11.1203 42.7681 11.5413 43.2874 11.5413Z" fill="black"/>
</svg>
