<svg width="70" height="24" viewBox="0 0 70 24" fill="none" xmlns="http://www.w3.org/2000/svg">
<g clip-path="url(#clip0_481_1116)">
<path d="M44.4942 7.91264H41.7092C41.551 7.92123 41.3924 7.92123 41.2342 7.91264C39.129 7.91264 37.5318 9.3379 37.4335 12.5324C37.3352 15.9154 38.8669 17.3079 41.013 17.3079C43.3966 17.3079 44.4942 15.5222 44.4942 13.6628V7.91264ZM47.1072 7.6751V19.241C45.5837 19.241 44.8137 18.815 44.6499 17.4389C44.2133 18.1169 43.6033 18.6659 42.8832 19.0288C42.1631 19.3918 41.359 19.5555 40.5543 19.5031C36.8519 19.5031 34.6649 16.628 34.8205 12.5324C34.9516 8.06008 37.9823 5.75018 41.1932 5.75018H47.1645L47.1072 7.6751ZM4.1857 11.0089C3.36659 10.7959 2.62939 10.4437 2.62939 9.47715C2.62939 8.51059 3.25191 7.96998 4.57068 7.96998H7.16727C8.3386 7.96998 9.71471 7.59319 9.7229 5.75018H4.77546C1.72017 5.75018 -0.0245361 7.26554 -0.0245361 9.41162C-0.0245361 11.3939 1.28604 12.5079 3.61232 13.114L6.19253 13.7857C6.5792 13.8403 6.93363 14.0313 7.19195 14.3241C7.45027 14.617 7.59548 14.9925 7.6014 15.3829C7.6014 16.3986 6.93792 17.0212 5.37341 17.0212H0.45874V19.2082H5.48809C8.50243 19.2082 10.2471 17.6109 10.2471 15.5058C10.2471 13.4007 9.42802 12.344 7.10993 11.7379L4.1857 11.0089ZM26.3017 19.2H28.7591V10.8451C28.7137 10.4587 28.756 10.0671 28.8829 9.69929C29.0097 9.33152 29.2178 8.99707 29.4917 8.72081C29.7656 8.44455 30.0983 8.23358 30.4649 8.10359C30.8316 7.9736 31.2228 7.92793 31.6096 7.96998H32.3222C34.4437 7.96998 34.7796 6.89694 34.7796 5.75018H31.3966C28.3987 5.75018 26.3263 7.43756 26.3263 10.9188L26.3017 19.2ZM20.568 5.70923C22.2062 5.70923 23.0253 6.40547 23.0253 8.37134V15.6287C23.0253 18.1352 20.4533 19.372 17.8321 19.372C15.211 19.372 12.811 18.1352 12.811 15.6287V5.75018C13.9331 5.75018 15.2191 6.11059 15.2683 8.10923V15.0881C15.2683 16.4642 16.325 17.144 17.9304 17.144C19.5359 17.144 20.6171 16.4642 20.6171 15.0881L20.568 5.70923Z" fill="black"/>
<path d="M60.1967 20.2896C60.2054 20.2999 60.2101 20.3129 60.2101 20.3264C60.2101 20.3399 60.2054 20.3529 60.1967 20.3633C59.8434 20.7893 59.4327 21.1642 58.9762 21.4773C58.3748 21.8842 57.7421 22.243 57.0841 22.5503C56.4425 22.8861 55.7706 23.1604 55.0773 23.3694C54.45 23.5506 53.7951 23.6172 53.1442 23.566C52.777 23.5318 52.426 23.3988 52.1285 23.181C52.1222 23.1624 52.1222 23.1423 52.1285 23.1237C52.1285 23.1237 52.1285 23.0745 52.2022 23.0581C53.7693 22.8123 55.3123 22.4313 56.8138 21.9196C58.0172 21.549 59.1639 21.0142 60.2213 20.3305" fill="black"/>
<path d="M60.0656 19.5112C58.6903 20.2474 57.2369 20.8271 55.7325 21.2395C54.2862 21.7307 52.7616 21.9501 51.2355 21.8866C50.6705 21.8346 50.1409 21.5886 49.7366 21.1904C49.7366 21.1904 49.7366 21.1904 49.7366 21.1248C49.7412 21.1079 49.7506 21.0927 49.7637 21.0811C49.7768 21.0695 49.793 21.0619 49.8103 21.0593H50.1543C50.9243 21.0102 52.3004 20.9774 53.9059 20.7481C55.9924 20.494 58.0532 20.061 60.0656 19.4539C60.0656 19.4539 60.1147 19.4539 60.0656 19.5358" fill="black"/>
<path d="M59.9017 21.821C59.9017 21.821 59.9508 21.821 59.9017 21.8866C59.7925 22.2578 59.6102 22.6034 59.3654 22.903C59.1207 23.2026 58.8184 23.4503 58.4764 23.6313C58.1708 23.8312 57.822 23.9556 57.4588 23.994C57.0956 24.0325 56.7284 23.9839 56.3877 23.8524C56.3832 23.8421 56.3809 23.831 56.3809 23.8197C56.3809 23.8084 56.3832 23.7973 56.3877 23.7869C56.3894 23.7723 56.396 23.7587 56.4064 23.7483C56.4168 23.7379 56.4304 23.7313 56.445 23.7296C57.7072 23.3496 58.8724 22.7013 59.8607 21.8292" fill="black"/>
<path d="M68.568 9.81298C68.568 9.81298 68.568 9.81298 68.568 9.86213C68.568 9.91128 68.568 9.86213 68.5025 9.86213L66.2581 9.25599L54.684 6.23346H54.6349C54.1296 6.07878 53.6727 5.7967 53.3079 5.41435C53.2043 5.30882 53.1111 5.19362 53.0294 5.07032C52.8122 4.69054 52.6782 4.26894 52.6363 3.83346C52.631 3.81471 52.631 3.79488 52.6363 3.77612C52.6363 3.77612 52.6772 3.77612 52.7264 3.77612L54.209 4.3495C57.7229 5.68466 67.0281 9.21503 68.5434 9.82118" fill="black"/>
<path d="M67.0281 8.43695C67.0281 8.49428 67.0281 8.51067 66.9625 8.50247C66.4301 8.24855 65.226 7.68336 64.0219 7.0936C63.0144 6.56118 56.0601 3.34206 55.5605 3.11271L54.7414 2.70316C54.6216 2.65023 54.5065 2.5872 54.3973 2.51476C54.1379 2.36971 53.9052 2.18133 53.7093 1.95776C53.5692 1.75951 53.4536 1.54497 53.3653 1.31886C53.2192 0.920893 53.1579 0.496839 53.185 0.0738053C53.1807 0.0663341 53.1785 0.0578592 53.1785 0.0492321C53.1785 0.0406051 53.1807 0.0321295 53.185 0.0246582C53.185 0.0246582 53.185 0.0246582 53.2752 0.0246582L54.1434 0.540699L54.6103 0.819198L57.1987 2.33456C60.7455 4.5052 65.742 7.61783 67.0281 8.43695Z" fill="black"/>
<path d="M69.6164 10.755C69.6207 10.7625 69.623 10.771 69.623 10.7796C69.623 10.7882 69.6207 10.7967 69.6164 10.8042C69.6164 10.8042 69.6164 10.8451 69.559 10.8451L55.7979 9.89496C55.6899 9.8906 55.5828 9.87412 55.4785 9.84581C55.0576 9.71666 54.6748 9.48637 54.3635 9.17509C54.0523 8.8638 53.822 8.481 53.6928 8.06015C53.6867 8.04591 53.6836 8.03058 53.6836 8.01509C53.6836 7.99961 53.6867 7.98428 53.6928 7.97004C53.7044 7.96485 53.717 7.96216 53.7297 7.96216C53.7424 7.96216 53.7549 7.96485 53.7665 7.97004L69.5754 10.7878" fill="black"/>
<path d="M69.0103 11.5332C69.0163 11.5416 69.0196 11.5516 69.0196 11.5619C69.0196 11.5722 69.0163 11.5822 69.0103 11.5905C68.4943 11.6725 59.0909 12.9257 59.0254 12.9339H58.8615H58.6977C58.2046 12.8776 57.7496 12.6414 57.4199 12.2704C57.2424 12.0711 57.0985 11.8443 56.994 11.5987C56.9859 11.5897 56.9814 11.5781 56.9814 11.566C56.9814 11.5539 56.9859 11.5422 56.994 11.5332H57.0513H69.0103Z" fill="black"/>
<path d="M68.2976 12.4751C68.2976 12.4751 68.3468 12.4751 68.355 12.4751C68.3632 12.4751 68.355 12.5161 68.355 12.5407C68.0519 12.7454 61.2614 15.4813 61.1877 15.5058C61 15.6036 60.7818 15.625 60.5787 15.5655C60.3756 15.5059 60.2035 15.3701 60.0983 15.1864C59.9754 14.9816 59.8608 14.8096 59.8116 14.7277C59.7625 14.6458 59.7215 14.6212 59.9181 14.5639C59.9181 14.5639 61.8348 14.0724 63.5304 13.6546C65.4963 13.1714 67.7242 12.6226 68.314 12.4587" fill="black"/>
<path d="M65.2998 17.054C65.305 17.0586 65.3092 17.0642 65.312 17.0706C65.3149 17.0769 65.3164 17.0838 65.3164 17.0908C65.3164 17.0978 65.3149 17.1047 65.312 17.111C65.3092 17.1174 65.305 17.1231 65.2998 17.1277C64.6363 17.8731 62.2117 20.4697 61.1223 21.6164C61.0076 21.7229 60.9503 21.6737 60.9912 21.5591C61.1132 21.2662 61.2144 20.9651 61.2943 20.658C61.3141 20.4572 61.3973 20.2678 61.5318 20.1174C62.9571 18.9543 64.325 17.7912 65.226 17.0703L65.2998 17.054Z" fill="black"/>
<path d="M67.5276 13.7693C67.5276 13.7693 67.5768 13.7693 67.5276 13.8512C66.8641 14.3918 63.8252 16.8573 62.1952 18.1597L62.1297 18.2007C61.6546 18.5611 61.3105 18.643 61.3105 17.873C61.3105 17.6928 61.3105 17.5454 61.3105 17.5454C61.3105 17.3816 61.3106 17.3816 61.3925 17.3406C61.9167 17.0294 62.9406 16.5215 63.7597 15.9973L67.5522 13.7693" fill="black"/>
</g>
<defs>
<clipPath id="clip0_481_1116">
<rect width="69.6573" height="24" fill="white"/>
</clipPath>
</defs>
</svg>
