<svg width="70" height="24" viewBox="0 0 70 24" fill="none" xmlns="http://www.w3.org/2000/svg">
<g clip-path="url(#clip0_484_1400)">
<path d="M3.97696 17.1398C4.26908 17.915 4.6735 18.5779 5.19031 19.1283C5.70712 19.6788 6.31938 20.1001 7.0271 20.3922C7.7349 20.6843 8.50444 20.8304 9.33581 20.8304C10.1447 20.8304 10.903 20.6787 11.6108 20.3753C12.3186 20.0719 12.9365 19.6451 13.4645 19.0946C13.9925 18.5441 14.4025 17.8869 14.6947 17.123C14.9868 16.359 15.1328 15.5053 15.1328 14.5615V0.00170898H18.6716V23.594H15.1665V21.4032C14.3801 22.2345 13.4532 22.8749 12.386 23.3244C11.3186 23.7737 10.1672 23.9984 8.93139 23.9984C7.67308 23.9984 6.49911 23.7793 5.40934 23.3412C4.31964 22.903 3.37589 22.2796 2.5783 21.4707C1.78071 20.6617 1.15152 19.6901 0.690942 18.5554C0.230289 17.4207 0 16.1569 0 14.7637V0.00170898H3.53883V14.5615C3.53883 15.5053 3.68485 16.3646 3.97696 17.1398ZM24.7716 0.00170898V8.59602C25.558 7.80962 26.468 7.18617 27.5016 6.72551C28.5351 6.26486 29.6586 6.03457 30.8719 6.03457C32.1302 6.03457 33.3097 6.27045 34.4107 6.74229C35.5117 7.21413 36.4665 7.85451 37.2755 8.66343C38.0844 9.47235 38.7248 10.4272 39.1966 11.5282C39.6684 12.6292 39.9043 13.7976 39.9043 15.0334C39.9043 16.2691 39.6684 17.4319 39.1966 18.5216C38.7248 19.6113 38.0844 20.5607 37.2755 21.3695C36.4665 22.1784 35.5117 22.8188 34.4107 23.2906C33.3097 23.7624 32.1301 23.9983 30.8719 23.9983C29.6585 23.9983 28.5295 23.768 27.4847 23.3074C26.4399 22.8468 25.5243 22.2233 24.7379 21.4369V23.5939H21.3676V0.00170898H24.7716ZM25.1592 17.3589C25.4625 18.0779 25.8838 18.707 26.4231 19.2463C26.9623 19.7855 27.5915 20.2125 28.3104 20.5271C29.0295 20.8416 29.8046 20.9989 30.636 20.9989C31.4449 20.9989 32.2088 20.8416 32.9278 20.5271C33.6468 20.2125 34.2702 19.7856 34.7984 19.2463C35.3264 18.7071 35.7476 18.0779 36.0622 17.3589C36.3768 16.6399 36.534 15.8647 36.534 15.0334C36.534 14.202 36.3768 13.4212 36.0622 12.691C35.7476 11.9607 35.3264 11.326 34.7984 10.7867C34.2703 10.2476 33.6468 9.82621 32.9278 9.52291C32.2087 9.21962 31.4448 9.06785 30.636 9.06785C29.8272 9.06785 29.0632 9.21954 28.3442 9.52291C27.6252 9.82629 26.9961 10.2476 26.4568 10.7867C25.9176 11.326 25.4907 11.9607 25.1761 12.691C24.8615 13.4212 24.7043 14.202 24.7043 15.0334C24.7042 15.8647 24.8559 16.6399 25.1592 17.3589ZM41.8251 11.562C42.2744 10.4834 42.8924 9.53418 43.6787 8.71407C44.4651 7.89396 45.3976 7.24799 46.4761 6.77615C47.5546 6.30431 48.723 6.06843 49.9813 6.06843C51.2171 6.06843 52.363 6.29312 53.419 6.74244C54.475 7.19183 55.385 7.81536 56.149 8.61302C56.9129 9.4106 57.5084 10.3544 57.9352 11.4441C58.3621 12.5338 58.5756 13.7191 58.5756 14.9998V16.112H44.5888C44.7012 16.8086 44.9259 17.4545 45.2629 18.0499C45.6 18.6453 46.0212 19.1621 46.5267 19.6002C47.0323 20.0384 47.6052 20.3811 48.2456 20.6282C48.886 20.8753 49.5656 20.999 50.2846 20.999C52.3293 20.999 53.9808 20.1563 55.2391 18.4712L57.6994 20.2911C56.8456 21.437 55.7896 22.3358 54.5313 22.9874C53.273 23.6389 51.8575 23.9648 50.2847 23.9648C49.004 23.9648 47.8075 23.74 46.6953 23.2907C45.5831 22.8414 44.617 22.2122 43.7969 21.4032C42.9768 20.5943 42.3308 19.6451 41.8589 18.5554C41.3871 17.4657 41.1511 16.2804 41.1511 14.9997C41.151 13.7864 41.3758 12.6405 41.8251 11.562ZM46.5604 10.2306C45.6055 11.0283 44.9708 12.09 44.6562 13.4156H55.1379C54.8458 12.09 54.2223 11.0283 53.2674 10.2306C52.3124 9.43305 51.1946 9.03422 49.9139 9.03422C48.6332 9.03422 47.5154 9.43305 46.5604 10.2306ZM64.9453 10.6182C64.2263 11.4046 63.8668 12.4719 63.8668 13.82V23.594H60.4627V6.40536H63.833V8.52867C64.2599 7.83214 64.8161 7.28162 65.5013 6.8772C66.1866 6.4727 67.0011 6.27045 67.9449 6.27045H69.1244V9.43857H67.7089C66.5855 9.43864 65.6643 9.83181 64.9453 10.6182Z" fill="#010202"/>
</g>
<defs>
<clipPath id="clip0_484_1400">
<rect width="69.1244" height="24" fill="white"/>
</clipPath>
</defs>
</svg>
