<svg width="81" height="44" viewBox="0 0 81 44" fill="none" xmlns="http://www.w3.org/2000/svg">
<path d="M80.5298 44H0V0H80.5298V44ZM0.651432 43.3486H79.8783V0.651432H0.651432V43.3486Z" fill="black"/>
<path d="M63.1393 28.84H61.6311V15.2874H63.1393V28.84ZM51.8242 27.438C52.7447 27.438 53.5449 27.3389 54.2246 27.1406C54.9044 26.9423 55.5275 26.5741 56.101 26.036C56.6533 25.5191 57.0711 24.9243 57.3614 24.2375C57.6517 23.5577 57.7933 22.8284 57.7933 22.0637C57.7933 21.2706 57.6446 20.5271 57.3472 19.8191C57.0499 19.111 56.6108 18.5091 56.0373 18.0064C55.4638 17.4895 54.8407 17.1425 54.1751 16.9655C53.5095 16.7885 52.7306 16.6964 51.8313 16.6964H50.7338V27.4451H51.8242V27.438ZM49.2185 15.2874H51.7747C52.9005 15.2874 53.8777 15.4006 54.7061 15.6272C55.5346 15.8538 56.3205 16.2857 57.064 16.923C57.8217 17.5674 58.381 18.3321 58.7563 19.2172C59.1245 20.0952 59.3157 21.0511 59.3157 22.0849C59.3157 23.0904 59.1316 24.018 58.7563 24.8747C58.3881 25.7244 57.8358 26.4821 57.0994 27.1406C56.3418 27.8133 55.5558 28.2664 54.7344 28.5001C53.9131 28.7338 52.9147 28.8541 51.7393 28.8541H49.2185V15.2874ZM40.9836 28.84H39.4753V15.2874H41.4367C42.1306 15.2874 42.775 15.344 43.3627 15.4573C43.9504 15.5706 44.4744 15.7618 44.9276 16.0308C45.3807 16.2999 45.7418 16.6823 46.0038 17.185C46.2658 17.6807 46.4004 18.2967 46.4004 19.026C46.4004 20.0669 46.0959 20.9307 45.4799 21.6034C44.8709 22.2832 44.0425 22.6655 43.0016 22.7647L47.3138 28.84H45.4586L41.3588 22.885H40.9836V28.84ZM40.9836 21.5609H41.4509C41.9395 21.5609 42.3856 21.5326 42.775 21.4689C43.1644 21.4122 43.5185 21.2919 43.8442 21.1148C44.1699 20.9378 44.4248 20.69 44.6089 20.3714C44.793 20.0456 44.8851 19.635 44.8851 19.1322C44.8851 18.5941 44.793 18.1551 44.616 17.8294C44.439 17.4966 44.1912 17.2558 43.8796 17.093C43.568 16.9301 43.214 16.8239 42.8246 16.7672C42.4351 16.7106 41.9678 16.6893 41.4296 16.6893H40.9836V21.5609ZM29.8738 15.2874H36.905V16.6893H31.382V20.7183H36.7422V22.1203H31.382V27.4451H36.905V28.8471H29.8738V15.2874ZM22.8992 25.6253L26.7653 15.2874H28.401L22.8992 29.6543L17.3975 15.2874H19.0331L22.8992 25.6253Z" fill="black"/>
</svg>
