<svg width="149" height="20" viewBox="0 0 149 20" fill="none" xmlns="http://www.w3.org/2000/svg">
<mask id="path-1-inside-1_483_1052" fill="white">
<path d="M140.047 8.32588L139.343 6.61103C140.791 5.67504 142.45 5.19457 144.135 5.2234C147.419 5.2234 149 7.18062 149 10.8285V19.6451H147.391L147.218 18.0636C145.956 19.2305 144.363 19.8934 142.705 19.942C140.197 19.942 138.617 18.2817 138.617 15.8336C138.617 13.1432 140.197 11.4526 143.431 11.4526H147.14V10.9921C147.14 8.4592 146.112 7.10185 143.834 7.10185C142.494 7.14029 141.187 7.56259 140.047 8.32588L140.047 8.32588ZM147.14 13.1735H143.504C141.499 13.1735 140.499 14.0703 140.499 15.5973C140.499 17.1243 141.577 18.0696 143.158 18.0696C144.634 18.0219 146.045 17.4053 147.14 16.3305L147.14 13.1735ZM103.826 19.6451L101.463 4.49626L96.4978 19.6451H95.068L90.1249 4.4599L87.74 19.6451H85.7572L88.8738 0.606096H90.8063L95.794 16.4397L100.759 0.606096H102.692L105.809 19.6512L103.826 19.6451ZM117.851 18.6392C116.452 19.501 114.867 19.9424 113.259 19.9178C109.35 19.9178 106.864 16.9244 106.864 12.5676C106.864 8.45918 109.35 5.2234 112.807 5.2234C116.264 5.2234 118.325 8.13197 118.325 11.7798C118.325 12.2949 118.325 12.816 118.275 13.3311H108.78C109.076 16.2154 110.785 18.0939 113.416 18.0939C114.735 18.0678 116.03 17.7133 117.203 17.0577L117.851 18.6392ZM116.421 11.5617V11.4526C116.421 8.95002 115.069 7.04733 112.835 7.04733C110.601 7.04733 109.121 8.98033 108.797 11.5617L116.421 11.5617ZM131.741 8.72911e-05V19.6147H130.138L129.96 18.1786C128.775 19.3094 127.248 19.9283 125.67 19.9177C122.157 19.9177 120.202 16.5971 120.202 12.5978C120.202 8.4894 122.436 5.22332 125.994 5.22332C127.404 5.22113 128.776 5.7167 129.904 6.63519V0L131.741 8.72911e-05ZM126.05 18.0635C127.46 18.0149 128.81 17.4268 129.859 16.4032V8.59854C128.879 7.64217 127.619 7.09269 126.301 7.0473C123.665 7.0473 122.084 9.38628 122.084 12.5978C122.084 15.6155 123.464 18.0635 126.05 18.0635L126.05 18.0635ZM136.394 5.2779V19.6451H134.512V5.2779H136.394ZM12.1369 7.67142C11.9359 8.92575 11.6343 10.3134 11.4611 11.1254L9.55652 19.6451H5.08825L0 0.606065H4.11081L6.49575 10.1195C6.66889 10.9618 6.99843 12.404 7.24977 13.6038L10.1541 0.606065H14.0918L17.0297 13.6098C17.3034 12.3979 17.6273 10.9679 17.8061 10.1256L20.1351 0.606065H24.2515L19.2247 19.6512H14.7565L12.8128 11.1254C12.6396 10.3013 12.338 8.92583 12.1369 7.6715L12.1369 7.67142ZM47.9892 5.2779H51.2454L51.4968 6.77461C52.0664 6.18853 52.7285 5.71849 53.4516 5.38697C54.1628 5.08401 54.9219 4.93577 55.6858 4.95069C56.2914 4.91274 56.8969 5.02822 57.4543 5.28799C58.0117 5.54777 58.5058 5.9447 58.8974 6.44739C59.6514 7.45328 60.0144 8.87121 60.0144 10.6891V19.645H56.2778V10.9375C56.3253 10.2754 56.1463 9.61746 55.7752 9.08934C55.5675 8.86532 55.3162 8.6946 55.0398 8.58975C54.7634 8.48489 54.4688 8.44854 54.1778 8.48339C53.2691 8.51233 52.399 8.8878 51.7202 9.5438V19.6451H47.9892L47.9892 5.2779ZM72.7211 15.7548L73.8717 18.5059C72.3151 19.5304 70.5198 20.0479 68.6997 19.9965C64.7899 19.9965 61.9973 16.8395 61.9973 12.4585C61.9973 8.26527 64.5833 4.97493 68.3925 4.97493C72.0565 4.97493 74.3353 7.78049 74.3353 12.0222C74.3353 12.5675 74.3353 13.3007 74.285 13.7067H65.6836C66.0131 15.6942 67.2419 16.6456 69.2973 16.6456C70.4864 16.6369 71.6577 16.3321 72.7211 15.7548V15.7548ZM65.6724 11.0466H70.8891V10.9133C70.8948 10.1671 70.6552 9.4431 70.2133 8.87121C69.9877 8.6043 69.7118 8.39313 69.4044 8.25199C69.097 8.11085 68.7652 8.04305 68.4316 8.05317C68.0908 8.04562 67.7522 8.11436 67.437 8.25511C67.1218 8.39585 66.8367 8.60559 66.5996 8.87121C66.0923 9.48561 65.769 10.2527 65.6724 11.0708V11.0466ZM45.8557 5.25973C45.6947 5.23597 45.5323 5.22382 45.3698 5.22338C44.6083 5.22615 43.8549 5.39372 43.1539 5.71627C42.4528 6.03882 41.8181 6.50986 41.2869 7.10183L41.0356 5.28398H37.7737V19.6451H41.5103V9.82257C42.4381 9.2038 43.5044 8.87268 44.5934 8.86516C45.0163 8.86233 45.4386 8.89882 45.8557 8.97423L45.8557 5.25973ZM84.3946 8.97423H84.4448L85.0536 5.45363L84.8637 5.38698C84.5526 5.30545 84.2343 5.26075 83.9142 5.25367C83.1518 5.25598 82.3975 5.42331 81.6955 5.74586C80.9935 6.06841 80.3578 6.5397 79.8258 7.13212L79.5744 5.31427H76.3126V19.6451H80.0492V9.82255C80.9786 9.20272 82.047 8.87155 83.1379 8.86514C83.5663 8.86253 83.9942 8.89902 84.4169 8.97422L84.3946 8.97423ZM135.417 5.49611e-05C135.178 5.49611e-05 134.945 0.0768182 134.746 0.220637C134.548 0.364457 134.393 0.568873 134.302 0.808035C134.211 1.0472 134.187 1.31037 134.233 1.56426C134.28 1.81815 134.395 2.05137 134.564 2.23442C134.732 2.41746 134.947 2.54212 135.181 2.59262C135.415 2.64313 135.658 2.61721 135.878 2.51814C136.099 2.41908 136.287 2.25132 136.42 2.03608C136.552 1.82084 136.623 1.56778 136.623 1.30891C136.623 0.961783 136.496 0.62887 136.27 0.383411C136.044 0.137952 135.737 5.49611e-05 135.417 5.49611e-05ZM29.9207 4.95069C28.1695 4.95334 26.4381 5.35379 24.8381 6.12624L25.553 9.29538C26.7268 8.71321 27.9991 8.40164 29.2896 8.38038C30.9205 8.38038 31.7751 9.08935 31.7751 10.9375V11.0708H29.2393C25.553 11.0708 23.8718 12.6766 23.8718 15.5912C23.8718 18.2029 25.6033 19.9965 28.2116 19.9965C29.6949 20.0035 31.1234 19.3892 32.1996 18.2817L32.4286 19.6451H35.4837V10.6891C35.4837 7.017 33.4786 4.9507 29.9208 4.9507L29.9207 4.95069ZM31.7751 16.0215C31.074 16.5656 30.2495 16.8924 29.3901 16.9668C28.2731 16.9668 27.6084 16.2881 27.6084 15.3064C27.6084 14.3248 28.2619 13.6764 29.4907 13.6764H31.7751V16.0215Z"/>
</mask>
<path d="M140.047 8.32588L139.343 6.61103C140.791 5.67504 142.45 5.19457 144.135 5.2234C147.419 5.2234 149 7.18062 149 10.8285V19.6451H147.391L147.218 18.0636C145.956 19.2305 144.363 19.8934 142.705 19.942C140.197 19.942 138.617 18.2817 138.617 15.8336C138.617 13.1432 140.197 11.4526 143.431 11.4526H147.14V10.9921C147.14 8.4592 146.112 7.10185 143.834 7.10185C142.494 7.14029 141.187 7.56259 140.047 8.32588L140.047 8.32588ZM147.14 13.1735H143.504C141.499 13.1735 140.499 14.0703 140.499 15.5973C140.499 17.1243 141.577 18.0696 143.158 18.0696C144.634 18.0219 146.045 17.4053 147.14 16.3305L147.14 13.1735ZM103.826 19.6451L101.463 4.49626L96.4978 19.6451H95.068L90.1249 4.4599L87.74 19.6451H85.7572L88.8738 0.606096H90.8063L95.794 16.4397L100.759 0.606096H102.692L105.809 19.6512L103.826 19.6451ZM117.851 18.6392C116.452 19.501 114.867 19.9424 113.259 19.9178C109.35 19.9178 106.864 16.9244 106.864 12.5676C106.864 8.45918 109.35 5.2234 112.807 5.2234C116.264 5.2234 118.325 8.13197 118.325 11.7798C118.325 12.2949 118.325 12.816 118.275 13.3311H108.78C109.076 16.2154 110.785 18.0939 113.416 18.0939C114.735 18.0678 116.03 17.7133 117.203 17.0577L117.851 18.6392ZM116.421 11.5617V11.4526C116.421 8.95002 115.069 7.04733 112.835 7.04733C110.601 7.04733 109.121 8.98033 108.797 11.5617L116.421 11.5617ZM131.741 8.72911e-05V19.6147H130.138L129.96 18.1786C128.775 19.3094 127.248 19.9283 125.67 19.9177C122.157 19.9177 120.202 16.5971 120.202 12.5978C120.202 8.4894 122.436 5.22332 125.994 5.22332C127.404 5.22113 128.776 5.7167 129.904 6.63519V0L131.741 8.72911e-05ZM126.05 18.0635C127.46 18.0149 128.81 17.4268 129.859 16.4032V8.59854C128.879 7.64217 127.619 7.09269 126.301 7.0473C123.665 7.0473 122.084 9.38628 122.084 12.5978C122.084 15.6155 123.464 18.0635 126.05 18.0635L126.05 18.0635ZM136.394 5.2779V19.6451H134.512V5.2779H136.394ZM12.1369 7.67142C11.9359 8.92575 11.6343 10.3134 11.4611 11.1254L9.55652 19.6451H5.08825L0 0.606065H4.11081L6.49575 10.1195C6.66889 10.9618 6.99843 12.404 7.24977 13.6038L10.1541 0.606065H14.0918L17.0297 13.6098C17.3034 12.3979 17.6273 10.9679 17.8061 10.1256L20.1351 0.606065H24.2515L19.2247 19.6512H14.7565L12.8128 11.1254C12.6396 10.3013 12.338 8.92583 12.1369 7.6715L12.1369 7.67142ZM47.9892 5.2779H51.2454L51.4968 6.77461C52.0664 6.18853 52.7285 5.71849 53.4516 5.38697C54.1628 5.08401 54.9219 4.93577 55.6858 4.95069C56.2914 4.91274 56.8969 5.02822 57.4543 5.28799C58.0117 5.54777 58.5058 5.9447 58.8974 6.44739C59.6514 7.45328 60.0144 8.87121 60.0144 10.6891V19.645H56.2778V10.9375C56.3253 10.2754 56.1463 9.61746 55.7752 9.08934C55.5675 8.86532 55.3162 8.6946 55.0398 8.58975C54.7634 8.48489 54.4688 8.44854 54.1778 8.48339C53.2691 8.51233 52.399 8.8878 51.7202 9.5438V19.6451H47.9892L47.9892 5.2779ZM72.7211 15.7548L73.8717 18.5059C72.3151 19.5304 70.5198 20.0479 68.6997 19.9965C64.7899 19.9965 61.9973 16.8395 61.9973 12.4585C61.9973 8.26527 64.5833 4.97493 68.3925 4.97493C72.0565 4.97493 74.3353 7.78049 74.3353 12.0222C74.3353 12.5675 74.3353 13.3007 74.285 13.7067H65.6836C66.0131 15.6942 67.2419 16.6456 69.2973 16.6456C70.4864 16.6369 71.6577 16.3321 72.7211 15.7548V15.7548ZM65.6724 11.0466H70.8891V10.9133C70.8948 10.1671 70.6552 9.4431 70.2133 8.87121C69.9877 8.6043 69.7118 8.39313 69.4044 8.25199C69.097 8.11085 68.7652 8.04305 68.4316 8.05317C68.0908 8.04562 67.7522 8.11436 67.437 8.25511C67.1218 8.39585 66.8367 8.60559 66.5996 8.87121C66.0923 9.48561 65.769 10.2527 65.6724 11.0708V11.0466ZM45.8557 5.25973C45.6947 5.23597 45.5323 5.22382 45.3698 5.22338C44.6083 5.22615 43.8549 5.39372 43.1539 5.71627C42.4528 6.03882 41.8181 6.50986 41.2869 7.10183L41.0356 5.28398H37.7737V19.6451H41.5103V9.82257C42.4381 9.2038 43.5044 8.87268 44.5934 8.86516C45.0163 8.86233 45.4386 8.89882 45.8557 8.97423L45.8557 5.25973ZM84.3946 8.97423H84.4448L85.0536 5.45363L84.8637 5.38698C84.5526 5.30545 84.2343 5.26075 83.9142 5.25367C83.1518 5.25598 82.3975 5.42331 81.6955 5.74586C80.9935 6.06841 80.3578 6.5397 79.8258 7.13212L79.5744 5.31427H76.3126V19.6451H80.0492V9.82255C80.9786 9.20272 82.047 8.87155 83.1379 8.86514C83.5663 8.86253 83.9942 8.89902 84.4169 8.97422L84.3946 8.97423ZM135.417 5.49611e-05C135.178 5.49611e-05 134.945 0.0768182 134.746 0.220637C134.548 0.364457 134.393 0.568873 134.302 0.808035C134.211 1.0472 134.187 1.31037 134.233 1.56426C134.28 1.81815 134.395 2.05137 134.564 2.23442C134.732 2.41746 134.947 2.54212 135.181 2.59262C135.415 2.64313 135.658 2.61721 135.878 2.51814C136.099 2.41908 136.287 2.25132 136.42 2.03608C136.552 1.82084 136.623 1.56778 136.623 1.30891C136.623 0.961783 136.496 0.62887 136.27 0.383411C136.044 0.137952 135.737 5.49611e-05 135.417 5.49611e-05ZM29.9207 4.95069C28.1695 4.95334 26.4381 5.35379 24.8381 6.12624L25.553 9.29538C26.7268 8.71321 27.9991 8.40164 29.2896 8.38038C30.9205 8.38038 31.7751 9.08935 31.7751 10.9375V11.0708H29.2393C25.553 11.0708 23.8718 12.6766 23.8718 15.5912C23.8718 18.2029 25.6033 19.9965 28.2116 19.9965C29.6949 20.0035 31.1234 19.3892 32.1996 18.2817L32.4286 19.6451H35.4837V10.6891C35.4837 7.017 33.4786 4.9507 29.9208 4.9507L29.9207 4.95069ZM31.7751 16.0215C31.074 16.5656 30.2495 16.8924 29.3901 16.9668C28.2731 16.9668 27.6084 16.2881 27.6084 15.3064C27.6084 14.3248 28.2619 13.6764 29.4907 13.6764H31.7751V16.0215Z" fill="#101010" stroke="white" stroke-opacity="0.1" stroke-width="1.71981" mask="url(#path-1-inside-1_483_1052)"/>
</svg>
