<svg width="65" height="28" viewBox="0 0 65 28" fill="none" xmlns="http://www.w3.org/2000/svg">
<g clip-path="url(#clip0_484_1420)">
<mask id="mask0_484_1420" style="mask-type:alpha" maskUnits="userSpaceOnUse" x="0" y="0" width="65" height="28">
<path fill-rule="evenodd" clip-rule="evenodd" d="M64.7048 20.1389C64.897 20.7739 64.6395 21.179 64.0148 21.2579L60.4826 21.6699C59.9505 21.7317 59.5283 21.5017 59.415 20.9799L56.3187 8.25155C56.2261 7.94948 55.9892 7.97694 55.9652 8.29618L55.3782 21.457C55.3473 21.9925 55.0178 22.3186 54.4857 22.377L51.9318 22.6791C51.3963 22.7443 51.0118 22.5074 50.8677 21.9891L47.4762 9.30195C47.3835 8.99988 47.1466 9.02734 47.1158 9.34657L46.8274 22.4731C46.824 23.0017 46.467 23.3278 45.9349 23.3931L42.3924 23.8084C41.7642 23.8839 41.4313 23.5441 41.4793 22.8816L42.976 2.58078C43.0068 2.04185 43.3364 1.72261 43.8719 1.65739L48.0632 1.16652C48.5952 1.1013 48.9557 1.34502 49.1307 1.85306L51.592 9.28822C51.6846 9.58686 51.9215 9.5594 51.9455 9.2436L52.7522 1.4274C52.814 0.885042 53.1092 0.569236 53.6481 0.504016L57.8326 0.00971112C58.368 -0.0520769 58.7559 0.181345 58.9001 0.699678L64.7048 20.1389ZM0.0607103 7.86709C-0.128087 7.22862 0.129364 6.82013 0.750677 6.74804L4.2829 6.33269C4.82182 6.2709 5.23718 6.50089 5.35389 7.01922L8.44672 19.7441C8.54284 20.0496 8.77626 20.0187 8.80372 19.6995L9.39071 6.53865C9.4216 6.00315 9.75114 5.68048 10.2832 5.6187L12.8405 5.31662C13.376 5.2514 13.7605 5.48825 13.9081 6.00659L17.2996 18.7006C17.3957 19.0061 17.6291 18.9787 17.66 18.6594L17.9484 5.53288C17.9518 4.99738 18.3054 4.67471 18.8409 4.61292L22.3799 4.19414C23.0047 4.12205 23.3411 4.46189 23.2896 5.12439L21.7929 25.4218C21.7621 25.9607 21.4325 26.2799 20.9005 26.3383L16.7126 26.836C16.1771 26.9013 15.8201 26.661 15.645 26.1461L13.1804 18.7143C13.0877 18.4157 12.8508 18.4397 12.8268 18.759L12.0201 26.5751C11.9583 27.1209 11.6631 27.4368 11.1242 27.4985L6.93635 27.9894C6.40085 28.0546 6.01296 27.8178 5.86879 27.3029L0.0607103 7.86709ZM25.1707 10.929C25.3252 8.83854 26.1696 3.1815 33.21 2.35423C40.247 1.52352 40.2367 7.07758 40.0788 9.17151L39.4746 17.0872C39.3167 19.1812 38.4757 24.8348 31.4353 25.6689C24.3949 26.4996 24.4052 20.9387 24.5631 18.8482L25.1707 10.929ZM29.8014 16.562C29.6126 19.0061 29.6503 20.4753 31.8472 20.2144C34.051 19.957 34.3153 18.45 34.4938 16.0128L34.844 11.4508C35.0293 9.01017 34.995 7.54099 32.7947 7.80187C30.5943 8.05932 30.3334 9.56627 30.1446 12.0069L29.8014 16.562Z" fill="white"/>
</mask>
<g mask="url(#mask0_484_1420)">
<path d="M65.3707 -0.234131H-0.00109863V28.1884H65.3707V-0.234131Z" fill="black"/>
</g>
</g>
<defs>
<clipPath id="clip0_484_1420">
<rect width="65" height="28" fill="white"/>
</clipPath>
</defs>
</svg>
